<?xml version="1.0" encoding="UTF-8" standalone="no"?>
<!DOCTYPE svg PUBLIC "-//W3C//DTD SVG 1.1//EN"
 "http://www.w3.org/Graphics/SVG/1.1/DTD/svg11.dtd">
<!-- Generated by graphviz version 16.1.0 (20260904.0139)
 -->
<!-- Title: GraphicalStepSequencer Pages: 1 -->
<!--zoomable 580 -->

<svg id="main" version="1.1" xmlns="http://www.w3.org/2000/svg" xmlns:xlink="http://www.w3.org/1999/xlink" xml:space="preserve">

<style type="text/css"><![CDATA[
.node, .edge {opacity: 0.7;}
.node.selected, .edge.selected {opacity: 1;}
.edge:hover path { stroke: red; }
.edge:hover polygon { stroke: red; fill: red; }
]]></style>

<defs>
  <circle id="rim" cx="0" cy="0" r="7"/>
  <circle id="rim2" cx="0" cy="0" r="3.5"/>
  <g id="zoomPlus">
    <use xlink:href="#rim" fill="#404040"><set attributeName="fill" to="#808080" begin="zoomplus.mouseover" end="zoomplus.mouseout"/></use>
    <path d="M-4,0h8M0,-4v8" fill="none" stroke="white" stroke-width="1.5" pointer-events="none"/>
  </g>
  <g id="zoomMin">
    <use xlink:href="#rim" fill="#404040"><set attributeName="fill" to="#808080" begin="zoomminus.mouseover" end="zoomminus.mouseout"/></use>
    <path d="M-4,0h8" fill="none" stroke="white" stroke-width="1.5" pointer-events="none"/>
  </g>
  <g id="arrowUp" transform="translate(30 24)">
    <use xlink:href="#rim"/>
    <path pointer-events="none" fill="none" stroke="white" stroke-width="1.5" d="M0,-3.0v7 M-2.5,-0.5L0,-3.0L2.5,-0.5"/>
  </g>
  <g id="arrowRight" transform="rotate(90) translate(36 -43)">
    <use xlink:href="#rim"/>
    <path pointer-events="none" fill="none" stroke="white" stroke-width="1.5" d="M0,-3.0v7 M-2.5,-0.5L0,-3.0L2.5,-0.5"/>
  </g>
  <g id="arrowDown" transform="rotate(180) translate(-30 -48)">
    <use xlink:href="#rim"/>
    <path pointer-events="none" fill="none" stroke="white" stroke-width="1.5" d="M0,-3.0v7 M-2.5,-0.5L0,-3.0L2.5,-0.5"/>
  </g>
  <g id="arrowLeft" transform="rotate(270) translate(-36 17)">
    <use xlink:href="#rim"/>
    <path pointer-events="none" fill="none" stroke="white" stroke-width="1.5" d="M0,-3.0v7 M-2.5,-0.5L0,-3.0L2.5,-0.5"/>
  </g>
  <g id="resetDef">
    <use xlink:href="#rim2" fill="#404040"><set attributeName="fill" to="#808080" begin="reset.mouseover" end="reset.mouseout"/></use>
  </g>
</defs>
<script type="application/ecmascript" xlink:href="svg.min.js"/>
<svg id="graph" class="graph" data-view-width="350" data-view-height="580" data-section-id="dynsection-0">
<g id="viewport">
<title>GraphicalStepSequencer</title>
<!-- Node1 -->
<g id="Node000001" class="node">
<title>Node1</title>
<g id="a_Node000001"><a xlink:title=" ">
<polygon fill="#999999" stroke="none" points="197.12,-420 59.12,-420 59.12,0 197.12,0 197.12,-420"/>
<polygon fill="#666666" stroke="#666666" points="59.12,-402 59.12,-402 197.12,-402 197.12,-402 59.12,-402"/>
<polygon fill="#666666" stroke="#666666" points="59.12,-242 59.12,-242 71.12,-242 71.12,-242 59.12,-242"/>
<polygon fill="#666666" stroke="#666666" points="71.12,-242 71.12,-242 197.12,-242 197.12,-242 71.12,-242"/>
<polygon fill="none" stroke="#666666" points="59.12,0 59.12,-420 197.12,-420 197.12,0 59.12,0"/>
<text xml:space="preserve" text-anchor="start" x="74.12" y="-406.25" font-family="Helvetica,sans-Serif" font-size="10.00">GraphicalStepSequencer</text>
<text xml:space="preserve" text-anchor="start" x="64.62" y="-390.25" font-family="Helvetica,sans-Serif" font-size="10.00">&#45;</text>
<text xml:space="preserve" text-anchor="start" x="73.12" y="-390.25" font-family="Helvetica,sans-Serif" font-size="10.00">num_steps_</text>
<text xml:space="preserve" text-anchor="start" x="64.62" y="-374.25" font-family="Helvetica,sans-Serif" font-size="10.00">&#45;</text>
<text xml:space="preserve" text-anchor="start" x="73.12" y="-374.25" font-family="Helvetica,sans-Serif" font-size="10.00">steps_per_measure_</text>
<text xml:space="preserve" text-anchor="start" x="64.62" y="-358.25" font-family="Helvetica,sans-Serif" font-size="10.00">&#45;</text>
<text xml:space="preserve" text-anchor="start" x="73.12" y="-358.25" font-family="Helvetica,sans-Serif" font-size="10.00">step_generator_output_</text>
<text xml:space="preserve" text-anchor="start" x="64.62" y="-342.25" font-family="Helvetica,sans-Serif" font-size="10.00">&#45;</text>
<text xml:space="preserve" text-anchor="start" x="73.12" y="-342.25" font-family="Helvetica,sans-Serif" font-size="10.00">last_step_</text>
<text xml:space="preserve" text-anchor="start" x="64.62" y="-326.25" font-family="Helvetica,sans-Serif" font-size="10.00">&#45;</text>
<text xml:space="preserve" text-anchor="start" x="73.12" y="-326.25" font-family="Helvetica,sans-Serif" font-size="10.00">num_steps_slider_</text>
<text xml:space="preserve" text-anchor="start" x="64.62" y="-310.25" font-family="Helvetica,sans-Serif" font-size="10.00">&#45;</text>
<text xml:space="preserve" text-anchor="start" x="73.12" y="-310.25" font-family="Helvetica,sans-Serif" font-size="10.00">highlighted_step_</text>
<text xml:space="preserve" text-anchor="start" x="64.62" y="-294.25" font-family="Helvetica,sans-Serif" font-size="10.00">&#45;</text>
<text xml:space="preserve" text-anchor="start" x="73.12" y="-294.25" font-family="Helvetica,sans-Serif" font-size="10.00">selected_step_</text>
<text xml:space="preserve" text-anchor="start" x="64.62" y="-278.25" font-family="Helvetica,sans-Serif" font-size="10.00">&#45;</text>
<text xml:space="preserve" text-anchor="start" x="73.12" y="-278.25" font-family="Helvetica,sans-Serif" font-size="10.00">sequence_</text>
<text xml:space="preserve" text-anchor="start" x="64.62" y="-262.25" font-family="Helvetica,sans-Serif" font-size="10.00">&#45;</text>
<text xml:space="preserve" text-anchor="start" x="73.12" y="-262.25" font-family="Helvetica,sans-Serif" font-size="10.00">last_edit_position_</text>
<text xml:space="preserve" text-anchor="start" x="64.62" y="-246.25" font-family="Helvetica,sans-Serif" font-size="10.00">&#45;</text>
<text xml:space="preserve" text-anchor="start" x="73.12" y="-246.25" font-family="Helvetica,sans-Serif" font-size="10.00">background_</text>
<text xml:space="preserve" text-anchor="start" x="63.12" y="-230.25" font-family="Helvetica,sans-Serif" font-size="10.00">+</text>
<text xml:space="preserve" text-anchor="start" x="73.12" y="-230.25" font-family="Helvetica,sans-Serif" font-size="10.00">GraphicalStepSequencer()</text>
<text xml:space="preserve" text-anchor="start" x="63.12" y="-214.25" font-family="Helvetica,sans-Serif" font-size="10.00">+</text>
<text xml:space="preserve" text-anchor="start" x="73.12" y="-214.25" font-family="Helvetica,sans-Serif" font-size="10.00">~GraphicalStepSequencer()</text>
<text xml:space="preserve" text-anchor="start" x="63.12" y="-198.25" font-family="Helvetica,sans-Serif" font-size="10.00">+</text>
<text xml:space="preserve" text-anchor="start" x="73.12" y="-198.25" font-family="Helvetica,sans-Serif" font-size="10.00">timerCallback()</text>
<text xml:space="preserve" text-anchor="start" x="63.12" y="-182.25" font-family="Helvetica,sans-Serif" font-size="10.00">+</text>
<text xml:space="preserve" text-anchor="start" x="73.12" y="-182.25" font-family="Helvetica,sans-Serif" font-size="10.00">setNumStepsSlider()</text>
<text xml:space="preserve" text-anchor="start" x="63.12" y="-166.25" font-family="Helvetica,sans-Serif" font-size="10.00">+</text>
<text xml:space="preserve" text-anchor="start" x="73.12" y="-166.25" font-family="Helvetica,sans-Serif" font-size="10.00">setStepsPerMeasure()</text>
<text xml:space="preserve" text-anchor="start" x="63.12" y="-150.25" font-family="Helvetica,sans-Serif" font-size="10.00">+</text>
<text xml:space="preserve" text-anchor="start" x="73.12" y="-150.25" font-family="Helvetica,sans-Serif" font-size="10.00">setStepSliders()</text>
<text xml:space="preserve" text-anchor="start" x="63.12" y="-134.25" font-family="Helvetica,sans-Serif" font-size="10.00">+</text>
<text xml:space="preserve" text-anchor="start" x="73.12" y="-134.25" font-family="Helvetica,sans-Serif" font-size="10.00">sliderValueChanged()</text>
<text xml:space="preserve" text-anchor="start" x="63.12" y="-118.25" font-family="Helvetica,sans-Serif" font-size="10.00">+</text>
<text xml:space="preserve" text-anchor="start" x="73.12" y="-118.25" font-family="Helvetica,sans-Serif" font-size="10.00">guiChanged()</text>
<text xml:space="preserve" text-anchor="start" x="63.12" y="-102.25" font-family="Helvetica,sans-Serif" font-size="10.00">+</text>
<text xml:space="preserve" text-anchor="start" x="73.12" y="-102.25" font-family="Helvetica,sans-Serif" font-size="10.00">resetBackground()</text>
<text xml:space="preserve" text-anchor="start" x="63.12" y="-86.25" font-family="Helvetica,sans-Serif" font-size="10.00">+</text>
<text xml:space="preserve" text-anchor="start" x="73.12" y="-86.25" font-family="Helvetica,sans-Serif" font-size="10.00">showRealtimeFeedback()</text>
<text xml:space="preserve" text-anchor="start" x="73.12" y="-70.25" font-family="Helvetica,sans-Serif" font-size="10.00">and 10 more...</text>
<text xml:space="preserve" text-anchor="start" x="64.62" y="-54.25" font-family="Helvetica,sans-Serif" font-size="10.00">&#45;</text>
<text xml:space="preserve" text-anchor="start" x="73.12" y="-54.25" font-family="Helvetica,sans-Serif" font-size="10.00">getHoveredStep()</text>
<text xml:space="preserve" text-anchor="start" x="64.62" y="-38.25" font-family="Helvetica,sans-Serif" font-size="10.00">&#45;</text>
<text xml:space="preserve" text-anchor="start" x="73.12" y="-38.25" font-family="Helvetica,sans-Serif" font-size="10.00">updateHover()</text>
<text xml:space="preserve" text-anchor="start" x="64.62" y="-22.25" font-family="Helvetica,sans-Serif" font-size="10.00">&#45;</text>
<text xml:space="preserve" text-anchor="start" x="73.12" y="-22.25" font-family="Helvetica,sans-Serif" font-size="10.00">changeStep()</text>
<text xml:space="preserve" text-anchor="start" x="64.62" y="-6.25" font-family="Helvetica,sans-Serif" font-size="10.00">&#45;</text>
<text xml:space="preserve" text-anchor="start" x="73.12" y="-6.25" font-family="Helvetica,sans-Serif" font-size="10.00">ensureMinSize()</text>
</a>
</g>
</g>
<!-- Node2 -->
<g id="Node000002" class="node">
<title>Node2</title>
<g id="a_Node000002"><a xlink:title=" ">
<polygon fill="white" stroke="none" points="58.25,-540 0,-540 0,-488 58.25,-488 58.25,-540"/>
<polygon fill="#666666" stroke="#666666" points="0,-522 0,-522 58.25,-522 58.25,-522 0,-522"/>
<polygon fill="#666666" stroke="#666666" points="0,-506 0,-506 58.25,-506 58.25,-506 0,-506"/>
<polygon fill="none" stroke="#666666" points="0,-488 0,-540 58.25,-540 58.25,-488 0,-488"/>
<text xml:space="preserve" text-anchor="start" x="4" y="-526.25" font-family="Helvetica,sans-Serif" font-size="10.00">Component</text>
<text xml:space="preserve" text-anchor="start" x="27.62" y="-510.25" font-family="Helvetica,sans-Serif" font-size="10.00"> </text>
<text xml:space="preserve" text-anchor="start" x="27.62" y="-494.25" font-family="Helvetica,sans-Serif" font-size="10.00"> </text>
</a>
</g>
</g>
<!-- Node2&#45;&gt;Node1 -->
<g id="edge1_Node000001_Node000002" class="edge">
<title>Node2&#45;&gt;Node1</title>
<g id="a_edge1_Node000001_Node000002"><a xlink:title=" ">
<path fill="none" stroke="#63b8ff" d="M40.83,-477.29C46.01,-461.5 52.55,-441.54 59.71,-419.69"/>
<polygon fill="none" stroke="#63b8ff" points="37.57,-476 37.78,-486.59 44.22,-478.18 37.57,-476"/>
</a>
</g>
</g>
<!-- Node3 -->
<g id="Node000003" class="node">
<title>Node3</title>
<g id="a_Node000003"><a xlink:title=" ">
<polygon fill="white" stroke="none" points="109.5,-540 76.75,-540 76.75,-488 109.5,-488 109.5,-540"/>
<polygon fill="#666666" stroke="#666666" points="76.75,-522 76.75,-522 109.5,-522 109.5,-522 76.75,-522"/>
<polygon fill="#666666" stroke="#666666" points="76.75,-506 76.75,-506 109.5,-506 109.5,-506 76.75,-506"/>
<polygon fill="none" stroke="#666666" points="76.75,-488 76.75,-540 109.5,-540 109.5,-488 76.75,-488"/>
<text xml:space="preserve" text-anchor="start" x="80.75" y="-526.25" font-family="Helvetica,sans-Serif" font-size="10.00">Timer</text>
<text xml:space="preserve" text-anchor="start" x="91.62" y="-510.25" font-family="Helvetica,sans-Serif" font-size="10.00"> </text>
<text xml:space="preserve" text-anchor="start" x="91.62" y="-494.25" font-family="Helvetica,sans-Serif" font-size="10.00"> </text>
</a>
</g>
</g>
<!-- Node3&#45;&gt;Node1 -->
<g id="edge2_Node000001_Node000003" class="edge">
<title>Node3&#45;&gt;Node1</title>
<g id="a_edge2_Node000001_Node000003"><a xlink:title=" ">
<path fill="none" stroke="#63b8ff" d="M97.32,-476.83C99.14,-461.11 101.43,-441.33 103.94,-419.69"/>
<polygon fill="none" stroke="#63b8ff" points="93.87,-476.19 96.19,-486.53 100.82,-477 93.87,-476.19"/>
</a>
</g>
</g>
<!-- Node4 -->
<g id="Node000004" class="node">
<title>Node4</title>
<g id="a_Node000004"><a xlink:title=" ">
<polygon fill="white" stroke="none" points="200.75,-540 127.5,-540 127.5,-488 200.75,-488 200.75,-540"/>
<polygon fill="#666666" stroke="#666666" points="127.5,-522 127.5,-522 200.75,-522 200.75,-522 127.5,-522"/>
<polygon fill="#666666" stroke="#666666" points="127.5,-506 127.5,-506 200.75,-506 200.75,-506 127.5,-506"/>
<polygon fill="none" stroke="#666666" points="127.5,-488 127.5,-540 200.75,-540 200.75,-488 127.5,-488"/>
<text xml:space="preserve" text-anchor="start" x="131.5" y="-526.25" font-family="Helvetica,sans-Serif" font-size="10.00">Slider::Listener</text>
<text xml:space="preserve" text-anchor="start" x="162.62" y="-510.25" font-family="Helvetica,sans-Serif" font-size="10.00"> </text>
<text xml:space="preserve" text-anchor="start" x="162.62" y="-494.25" font-family="Helvetica,sans-Serif" font-size="10.00"> </text>
</a>
</g>
</g>
<!-- Node4&#45;&gt;Node1 -->
<g id="edge3_Node000001_Node000004" class="edge">
<title>Node4&#45;&gt;Node1</title>
<g id="a_edge3_Node000001_Node000004"><a xlink:title=" ">
<path fill="none" stroke="#63b8ff" d="M159.81,-476.83C157.94,-461.11 155.58,-441.33 153,-419.69"/>
<polygon fill="none" stroke="#63b8ff" points="156.31,-477.01 160.97,-486.53 163.26,-476.18 156.31,-477.01"/>
</a>
</g>
</g>
<!-- Node5 -->
<g id="Node000005" class="node">
<title>Node5</title>
<g id="a_Node000005"><a xlink:href="classSynthSlider_1_1SliderListener.html" target="_top" xlink:title=" ">
<polygon fill="white" stroke="none" points="341.88,-572 218.38,-572 218.38,-456 341.88,-456 341.88,-572"/>
<polygon fill="#666666" stroke="#666666" points="218.38,-554 218.38,-554 341.88,-554 341.88,-554 218.38,-554"/>
<polygon fill="#666666" stroke="#666666" points="218.38,-538 218.38,-538 341.88,-538 341.88,-538 218.38,-538"/>
<polygon fill="none" stroke="#666666" points="218.38,-456 218.38,-572 341.88,-572 341.88,-456 218.38,-456"/>
<text xml:space="preserve" text-anchor="start" x="222.38" y="-558.25" font-family="Helvetica,sans-Serif" font-size="10.00">SynthSlider::SliderListener</text>
<text xml:space="preserve" text-anchor="start" x="278.62" y="-542.25" font-family="Helvetica,sans-Serif" font-size="10.00"> </text>
<text xml:space="preserve" text-anchor="start" x="224.38" y="-526.25" font-family="Helvetica,sans-Serif" font-size="10.00">+</text>
<text xml:space="preserve" text-anchor="start" x="236.38" y="-526.25" font-family="Helvetica,sans-Serif" font-size="10.00">~SliderListener()</text>
<text xml:space="preserve" text-anchor="start" x="224.38" y="-510.25" font-family="Helvetica,sans-Serif" font-size="10.00">+</text>
<text xml:space="preserve" text-anchor="start" x="236.38" y="-510.25" font-family="Helvetica,sans-Serif" font-size="10.00">hoverStarted()</text>
<text xml:space="preserve" text-anchor="start" x="224.38" y="-494.25" font-family="Helvetica,sans-Serif" font-size="10.00">+</text>
<text xml:space="preserve" text-anchor="start" x="236.38" y="-494.25" font-family="Helvetica,sans-Serif" font-size="10.00">hoverEnded()</text>
<text xml:space="preserve" text-anchor="start" x="224.38" y="-478.25" font-family="Helvetica,sans-Serif" font-size="10.00">+</text>
<text xml:space="preserve" text-anchor="start" x="236.38" y="-478.25" font-family="Helvetica,sans-Serif" font-size="10.00">modulationsChanged()</text>
<text xml:space="preserve" text-anchor="start" x="224.38" y="-462.25" font-family="Helvetica,sans-Serif" font-size="10.00">+</text>
<text xml:space="preserve" text-anchor="start" x="236.38" y="-462.25" font-family="Helvetica,sans-Serif" font-size="10.00">guiChanged()</text>
</a>
</g>
</g>
<!-- Node5&#45;&gt;Node1 -->
<g id="edge4_Node000001_Node000005" class="edge">
<title>Node5&#45;&gt;Node1</title>
<g id="a_edge4_Node000001_Node000005"><a xlink:title=" ">
<path fill="none" stroke="#63b8ff" d="M246.5,-446.19C231.88,-417.14 214.18,-381.97 196.97,-347.79"/>
<polygon fill="none" stroke="#63b8ff" points="243.23,-447.49 250.85,-454.84 249.49,-444.34 243.23,-447.49"/>
</a>
</g>
</g>
</g>
</svg>

<g id="navigator" transform="translate(0 0)" fill="#404254">
  <rect fill="#f2f5e9" fill-opacity="0.5" stroke="#606060" stroke-width=".5" x="0" y="0" width="60" height="60"/>
  <use id="zoomplus" xlink:href="#zoomPlus" x="17" y="9" data-zoom="in"/>
  <use id="zoomminus" xlink:href="#zoomMin" x="42" y="9" data-zoom="out"/>
  <use id="reset" xlink:href="#resetDef" x="30" y="36" data-reset="true"/>
  <use id="arrowup" xlink:href="#arrowUp" x="0" y="0" data-pan-x="0" data-pan-y="-1"/>
  <use id="arrowright" xlink:href="#arrowRight" x="0" y="0" data-pan-x="1" data-pan-y="0"/>
  <use id="arrowdown" xlink:href="#arrowDown" x="0" y="0" data-pan-x="0" data-pan-y="1"/>
  <use id="arrowleft" xlink:href="#arrowLeft" x="0" y="0" data-pan-x="-1" data-pan-y="0"/>
</g>
<svg viewBox="0 0 15 15" width="100%" height="30px" preserveAspectRatio="xMaxYMin meet">
 <g id="arrow_out" transform="scale(0.3 0.3)">
  <a xlink:href="classGraphicalStepSequencer__inherit__graph_org.svg" target="_base">
   <rect id="button" ry="5" rx="5" y="6" x="6" height="38" width="38"
        fill="#f2f5e9" fill-opacity="0.5" stroke="#606060" stroke-width="1.0"/>
   <path id="arrow"
     d="M 11.500037,31.436501 C 11.940474,20.09759 22.043105,11.32322 32.158766,21.979434 L 37.068811,17.246167 C 37.068811,17.246167 37.088388,32 37.088388,32 L 22.160133,31.978069 C 22.160133,31.978069 26.997745,27.140456 26.997745,27.140456 C 18.528582,18.264221 13.291696,25.230495 11.500037,31.436501 z"
     style="fill:#404040;"/>
  </a>
 </g>
</svg>

<style type='text/css'>
<![CDATA[
[data-mouse-over-selected='false'] { opacity: 0.7; }
[data-mouse-over-selected='true']  { opacity: 1.0; }
]]>
</style>
</svg>
