<?xml version="1.0" encoding="UTF-8" standalone="no"?>
<!DOCTYPE svg PUBLIC "-//W3C//DTD SVG 1.1//EN"
 "http://www.w3.org/Graphics/SVG/1.1/DTD/svg11.dtd">
<!-- Generated by graphviz version 16.1.0 (20260904.0139)
 -->
<!-- Title: mopo::StepGenerator Pages: 1 -->
<!--zoomable 870 -->

<svg id="main" version="1.1" xmlns="http://www.w3.org/2000/svg" xmlns:xlink="http://www.w3.org/1999/xlink" xml:space="preserve">

<style type="text/css"><![CDATA[
.node, .edge {opacity: 0.7;}
.node.selected, .edge.selected {opacity: 1;}
.edge:hover path { stroke: red; }
.edge:hover polygon { stroke: red; fill: red; }
]]></style>

<defs>
  <circle id="rim" cx="0" cy="0" r="7"/>
  <circle id="rim2" cx="0" cy="0" r="3.5"/>
  <g id="zoomPlus">
    <use xlink:href="#rim" fill="#404040"><set attributeName="fill" to="#808080" begin="zoomplus.mouseover" end="zoomplus.mouseout"/></use>
    <path d="M-4,0h8M0,-4v8" fill="none" stroke="white" stroke-width="1.5" pointer-events="none"/>
  </g>
  <g id="zoomMin">
    <use xlink:href="#rim" fill="#404040"><set attributeName="fill" to="#808080" begin="zoomminus.mouseover" end="zoomminus.mouseout"/></use>
    <path d="M-4,0h8" fill="none" stroke="white" stroke-width="1.5" pointer-events="none"/>
  </g>
  <g id="arrowUp" transform="translate(30 24)">
    <use xlink:href="#rim"/>
    <path pointer-events="none" fill="none" stroke="white" stroke-width="1.5" d="M0,-3.0v7 M-2.5,-0.5L0,-3.0L2.5,-0.5"/>
  </g>
  <g id="arrowRight" transform="rotate(90) translate(36 -43)">
    <use xlink:href="#rim"/>
    <path pointer-events="none" fill="none" stroke="white" stroke-width="1.5" d="M0,-3.0v7 M-2.5,-0.5L0,-3.0L2.5,-0.5"/>
  </g>
  <g id="arrowDown" transform="rotate(180) translate(-30 -48)">
    <use xlink:href="#rim"/>
    <path pointer-events="none" fill="none" stroke="white" stroke-width="1.5" d="M0,-3.0v7 M-2.5,-0.5L0,-3.0L2.5,-0.5"/>
  </g>
  <g id="arrowLeft" transform="rotate(270) translate(-36 17)">
    <use xlink:href="#rim"/>
    <path pointer-events="none" fill="none" stroke="white" stroke-width="1.5" d="M0,-3.0v7 M-2.5,-0.5L0,-3.0L2.5,-0.5"/>
  </g>
  <g id="resetDef">
    <use xlink:href="#rim2" fill="#404040"><set attributeName="fill" to="#808080" begin="reset.mouseover" end="reset.mouseout"/></use>
  </g>
</defs>
<script type="application/ecmascript" xlink:href="svg.min.js"/>
<svg id="graph" class="graph" data-view-width="360" data-view-height="870" data-section-id="dynsection-1">
<g id="viewport">
<title>mopo::StepGenerator</title>
<!-- Node1 -->
<g id="Node000001" class="node">
<title>Node1</title>
<g id="a_Node000001"><a xlink:title="G�n�rateur de pas (step sequencer) param�trable.">
<polygon fill="#999999" stroke="none" points="101,-284 0,-284 0,-152 101,-152 101,-284"/>
<polygon fill="#666666" stroke="#666666" points="0,-266 0,-266 101,-266 101,-266 0,-266"/>
<polygon fill="#666666" stroke="#666666" points="0,-218 0,-218 19,-218 19,-218 0,-218"/>
<polygon fill="#666666" stroke="#666666" points="19,-218 19,-218 101,-218 101,-218 19,-218"/>
<polygon fill="none" stroke="#666666" points="0,-152 0,-284 101,-284 101,-152 0,-152"/>
<text xml:space="preserve" text-anchor="start" x="4" y="-270.25" font-family="Helvetica,sans-Serif" font-size="10.00">mopo::StepGenerator</text>
<text xml:space="preserve" text-anchor="start" x="7.88" y="-254.25" font-family="Helvetica,sans-Serif" font-size="10.00">#</text>
<text xml:space="preserve" text-anchor="start" x="21" y="-254.25" font-family="Helvetica,sans-Serif" font-size="10.00">max_steps_</text>
<text xml:space="preserve" text-anchor="start" x="7.88" y="-238.25" font-family="Helvetica,sans-Serif" font-size="10.00">#</text>
<text xml:space="preserve" text-anchor="start" x="21" y="-238.25" font-family="Helvetica,sans-Serif" font-size="10.00">offset_</text>
<text xml:space="preserve" text-anchor="start" x="7.88" y="-222.25" font-family="Helvetica,sans-Serif" font-size="10.00">#</text>
<text xml:space="preserve" text-anchor="start" x="21" y="-222.25" font-family="Helvetica,sans-Serif" font-size="10.00">current_step_</text>
<text xml:space="preserve" text-anchor="start" x="7.5" y="-206.25" font-family="Helvetica,sans-Serif" font-size="10.00">+</text>
<text xml:space="preserve" text-anchor="start" x="21" y="-206.25" font-family="Helvetica,sans-Serif" font-size="10.00">StepGenerator()</text>
<text xml:space="preserve" text-anchor="start" x="7.5" y="-190.25" font-family="Helvetica,sans-Serif" font-size="10.00">+</text>
<text xml:space="preserve" text-anchor="start" x="21" y="-190.25" font-family="Helvetica,sans-Serif" font-size="10.00">clone()</text>
<text xml:space="preserve" text-anchor="start" x="7.5" y="-174.25" font-family="Helvetica,sans-Serif" font-size="10.00">+</text>
<text xml:space="preserve" text-anchor="start" x="21" y="-174.25" font-family="Helvetica,sans-Serif" font-size="10.00">process()</text>
<text xml:space="preserve" text-anchor="start" x="7.5" y="-158.25" font-family="Helvetica,sans-Serif" font-size="10.00">+</text>
<text xml:space="preserve" text-anchor="start" x="21" y="-158.25" font-family="Helvetica,sans-Serif" font-size="10.00">correctToTime()</text>
</a>
</g>
</g>
<!-- Node2 -->
<g id="Node000002" class="node">
<title>Node2</title>
<g id="a_Node000002"><a xlink:href="classmopo_1_1Processor.html" target="_top" xlink:title=" ">
<polygon fill="white" stroke="none" points="236.12,-862 122.88,-862 122.88,-490 236.12,-490 236.12,-862"/>
<polygon fill="#666666" stroke="#666666" points="122.88,-844 122.88,-844 236.12,-844 236.12,-844 122.88,-844"/>
<polygon fill="#666666" stroke="#666666" points="122.88,-700 122.88,-700 134.88,-700 134.88,-700 122.88,-700"/>
<polygon fill="#666666" stroke="#666666" points="134.88,-700 134.88,-700 236.12,-700 236.12,-700 134.88,-700"/>
<polygon fill="none" stroke="#666666" points="122.88,-490 122.88,-862 236.12,-862 236.12,-490 122.88,-490"/>
<text xml:space="preserve" text-anchor="start" x="142.38" y="-848.25" font-family="Helvetica,sans-Serif" font-size="10.00">mopo::Processor</text>
<text xml:space="preserve" text-anchor="start" x="127.25" y="-832.25" font-family="Helvetica,sans-Serif" font-size="10.00">#</text>
<text xml:space="preserve" text-anchor="start" x="136.88" y="-832.25" font-family="Helvetica,sans-Serif" font-size="10.00">sample_rate_</text>
<text xml:space="preserve" text-anchor="start" x="127.25" y="-816.25" font-family="Helvetica,sans-Serif" font-size="10.00">#</text>
<text xml:space="preserve" text-anchor="start" x="136.88" y="-816.25" font-family="Helvetica,sans-Serif" font-size="10.00">buffer_size_</text>
<text xml:space="preserve" text-anchor="start" x="127.25" y="-800.25" font-family="Helvetica,sans-Serif" font-size="10.00">#</text>
<text xml:space="preserve" text-anchor="start" x="136.88" y="-800.25" font-family="Helvetica,sans-Serif" font-size="10.00">samples_to_process_</text>
<text xml:space="preserve" text-anchor="start" x="127.25" y="-784.25" font-family="Helvetica,sans-Serif" font-size="10.00">#</text>
<text xml:space="preserve" text-anchor="start" x="136.88" y="-784.25" font-family="Helvetica,sans-Serif" font-size="10.00">control_rate_</text>
<text xml:space="preserve" text-anchor="start" x="127.25" y="-768.25" font-family="Helvetica,sans-Serif" font-size="10.00">#</text>
<text xml:space="preserve" text-anchor="start" x="136.88" y="-768.25" font-family="Helvetica,sans-Serif" font-size="10.00">enabled_</text>
<text xml:space="preserve" text-anchor="start" x="127.25" y="-752.25" font-family="Helvetica,sans-Serif" font-size="10.00">#</text>
<text xml:space="preserve" text-anchor="start" x="136.88" y="-752.25" font-family="Helvetica,sans-Serif" font-size="10.00">owned_inputs_</text>
<text xml:space="preserve" text-anchor="start" x="127.25" y="-736.25" font-family="Helvetica,sans-Serif" font-size="10.00">#</text>
<text xml:space="preserve" text-anchor="start" x="136.88" y="-736.25" font-family="Helvetica,sans-Serif" font-size="10.00">owned_outputs_</text>
<text xml:space="preserve" text-anchor="start" x="127.25" y="-720.25" font-family="Helvetica,sans-Serif" font-size="10.00">#</text>
<text xml:space="preserve" text-anchor="start" x="136.88" y="-720.25" font-family="Helvetica,sans-Serif" font-size="10.00">inputs_</text>
<text xml:space="preserve" text-anchor="start" x="127.25" y="-704.25" font-family="Helvetica,sans-Serif" font-size="10.00">#</text>
<text xml:space="preserve" text-anchor="start" x="136.88" y="-704.25" font-family="Helvetica,sans-Serif" font-size="10.00">outputs_</text>
<text xml:space="preserve" text-anchor="start" x="126.88" y="-688.25" font-family="Helvetica,sans-Serif" font-size="10.00">+</text>
<text xml:space="preserve" text-anchor="start" x="136.88" y="-688.25" font-family="Helvetica,sans-Serif" font-size="10.00">Processor()</text>
<text xml:space="preserve" text-anchor="start" x="126.88" y="-672.25" font-family="Helvetica,sans-Serif" font-size="10.00">+</text>
<text xml:space="preserve" text-anchor="start" x="136.88" y="-672.25" font-family="Helvetica,sans-Serif" font-size="10.00">~Processor()</text>
<text xml:space="preserve" text-anchor="start" x="126.88" y="-656.25" font-family="Helvetica,sans-Serif" font-size="10.00">+</text>
<text xml:space="preserve" text-anchor="start" x="136.88" y="-656.25" font-family="Helvetica,sans-Serif" font-size="10.00">clone()</text>
<text xml:space="preserve" text-anchor="start" x="126.88" y="-640.25" font-family="Helvetica,sans-Serif" font-size="10.00">+</text>
<text xml:space="preserve" text-anchor="start" x="136.88" y="-640.25" font-family="Helvetica,sans-Serif" font-size="10.00">destroy()</text>
<text xml:space="preserve" text-anchor="start" x="126.88" y="-624.25" font-family="Helvetica,sans-Serif" font-size="10.00">+</text>
<text xml:space="preserve" text-anchor="start" x="136.88" y="-624.25" font-family="Helvetica,sans-Serif" font-size="10.00">process()</text>
<text xml:space="preserve" text-anchor="start" x="126.88" y="-608.25" font-family="Helvetica,sans-Serif" font-size="10.00">+</text>
<text xml:space="preserve" text-anchor="start" x="136.88" y="-608.25" font-family="Helvetica,sans-Serif" font-size="10.00">setSampleRate()</text>
<text xml:space="preserve" text-anchor="start" x="126.88" y="-592.25" font-family="Helvetica,sans-Serif" font-size="10.00">+</text>
<text xml:space="preserve" text-anchor="start" x="136.88" y="-592.25" font-family="Helvetica,sans-Serif" font-size="10.00">setBufferSize()</text>
<text xml:space="preserve" text-anchor="start" x="126.88" y="-576.25" font-family="Helvetica,sans-Serif" font-size="10.00">+</text>
<text xml:space="preserve" text-anchor="start" x="136.88" y="-576.25" font-family="Helvetica,sans-Serif" font-size="10.00">setControlRate()</text>
<text xml:space="preserve" text-anchor="start" x="126.88" y="-560.25" font-family="Helvetica,sans-Serif" font-size="10.00">+</text>
<text xml:space="preserve" text-anchor="start" x="136.88" y="-560.25" font-family="Helvetica,sans-Serif" font-size="10.00">enabled()</text>
<text xml:space="preserve" text-anchor="start" x="126.88" y="-544.25" font-family="Helvetica,sans-Serif" font-size="10.00">+</text>
<text xml:space="preserve" text-anchor="start" x="136.88" y="-544.25" font-family="Helvetica,sans-Serif" font-size="10.00">enable()</text>
<text xml:space="preserve" text-anchor="start" x="136.88" y="-528.25" font-family="Helvetica,sans-Serif" font-size="10.00">and 29 more...</text>
<text xml:space="preserve" text-anchor="start" x="127.25" y="-512.25" font-family="Helvetica,sans-Serif" font-size="10.00">#</text>
<text xml:space="preserve" text-anchor="start" x="136.88" y="-512.25" font-family="Helvetica,sans-Serif" font-size="10.00">addOutput()</text>
<text xml:space="preserve" text-anchor="start" x="127.25" y="-496.25" font-family="Helvetica,sans-Serif" font-size="10.00">#</text>
<text xml:space="preserve" text-anchor="start" x="136.88" y="-496.25" font-family="Helvetica,sans-Serif" font-size="10.00">addInput()</text>
</a>
</g>
</g>
<!-- Node2&#45;&gt;Node1 -->
<g id="edge1_Node000001_Node000002" class="edge">
<title>Node2&#45;&gt;Node1</title>
<g id="a_edge1_Node000001_Node000002"><a xlink:title=" ">
<path fill="none" stroke="#63b8ff" d="M122.84,-479.4C118.64,-464.72 114.49,-450.13 110.5,-436 96.04,-384.84 80.01,-326.8 68.16,-283.62"/>
<polygon fill="none" stroke="#63b8ff" points="119.37,-480 125.48,-488.65 126.1,-478.07 119.37,-480"/>
</a>
</g>
</g>
<!-- Node3 -->
<g id="Node000003" class="node">
<title>Node3</title>
<g id="a_Node000003"><a xlink:href="classmopo_1_1ProcessorRouter.html" target="_top" xlink:title=" ">
<polygon fill="white" stroke="none" points="239.88,-436 119.12,-436 119.12,0 239.88,0 239.88,-436"/>
<polygon fill="#666666" stroke="#666666" points="119.12,-418 119.12,-418 239.88,-418 239.88,-418 119.12,-418"/>
<polygon fill="#666666" stroke="#666666" points="119.12,-274 119.12,-274 131.12,-274 131.12,-274 119.12,-274"/>
<polygon fill="#666666" stroke="#666666" points="131.12,-274 131.12,-274 239.88,-274 239.88,-274 131.12,-274"/>
<polygon fill="none" stroke="#666666" points="119.12,0 119.12,-436 239.88,-436 239.88,0 119.12,0"/>
<text xml:space="preserve" text-anchor="start" x="127.75" y="-422.25" font-family="Helvetica,sans-Serif" font-size="10.00">mopo::ProcessorRouter</text>
<text xml:space="preserve" text-anchor="start" x="123.5" y="-406.25" font-family="Helvetica,sans-Serif" font-size="10.00">#</text>
<text xml:space="preserve" text-anchor="start" x="133.12" y="-406.25" font-family="Helvetica,sans-Serif" font-size="10.00">global_order_</text>
<text xml:space="preserve" text-anchor="start" x="123.5" y="-390.25" font-family="Helvetica,sans-Serif" font-size="10.00">#</text>
<text xml:space="preserve" text-anchor="start" x="133.12" y="-390.25" font-family="Helvetica,sans-Serif" font-size="10.00">local_order_</text>
<text xml:space="preserve" text-anchor="start" x="123.5" y="-374.25" font-family="Helvetica,sans-Serif" font-size="10.00">#</text>
<text xml:space="preserve" text-anchor="start" x="133.12" y="-374.25" font-family="Helvetica,sans-Serif" font-size="10.00">processors_</text>
<text xml:space="preserve" text-anchor="start" x="123.5" y="-358.25" font-family="Helvetica,sans-Serif" font-size="10.00">#</text>
<text xml:space="preserve" text-anchor="start" x="133.12" y="-358.25" font-family="Helvetica,sans-Serif" font-size="10.00">idle_processors_</text>
<text xml:space="preserve" text-anchor="start" x="123.5" y="-342.25" font-family="Helvetica,sans-Serif" font-size="10.00">#</text>
<text xml:space="preserve" text-anchor="start" x="133.12" y="-342.25" font-family="Helvetica,sans-Serif" font-size="10.00">global_feedback_order_</text>
<text xml:space="preserve" text-anchor="start" x="123.5" y="-326.25" font-family="Helvetica,sans-Serif" font-size="10.00">#</text>
<text xml:space="preserve" text-anchor="start" x="133.12" y="-326.25" font-family="Helvetica,sans-Serif" font-size="10.00">local_feedback_order_</text>
<text xml:space="preserve" text-anchor="start" x="123.5" y="-310.25" font-family="Helvetica,sans-Serif" font-size="10.00">#</text>
<text xml:space="preserve" text-anchor="start" x="133.12" y="-310.25" font-family="Helvetica,sans-Serif" font-size="10.00">feedback_processors_</text>
<text xml:space="preserve" text-anchor="start" x="123.5" y="-294.25" font-family="Helvetica,sans-Serif" font-size="10.00">#</text>
<text xml:space="preserve" text-anchor="start" x="133.12" y="-294.25" font-family="Helvetica,sans-Serif" font-size="10.00">global_changes_</text>
<text xml:space="preserve" text-anchor="start" x="123.5" y="-278.25" font-family="Helvetica,sans-Serif" font-size="10.00">#</text>
<text xml:space="preserve" text-anchor="start" x="133.12" y="-278.25" font-family="Helvetica,sans-Serif" font-size="10.00">local_changes_</text>
<text xml:space="preserve" text-anchor="start" x="123.12" y="-262.25" font-family="Helvetica,sans-Serif" font-size="10.00">+</text>
<text xml:space="preserve" text-anchor="start" x="133.12" y="-262.25" font-family="Helvetica,sans-Serif" font-size="10.00">ProcessorRouter()</text>
<text xml:space="preserve" text-anchor="start" x="123.12" y="-246.25" font-family="Helvetica,sans-Serif" font-size="10.00">+</text>
<text xml:space="preserve" text-anchor="start" x="133.12" y="-246.25" font-family="Helvetica,sans-Serif" font-size="10.00">ProcessorRouter()</text>
<text xml:space="preserve" text-anchor="start" x="123.12" y="-230.25" font-family="Helvetica,sans-Serif" font-size="10.00">+</text>
<text xml:space="preserve" text-anchor="start" x="133.12" y="-230.25" font-family="Helvetica,sans-Serif" font-size="10.00">~ProcessorRouter()</text>
<text xml:space="preserve" text-anchor="start" x="123.12" y="-214.25" font-family="Helvetica,sans-Serif" font-size="10.00">+</text>
<text xml:space="preserve" text-anchor="start" x="133.12" y="-214.25" font-family="Helvetica,sans-Serif" font-size="10.00">clone()</text>
<text xml:space="preserve" text-anchor="start" x="123.12" y="-198.25" font-family="Helvetica,sans-Serif" font-size="10.00">+</text>
<text xml:space="preserve" text-anchor="start" x="133.12" y="-198.25" font-family="Helvetica,sans-Serif" font-size="10.00">destroy()</text>
<text xml:space="preserve" text-anchor="start" x="123.12" y="-182.25" font-family="Helvetica,sans-Serif" font-size="10.00">+</text>
<text xml:space="preserve" text-anchor="start" x="133.12" y="-182.25" font-family="Helvetica,sans-Serif" font-size="10.00">process()</text>
<text xml:space="preserve" text-anchor="start" x="123.12" y="-166.25" font-family="Helvetica,sans-Serif" font-size="10.00">+</text>
<text xml:space="preserve" text-anchor="start" x="133.12" y="-166.25" font-family="Helvetica,sans-Serif" font-size="10.00">setSampleRate()</text>
<text xml:space="preserve" text-anchor="start" x="123.12" y="-150.25" font-family="Helvetica,sans-Serif" font-size="10.00">+</text>
<text xml:space="preserve" text-anchor="start" x="133.12" y="-150.25" font-family="Helvetica,sans-Serif" font-size="10.00">setBufferSize()</text>
<text xml:space="preserve" text-anchor="start" x="123.12" y="-134.25" font-family="Helvetica,sans-Serif" font-size="10.00">+</text>
<text xml:space="preserve" text-anchor="start" x="133.12" y="-134.25" font-family="Helvetica,sans-Serif" font-size="10.00">addProcessor()</text>
<text xml:space="preserve" text-anchor="start" x="123.12" y="-118.25" font-family="Helvetica,sans-Serif" font-size="10.00">+</text>
<text xml:space="preserve" text-anchor="start" x="133.12" y="-118.25" font-family="Helvetica,sans-Serif" font-size="10.00">addIdleProcessor()</text>
<text xml:space="preserve" text-anchor="start" x="133.12" y="-102.25" font-family="Helvetica,sans-Serif" font-size="10.00">and 8 more...</text>
<text xml:space="preserve" text-anchor="start" x="123.5" y="-86.25" font-family="Helvetica,sans-Serif" font-size="10.00">#</text>
<text xml:space="preserve" text-anchor="start" x="133.12" y="-86.25" font-family="Helvetica,sans-Serif" font-size="10.00">addFeedback()</text>
<text xml:space="preserve" text-anchor="start" x="123.5" y="-70.25" font-family="Helvetica,sans-Serif" font-size="10.00">#</text>
<text xml:space="preserve" text-anchor="start" x="133.12" y="-70.25" font-family="Helvetica,sans-Serif" font-size="10.00">removeFeedback()</text>
<text xml:space="preserve" text-anchor="start" x="123.5" y="-54.25" font-family="Helvetica,sans-Serif" font-size="10.00">#</text>
<text xml:space="preserve" text-anchor="start" x="133.12" y="-54.25" font-family="Helvetica,sans-Serif" font-size="10.00">reorder()</text>
<text xml:space="preserve" text-anchor="start" x="123.5" y="-38.25" font-family="Helvetica,sans-Serif" font-size="10.00">#</text>
<text xml:space="preserve" text-anchor="start" x="133.12" y="-38.25" font-family="Helvetica,sans-Serif" font-size="10.00">updateAllProcessors()</text>
<text xml:space="preserve" text-anchor="start" x="123.5" y="-22.25" font-family="Helvetica,sans-Serif" font-size="10.00">#</text>
<text xml:space="preserve" text-anchor="start" x="133.12" y="-22.25" font-family="Helvetica,sans-Serif" font-size="10.00">getContext()</text>
<text xml:space="preserve" text-anchor="start" x="123.5" y="-6.25" font-family="Helvetica,sans-Serif" font-size="10.00">#</text>
<text xml:space="preserve" text-anchor="start" x="133.12" y="-6.25" font-family="Helvetica,sans-Serif" font-size="10.00">getDependencies()</text>
</a>
</g>
</g>
<!-- Node2&#45;&gt;Node3 -->
<g id="edge3_Node000003_Node000002" class="edge">
<title>Node2&#45;&gt;Node3</title>
<g id="a_edge3_Node000003_Node000002"><a xlink:title=" ">
<path fill="none" stroke="#63b8ff" d="M175.57,-478.78C175.55,-476.51 175.52,-474.25 175.5,-472 175.38,-460.14 175.34,-447.97 175.34,-435.68"/>
<polygon fill="none" stroke="#63b8ff" points="172.07,-478.76 175.69,-488.72 179.07,-478.68 172.07,-478.76"/>
</a>
</g>
</g>
<!-- Node4 -->
<g id="Node000004" class="node">
<title>Node4</title>
<g id="a_Node000004"><a xlink:href="structmopo_1_1Output.html" target="_top" xlink:title=" ">
<polygon fill="white" stroke="none" points="338,-308 263,-308 263,-128 338,-128 338,-308"/>
<polygon fill="#666666" stroke="#666666" points="263,-290 263,-290 338,-290 338,-290 263,-290"/>
<polygon fill="#666666" stroke="#666666" points="263,-210 263,-210 275,-210 275,-210 263,-210"/>
<polygon fill="#666666" stroke="#666666" points="275,-210 275,-210 338,-210 338,-210 275,-210"/>
<polygon fill="none" stroke="#666666" points="263,-128 263,-308 338,-308 338,-128 263,-128"/>
<text xml:space="preserve" text-anchor="start" x="270.88" y="-294.25" font-family="Helvetica,sans-Serif" font-size="10.00">mopo::Output</text>
<text xml:space="preserve" text-anchor="start" x="267" y="-278.25" font-family="Helvetica,sans-Serif" font-size="10.00">+</text>
<text xml:space="preserve" text-anchor="start" x="277" y="-278.25" font-family="Helvetica,sans-Serif" font-size="10.00">buffer</text>
<text xml:space="preserve" text-anchor="start" x="267" y="-262.25" font-family="Helvetica,sans-Serif" font-size="10.00">+</text>
<text xml:space="preserve" text-anchor="start" x="277" y="-262.25" font-family="Helvetica,sans-Serif" font-size="10.00">buffer_size</text>
<text xml:space="preserve" text-anchor="start" x="267" y="-246.25" font-family="Helvetica,sans-Serif" font-size="10.00">+</text>
<text xml:space="preserve" text-anchor="start" x="277" y="-246.25" font-family="Helvetica,sans-Serif" font-size="10.00">triggered</text>
<text xml:space="preserve" text-anchor="start" x="267" y="-230.25" font-family="Helvetica,sans-Serif" font-size="10.00">+</text>
<text xml:space="preserve" text-anchor="start" x="277" y="-230.25" font-family="Helvetica,sans-Serif" font-size="10.00">trigger_offset</text>
<text xml:space="preserve" text-anchor="start" x="267" y="-214.25" font-family="Helvetica,sans-Serif" font-size="10.00">+</text>
<text xml:space="preserve" text-anchor="start" x="277" y="-214.25" font-family="Helvetica,sans-Serif" font-size="10.00">trigger_value</text>
<text xml:space="preserve" text-anchor="start" x="267" y="-198.25" font-family="Helvetica,sans-Serif" font-size="10.00">+</text>
<text xml:space="preserve" text-anchor="start" x="277" y="-198.25" font-family="Helvetica,sans-Serif" font-size="10.00">Output()</text>
<text xml:space="preserve" text-anchor="start" x="267" y="-182.25" font-family="Helvetica,sans-Serif" font-size="10.00">+</text>
<text xml:space="preserve" text-anchor="start" x="277" y="-182.25" font-family="Helvetica,sans-Serif" font-size="10.00">~Output()</text>
<text xml:space="preserve" text-anchor="start" x="267" y="-166.25" font-family="Helvetica,sans-Serif" font-size="10.00">+</text>
<text xml:space="preserve" text-anchor="start" x="277" y="-166.25" font-family="Helvetica,sans-Serif" font-size="10.00">trigger()</text>
<text xml:space="preserve" text-anchor="start" x="267" y="-150.25" font-family="Helvetica,sans-Serif" font-size="10.00">+</text>
<text xml:space="preserve" text-anchor="start" x="277" y="-150.25" font-family="Helvetica,sans-Serif" font-size="10.00">clearTrigger()</text>
<text xml:space="preserve" text-anchor="start" x="267" y="-134.25" font-family="Helvetica,sans-Serif" font-size="10.00">+</text>
<text xml:space="preserve" text-anchor="start" x="277" y="-134.25" font-family="Helvetica,sans-Serif" font-size="10.00">clearBuffer()</text>
</a>
</g>
</g>
<!-- Node2&#45;&gt;Node4 -->
<g id="edge5_Node000004_Node000002" class="edge">
<title>Node2&#45;&gt;Node4</title>
<g id="a_edge5_Node000004_Node000002"><a xlink:title=" ">
<path fill="none" stroke="#63b8ff" d="M227.92,-490.09C231.88,-477.81 236,-465.69 240.25,-454 243.26,-445.73 245.63,-444.32 248.5,-436 261.34,-398.82 272.17,-357.01 280.57,-320.07"/>
<polygon fill="none" stroke="#63b8ff" points="280.51,-320.34 277.92,-313.61 283.13,-308.63 285.72,-315.36 280.51,-320.34"/>
</a>
</g>
<text xml:space="preserve" text-anchor="start" x="243.25" y="-459.25" font-family="Helvetica,sans-Serif" font-size="10.00" fill="grey">+owner</text>
</g>
<!-- Node3&#45;&gt;Node2 -->
<g id="edge2_Node000002_Node000003" class="edge">
<title>Node3&#45;&gt;Node2</title>
<g id="a_edge2_Node000002_Node000003"><a xlink:title=" ">
<path fill="none" stroke="#63b8ff" d="M179.5,-435.85C179.5,-449.76 179.5,-463.73 179.5,-477.54"/>
<polygon fill="none" stroke="#63b8ff" points="179.5,-477.28 183.5,-483.28 179.5,-489.28 175.5,-483.28 179.5,-477.28"/>
</a>
</g>
<text xml:space="preserve" text-anchor="start" x="182.5" y="-459.25" font-family="Helvetica,sans-Serif" font-size="10.00" fill="grey">#router_</text>
</g>
<!-- Node4&#45;&gt;Node2 -->
<g id="edge4_Node000002_Node000004" class="edge">
<title>Node4&#45;&gt;Node2</title>
<g id="a_edge4_Node000002_Node000004"><a xlink:title=" ">
<path fill="none" stroke="#63b8ff" d="M302.73,-307.98C301.85,-357.15 297.23,-418.85 282.5,-472 273.13,-505.83 257.85,-540.63 241.91,-571.65"/>
<polygon fill="none" stroke="#63b8ff" points="242,-571.47 242.76,-578.65 236.43,-582.1 235.67,-574.93 242,-571.47"/>
</a>
</g>
<text xml:space="preserve" text-anchor="start" x="288.91" y="-459.25" font-family="Helvetica,sans-Serif" font-size="10.00" fill="grey">#null_source_</text>
</g>
</g>
</svg>

<g id="navigator" transform="translate(0 0)" fill="#404254">
  <rect fill="#f2f5e9" fill-opacity="0.5" stroke="#606060" stroke-width=".5" x="0" y="0" width="60" height="60"/>
  <use id="zoomplus" xlink:href="#zoomPlus" x="17" y="9" data-zoom="in"/>
  <use id="zoomminus" xlink:href="#zoomMin" x="42" y="9" data-zoom="out"/>
  <use id="reset" xlink:href="#resetDef" x="30" y="36" data-reset="true"/>
  <use id="arrowup" xlink:href="#arrowUp" x="0" y="0" data-pan-x="0" data-pan-y="-1"/>
  <use id="arrowright" xlink:href="#arrowRight" x="0" y="0" data-pan-x="1" data-pan-y="0"/>
  <use id="arrowdown" xlink:href="#arrowDown" x="0" y="0" data-pan-x="0" data-pan-y="1"/>
  <use id="arrowleft" xlink:href="#arrowLeft" x="0" y="0" data-pan-x="-1" data-pan-y="0"/>
</g>
<svg viewBox="0 0 15 15" width="100%" height="30px" preserveAspectRatio="xMaxYMin meet">
 <g id="arrow_out" transform="scale(0.3 0.3)">
  <a xlink:href="classmopo_1_1StepGenerator__coll__graph_org.svg" target="_base">
   <rect id="button" ry="5" rx="5" y="6" x="6" height="38" width="38"
        fill="#f2f5e9" fill-opacity="0.5" stroke="#606060" stroke-width="1.0"/>
   <path id="arrow"
     d="M 11.500037,31.436501 C 11.940474,20.09759 22.043105,11.32322 32.158766,21.979434 L 37.068811,17.246167 C 37.068811,17.246167 37.088388,32 37.088388,32 L 22.160133,31.978069 C 22.160133,31.978069 26.997745,27.140456 26.997745,27.140456 C 18.528582,18.264221 13.291696,25.230495 11.500037,31.436501 z"
     style="fill:#404040;"/>
  </a>
 </g>
</svg>

<style type='text/css'>
<![CDATA[
[data-mouse-over-selected='false'] { opacity: 0.7; }
[data-mouse-over-selected='true']  { opacity: 1.0; }
]]>
</style>
</svg>
