<?xml version="1.0" encoding="UTF-8" standalone="no"?>
<!DOCTYPE svg PUBLIC "-//W3C//DTD SVG 1.1//EN"
 "http://www.w3.org/Graphics/SVG/1.1/DTD/svg11.dtd">
<!-- Generated by graphviz version 16.1.0 (20260904.0139)
 -->
<!-- Title: mopo/src/delay.cpp Pages: 1 -->
<!--zoomable 364 -->

<svg id="main" version="1.1" xmlns="http://www.w3.org/2000/svg" xmlns:xlink="http://www.w3.org/1999/xlink" xml:space="preserve">

<style type="text/css"><![CDATA[
.node, .edge {opacity: 0.7;}
.node.selected, .edge.selected {opacity: 1;}
.edge:hover path { stroke: red; }
.edge:hover polygon { stroke: red; fill: red; }
]]></style>

<defs>
  <circle id="rim" cx="0" cy="0" r="7"/>
  <circle id="rim2" cx="0" cy="0" r="3.5"/>
  <g id="zoomPlus">
    <use xlink:href="#rim" fill="#404040"><set attributeName="fill" to="#808080" begin="zoomplus.mouseover" end="zoomplus.mouseout"/></use>
    <path d="M-4,0h8M0,-4v8" fill="none" stroke="white" stroke-width="1.5" pointer-events="none"/>
  </g>
  <g id="zoomMin">
    <use xlink:href="#rim" fill="#404040"><set attributeName="fill" to="#808080" begin="zoomminus.mouseover" end="zoomminus.mouseout"/></use>
    <path d="M-4,0h8" fill="none" stroke="white" stroke-width="1.5" pointer-events="none"/>
  </g>
  <g id="arrowUp" transform="translate(30 24)">
    <use xlink:href="#rim"/>
    <path pointer-events="none" fill="none" stroke="white" stroke-width="1.5" d="M0,-3.0v7 M-2.5,-0.5L0,-3.0L2.5,-0.5"/>
  </g>
  <g id="arrowRight" transform="rotate(90) translate(36 -43)">
    <use xlink:href="#rim"/>
    <path pointer-events="none" fill="none" stroke="white" stroke-width="1.5" d="M0,-3.0v7 M-2.5,-0.5L0,-3.0L2.5,-0.5"/>
  </g>
  <g id="arrowDown" transform="rotate(180) translate(-30 -48)">
    <use xlink:href="#rim"/>
    <path pointer-events="none" fill="none" stroke="white" stroke-width="1.5" d="M0,-3.0v7 M-2.5,-0.5L0,-3.0L2.5,-0.5"/>
  </g>
  <g id="arrowLeft" transform="rotate(270) translate(-36 17)">
    <use xlink:href="#rim"/>
    <path pointer-events="none" fill="none" stroke="white" stroke-width="1.5" d="M0,-3.0v7 M-2.5,-0.5L0,-3.0L2.5,-0.5"/>
  </g>
  <g id="resetDef">
    <use xlink:href="#rim2" fill="#404040"><set attributeName="fill" to="#808080" begin="reset.mouseover" end="reset.mouseout"/></use>
  </g>
</defs>
<script type="application/ecmascript" xlink:href="svg.min.js"/>
<svg id="graph" class="graph" data-view-width="678" data-view-height="364" data-section-id="dynsection-0">
<g id="viewport">
<title>mopo/src/delay.cpp</title>
<!-- Node1 -->
<g id="Node000001" class="node">
<title>Node1</title>
<g id="a_Node000001"><a xlink:title="Simple delay effect implementation backed by a circular memory buffer.">
<polygon fill="#999999" stroke="#666666" points="606,-356 505.25,-356 505.25,-336 606,-336 606,-356"/>
<text xml:space="preserve" text-anchor="middle" x="555.62" y="-342.5" font-family="Helvetica,sans-Serif" font-size="10.00">mopo/src/delay.cpp</text>
</a>
</g>
</g>
<!-- Node2 -->
<g id="Node000002" class="node">
<title>Node2</title>
<g id="a_Node000002"><a xlink:href="delay_8h.html" target="_top" xlink:title="Processeur de délai avec interpolation pour mopo.">
<polygon fill="white" stroke="#666666" points="547,-300 500.25,-300 500.25,-280 547,-280 547,-300"/>
<text xml:space="preserve" text-anchor="middle" x="523.62" y="-286.5" font-family="Helvetica,sans-Serif" font-size="10.00">delay.h</text>
</a>
</g>
</g>
<!-- Node1&#45;&gt;Node2 -->
<g id="edge1_Node000001_Node000002" class="edge">
<title>Node1&#45;&gt;Node2</title>
<g id="a_edge1_Node000001_Node000002"><a xlink:title=" ">
<path fill="none" stroke="#63b8ff" d="M550.05,-335.59C545.88,-328.55 540.02,-318.67 534.88,-310"/>
<polygon fill="#63b8ff" stroke="#63b8ff" points="538.02,-308.42 529.91,-301.6 531.99,-311.99 538.02,-308.42"/>
</a>
</g>
</g>
<!-- Node19 -->
<g id="Node000019" class="node">
<title>Node19</title>
<g id="a_Node000019"><a xlink:title=" ">
<polygon fill="#e0e0e0" stroke="#999999" points="610.25,-300 565,-300 565,-280 610.25,-280 610.25,-300"/>
<text xml:space="preserve" text-anchor="middle" x="587.62" y="-286.5" font-family="Helvetica,sans-Serif" font-size="10.00">ranges</text>
</a>
</g>
</g>
<!-- Node1&#45;&gt;Node19 -->
<g id="edge25_Node000001_Node000019" class="edge">
<title>Node1&#45;&gt;Node19</title>
<g id="a_edge25_Node000001_Node000019"><a xlink:title=" ">
<path fill="none" stroke="#63b8ff" d="M561.2,-335.59C565.37,-328.55 571.23,-318.67 576.37,-310"/>
<polygon fill="#63b8ff" stroke="#63b8ff" points="579.26,-311.99 581.34,-301.6 573.23,-308.42 579.26,-311.99"/>
</a>
</g>
</g>
<!-- Node3 -->
<g id="Node000003" class="node">
<title>Node3</title>
<g id="a_Node000003"><a xlink:href="memory_8h.html" target="_top" xlink:title="Buffer circulaire thread&#45;safe pour stockage de samples.">
<polygon fill="white" stroke="#666666" points="197,-244 138.25,-244 138.25,-224 197,-224 197,-244"/>
<text xml:space="preserve" text-anchor="middle" x="167.62" y="-230.5" font-family="Helvetica,sans-Serif" font-size="10.00">memory.h</text>
</a>
</g>
</g>
<!-- Node2&#45;&gt;Node3 -->
<g id="edge2_Node000002_Node000003" class="edge">
<title>Node2&#45;&gt;Node3</title>
<g id="a_edge2_Node000002_Node000003"><a xlink:title=" ">
<path fill="none" stroke="#63b8ff" d="M499.99,-285.42C440.44,-276.38 283.64,-252.6 208.68,-241.23"/>
<polygon fill="#63b8ff" stroke="#63b8ff" points="209.29,-237.78 198.87,-239.74 208.24,-244.7 209.29,-237.78"/>
</a>
</g>
</g>
<!-- Node9 -->
<g id="Node000009" class="node">
<title>Node9</title>
<g id="a_Node000009"><a xlink:href="utils_8h.html" target="_top" xlink:title="Utilitaires mathématiques et helpers pour mopo (interpolation, buffers, conversions).">
<polygon fill="white" stroke="#666666" points="343.75,-188 301.5,-188 301.5,-168 343.75,-168 343.75,-188"/>
<text xml:space="preserve" text-anchor="middle" x="322.62" y="-174.5" font-family="Helvetica,sans-Serif" font-size="10.00">utils.h</text>
</a>
</g>
</g>
<!-- Node2&#45;&gt;Node9 -->
<g id="edge23_Node000002_Node000009" class="edge">
<title>Node2&#45;&gt;Node9</title>
<g id="a_edge23_Node000002_Node000009"><a xlink:title=" ">
<path fill="none" stroke="#63b8ff" d="M506.49,-279.62C471.55,-260.5 391.87,-216.89 349.8,-193.87"/>
<polygon fill="#63b8ff" stroke="#63b8ff" points="351.5,-190.81 341.05,-189.08 348.14,-196.95 351.5,-190.81"/>
</a>
</g>
</g>
<!-- Node11 -->
<g id="Node000011" class="node">
<title>Node11</title>
<g id="a_Node000011"><a xlink:href="processor_8h.html" target="_top" xlink:title="Définition de la classe Processor et des ports d&#39;entrée/sortie.">
<polygon fill="white" stroke="#666666" points="426.12,-76 359.12,-76 359.12,-56 426.12,-56 426.12,-76"/>
<text xml:space="preserve" text-anchor="middle" x="392.62" y="-62.5" font-family="Helvetica,sans-Serif" font-size="10.00">processor.h</text>
</a>
</g>
</g>
<!-- Node2&#45;&gt;Node11 -->
<g id="edge22_Node000002_Node000011" class="edge">
<title>Node2&#45;&gt;Node11</title>
<g id="a_edge22_Node000002_Node000011"><a xlink:title=" ">
<path fill="none" stroke="#63b8ff" d="M527.82,-279.78C540,-251.5 572.12,-164.69 533.62,-112 511.79,-82.12 469.9,-71.62 437.43,-68.15"/>
<polygon fill="#63b8ff" stroke="#63b8ff" points="438.16,-64.7 427.89,-67.32 437.55,-71.67 438.16,-64.7"/>
</a>
</g>
</g>
<!-- Node18 -->
<g id="Node000018" class="node">
<title>Node18</title>
<g id="a_Node000018"><a xlink:title=" ">
<polygon fill="#e0e0e0" stroke="#999999" points="670.25,-244 619,-244 619,-224 670.25,-224 670.25,-244"/>
<text xml:space="preserve" text-anchor="middle" x="644.62" y="-230.5" font-family="Helvetica,sans-Serif" font-size="10.00">memory</text>
</a>
</g>
</g>
<!-- Node2&#45;&gt;Node18 -->
<g id="edge24_Node000002_Node000018" class="edge">
<title>Node2&#45;&gt;Node18</title>
<g id="a_edge24_Node000002_Node000018"><a xlink:title=" ">
<path fill="none" stroke="#63b8ff" d="M544.7,-279.59C563.58,-271.17 591.54,-258.69 613.09,-249.07"/>
<polygon fill="#63b8ff" stroke="#63b8ff" points="614.3,-252.37 622,-245.1 611.44,-245.98 614.3,-252.37"/>
</a>
</g>
</g>
<!-- Node4 -->
<g id="Node000004" class="node">
<title>Node4</title>
<g id="a_Node000004"><a xlink:href="common_8h.html" target="_top" xlink:title="Core definitions and constants for the mopo synthesis library.">
<polygon fill="white" stroke="#666666" points="242.5,-20 180.75,-20 180.75,0 242.5,0 242.5,-20"/>
<text xml:space="preserve" text-anchor="middle" x="211.62" y="-6.5" font-family="Helvetica,sans-Serif" font-size="10.00">common.h</text>
</a>
</g>
</g>
<!-- Node3&#45;&gt;Node4 -->
<g id="edge3_Node000003_Node000004" class="edge">
<title>Node3&#45;&gt;Node4</title>
<g id="a_edge3_Node000003_Node000004"><a xlink:title=" ">
<path fill="none" stroke="#63b8ff" d="M156.48,-223.59C147.57,-215.28 135.74,-202.28 130.62,-188 119.23,-156.2 119.43,-143.87 130.62,-112 142.71,-77.61 171.99,-46.26 191.83,-27.9"/>
<polygon fill="#63b8ff" stroke="#63b8ff" points="193.94,-30.7 199.05,-21.42 189.27,-25.49 193.94,-30.7"/>
</a>
</g>
</g>
<!-- Node5 -->
<g id="Node000005" class="node">
<title>Node5</title>
<g id="a_Node000005"><a xlink:title=" ">
<polygon fill="#e0e0e0" stroke="#999999" points="195.5,-188 139.75,-188 139.75,-168 195.5,-168 195.5,-188"/>
<text xml:space="preserve" text-anchor="middle" x="167.62" y="-174.5" font-family="Helvetica,sans-Serif" font-size="10.00">algorithm</text>
</a>
</g>
</g>
<!-- Node3&#45;&gt;Node5 -->
<g id="edge4_Node000003_Node000005" class="edge">
<title>Node3&#45;&gt;Node5</title>
<g id="a_edge4_Node000003_Node000005"><a xlink:title=" ">
<path fill="none" stroke="#63b8ff" d="M167.62,-223.59C167.62,-217.01 167.62,-207.96 167.62,-199.73"/>
<polygon fill="#63b8ff" stroke="#63b8ff" points="171.13,-199.81 167.63,-189.81 164.13,-199.81 171.13,-199.81"/>
</a>
</g>
</g>
<!-- Node6 -->
<g id="Node000006" class="node">
<title>Node6</title>
<g id="a_Node000006"><a xlink:title=" ">
<polygon fill="#e0e0e0" stroke="#999999" points="45.25,-188 0,-188 0,-168 45.25,-168 45.25,-188"/>
<text xml:space="preserve" text-anchor="middle" x="22.62" y="-174.5" font-family="Helvetica,sans-Serif" font-size="10.00">atomic</text>
</a>
</g>
</g>
<!-- Node3&#45;&gt;Node6 -->
<g id="edge5_Node000003_Node000006" class="edge">
<title>Node3&#45;&gt;Node6</title>
<g id="a_edge5_Node000003_Node000006"><a xlink:title=" ">
<path fill="none" stroke="#63b8ff" d="M142.37,-223.59C118.51,-214.71 82.57,-201.32 56.29,-191.54"/>
<polygon fill="#63b8ff" stroke="#63b8ff" points="57.69,-188.32 47.1,-188.11 55.25,-194.88 57.69,-188.32"/>
</a>
</g>
</g>
<!-- Node7 -->
<g id="Node000007" class="node">
<title>Node7</title>
<g id="a_Node000007"><a xlink:title=" ">
<polygon fill="#e0e0e0" stroke="#999999" points="183.12,-132 140.12,-132 140.12,-112 183.12,-112 183.12,-132"/>
<text xml:space="preserve" text-anchor="middle" x="161.62" y="-118.5" font-family="Helvetica,sans-Serif" font-size="10.00">cmath</text>
</a>
</g>
</g>
<!-- Node3&#45;&gt;Node7 -->
<g id="edge6_Node000003_Node000007" class="edge">
<title>Node3&#45;&gt;Node7</title>
<g id="a_edge6_Node000003_Node000007"><a xlink:title=" ">
<path fill="none" stroke="#63b8ff" d="M179.17,-223.72C192.92,-211.46 213.03,-188.97 204.62,-168 200.25,-157.1 191.84,-147.34 183.61,-139.72"/>
<polygon fill="#63b8ff" stroke="#63b8ff" points="185.98,-137.15 176.1,-133.33 181.44,-142.47 185.98,-137.15"/>
</a>
</g>
</g>
<!-- Node8 -->
<g id="Node000008" class="node">
<title>Node8</title>
<g id="a_Node000008"><a xlink:title=" ">
<polygon fill="#e0e0e0" stroke="#999999" points="129.25,-20 84,-20 84,0 129.25,0 129.25,-20"/>
<text xml:space="preserve" text-anchor="middle" x="106.62" y="-6.5" font-family="Helvetica,sans-Serif" font-size="10.00">cstring</text>
</a>
</g>
</g>
<!-- Node3&#45;&gt;Node8 -->
<g id="edge7_Node000003_Node000008" class="edge">
<title>Node3&#45;&gt;Node8</title>
<g id="a_edge7_Node000003_Node000008"><a xlink:title=" ">
<path fill="none" stroke="#63b8ff" d="M153.41,-223.8C142.38,-215.79 127.79,-203.11 120.62,-188 96.02,-136.14 99.8,-66.08 103.69,-31.73"/>
<polygon fill="#63b8ff" stroke="#63b8ff" points="107.15,-32.29 104.94,-21.93 100.21,-31.41 107.15,-32.29"/>
</a>
</g>
</g>
<!-- Node3&#45;&gt;Node9 -->
<g id="edge8_Node000003_Node000009" class="edge">
<title>Node3&#45;&gt;Node9</title>
<g id="a_edge8_Node000003_Node000009"><a xlink:title=" ">
<path fill="none" stroke="#63b8ff" d="M194.62,-223.59C221.42,-214.26 262.49,-199.95 290.85,-190.07"/>
<polygon fill="#63b8ff" stroke="#63b8ff" points="291.69,-193.48 299.98,-186.89 289.38,-186.87 291.69,-193.48"/>
</a>
</g>
</g>
<!-- Node9&#45;&gt;Node4 -->
<g id="edge9_Node000009_Node000004" class="edge">
<title>Node9&#45;&gt;Node4</title>
<g id="a_edge9_Node000009_Node000004"><a xlink:title=" ">
<path fill="none" stroke="#63b8ff" d="M301.04,-172.52C279.63,-166.89 247.62,-155.03 230.62,-132 208.8,-102.43 207.78,-57.65 209.43,-31.66"/>
<polygon fill="#63b8ff" stroke="#63b8ff" points="212.91,-32.04 210.27,-21.78 205.93,-31.44 212.91,-32.04"/>
</a>
</g>
</g>
<!-- Node9&#45;&gt;Node7 -->
<g id="edge18_Node000009_Node000007" class="edge">
<title>Node9&#45;&gt;Node7</title>
<g id="a_edge18_Node000009_Node000007"><a xlink:title=" ">
<path fill="none" stroke="#63b8ff" d="M301.25,-169.83C273.85,-160.64 226.11,-144.63 194.18,-133.92"/>
<polygon fill="#63b8ff" stroke="#63b8ff" points="195.64,-130.72 185.04,-130.85 193.41,-137.35 195.64,-130.72"/>
</a>
</g>
</g>
<!-- Node10 -->
<g id="Node000010" class="node">
<title>Node10</title>
<g id="a_Node000010"><a xlink:href="value_8h.html" target="_top" xlink:title="Processeurs Value : constantes ou control&#45;rate values.">
<polygon fill="white" stroke="#666666" points="416.38,-132 368.88,-132 368.88,-112 416.38,-112 416.38,-132"/>
<text xml:space="preserve" text-anchor="middle" x="392.62" y="-118.5" font-family="Helvetica,sans-Serif" font-size="10.00">value.h</text>
</a>
</g>
</g>
<!-- Node9&#45;&gt;Node10 -->
<g id="edge10_Node000009_Node000010" class="edge">
<title>Node9&#45;&gt;Node10</title>
<g id="a_edge10_Node000009_Node000010"><a xlink:title=" ">
<path fill="none" stroke="#63b8ff" d="M334.82,-167.59C344.96,-159.77 359.62,-148.46 371.64,-139.19"/>
<polygon fill="#63b8ff" stroke="#63b8ff" points="373.59,-142.1 379.37,-133.22 369.32,-136.56 373.59,-142.1"/>
</a>
</g>
</g>
<!-- Node13 -->
<g id="Node000013" class="node">
<title>Node13</title>
<g id="a_Node000013"><a xlink:title=" ">
<polygon fill="#e0e0e0" stroke="#999999" points="539.88,-20 495.38,-20 495.38,0 539.88,0 539.88,-20"/>
<text xml:space="preserve" text-anchor="middle" x="517.62" y="-6.5" font-family="Helvetica,sans-Serif" font-size="10.00">cstdlib</text>
</a>
</g>
</g>
<!-- Node9&#45;&gt;Node13 -->
<g id="edge20_Node000009_Node000013" class="edge">
<title>Node9&#45;&gt;Node13</title>
<g id="a_edge20_Node000009_Node000013"><a xlink:title=" ">
<path fill="none" stroke="#63b8ff" d="M344.01,-175.74C392.79,-172.37 509.89,-161.34 533.62,-132 557.08,-103.02 540.73,-56.71 528.22,-30.59"/>
<polygon fill="#63b8ff" stroke="#63b8ff" points="531.39,-29.11 523.74,-21.79 525.16,-32.29 531.39,-29.11"/>
</a>
</g>
</g>
<!-- Node15 -->
<g id="Node000015" class="node">
<title>Node15</title>
<g id="a_Node000015"><a xlink:title=" ">
<polygon fill="#e0e0e0" stroke="#999999" points="524.75,-132 434.5,-132 434.5,-112 524.75,-112 524.75,-132"/>
<text xml:space="preserve" text-anchor="middle" x="479.62" y="-118.5" font-family="Helvetica,sans-Serif" font-size="10.00">xsimd/xsimd.hpp</text>
</a>
</g>
</g>
<!-- Node9&#45;&gt;Node15 -->
<g id="edge17_Node000009_Node000015" class="edge">
<title>Node9&#45;&gt;Node15</title>
<g id="a_edge17_Node000009_Node000015"><a xlink:title=" ">
<path fill="none" stroke="#63b8ff" d="M344.13,-169.6C369.11,-161.01 410.8,-146.67 441.35,-136.16"/>
<polygon fill="#63b8ff" stroke="#63b8ff" points="442.3,-139.54 450.62,-132.98 440.03,-132.92 442.3,-139.54"/>
</a>
</g>
</g>
<!-- Node16 -->
<g id="Node000016" class="node">
<title>Node16</title>
<g id="a_Node000016"><a xlink:title=" ">
<polygon fill="#e0e0e0" stroke="#999999" points="277.12,-132 240.12,-132 240.12,-112 277.12,-112 277.12,-132"/>
<text xml:space="preserve" text-anchor="middle" x="258.62" y="-118.5" font-family="Helvetica,sans-Serif" font-size="10.00">span</text>
</a>
</g>
</g>
<!-- Node9&#45;&gt;Node16 -->
<g id="edge19_Node000009_Node000016" class="edge">
<title>Node9&#45;&gt;Node16</title>
<g id="a_edge19_Node000009_Node000016"><a xlink:title=" ">
<path fill="none" stroke="#63b8ff" d="M311.48,-167.59C302.3,-159.85 289.07,-148.69 278.14,-139.47"/>
<polygon fill="#63b8ff" stroke="#63b8ff" points="280.7,-137.05 270.8,-133.27 276.19,-142.4 280.7,-137.05"/>
</a>
</g>
</g>
<!-- Node17 -->
<g id="Node000017" class="node">
<title>Node17</title>
<g id="a_Node000017"><a xlink:title=" ">
<polygon fill="#e0e0e0" stroke="#999999" points="350.5,-132 294.75,-132 294.75,-112 350.5,-112 350.5,-132"/>
<text xml:space="preserve" text-anchor="middle" x="322.62" y="-118.5" font-family="Helvetica,sans-Serif" font-size="10.00">concepts</text>
</a>
</g>
</g>
<!-- Node9&#45;&gt;Node17 -->
<g id="edge21_Node000009_Node000017" class="edge">
<title>Node9&#45;&gt;Node17</title>
<g id="a_edge21_Node000009_Node000017"><a xlink:title=" ">
<path fill="none" stroke="#63b8ff" d="M322.62,-167.59C322.62,-161.01 322.62,-151.96 322.62,-143.73"/>
<polygon fill="#63b8ff" stroke="#63b8ff" points="326.13,-143.81 322.63,-133.81 319.13,-143.81 326.13,-143.81"/>
</a>
</g>
</g>
<!-- Node10&#45;&gt;Node11 -->
<g id="edge11_Node000010_Node000011" class="edge">
<title>Node10&#45;&gt;Node11</title>
<g id="a_edge11_Node000010_Node000011"><a xlink:title=" ">
<path fill="none" stroke="#63b8ff" d="M392.62,-111.59C392.62,-105.01 392.62,-95.96 392.62,-87.73"/>
<polygon fill="#63b8ff" stroke="#63b8ff" points="396.13,-87.81 392.63,-77.81 389.13,-87.81 396.13,-87.81"/>
</a>
</g>
</g>
<!-- Node11&#45;&gt;Node4 -->
<g id="edge12_Node000011_Node000004" class="edge">
<title>Node11&#45;&gt;Node4</title>
<g id="a_edge12_Node000011_Node000004"><a xlink:title=" ">
<path fill="none" stroke="#63b8ff" d="M361.1,-55.59C331.25,-46.69 286.24,-33.26 253.42,-23.47"/>
<polygon fill="#63b8ff" stroke="#63b8ff" points="254.83,-20.24 244.24,-20.73 252.82,-26.94 254.83,-20.24"/>
</a>
</g>
</g>
<!-- Node11&#45;&gt;Node8 -->
<g id="edge13_Node000011_Node000008" class="edge">
<title>Node11&#45;&gt;Node8</title>
<g id="a_edge13_Node000011_Node000008"><a xlink:title=" ">
<path fill="none" stroke="#63b8ff" d="M358.69,-58.59C303.69,-48.21 195.69,-27.82 140.63,-17.42"/>
<polygon fill="#63b8ff" stroke="#63b8ff" points="141.38,-14 130.9,-15.58 140.08,-20.88 141.38,-14"/>
</a>
</g>
</g>
<!-- Node12 -->
<g id="Node000012" class="node">
<title>Node12</title>
<g id="a_Node000012"><a xlink:title=" ">
<polygon fill="#e0e0e0" stroke="#999999" points="442.12,-20 399.12,-20 399.12,0 442.12,0 442.12,-20"/>
<text xml:space="preserve" text-anchor="middle" x="420.62" y="-6.5" font-family="Helvetica,sans-Serif" font-size="10.00">vector</text>
</a>
</g>
</g>
<!-- Node11&#45;&gt;Node12 -->
<g id="edge14_Node000011_Node000012" class="edge">
<title>Node11&#45;&gt;Node12</title>
<g id="a_edge14_Node000011_Node000012"><a xlink:title=" ">
<path fill="none" stroke="#63b8ff" d="M397.5,-55.59C401.12,-48.63 406.17,-38.89 410.62,-30.29"/>
<polygon fill="#63b8ff" stroke="#63b8ff" points="413.61,-32.13 415.11,-21.64 407.4,-28.91 413.61,-32.13"/>
</a>
</g>
</g>
<!-- Node11&#45;&gt;Node13 -->
<g id="edge15_Node000011_Node000013" class="edge">
<title>Node11&#45;&gt;Node13</title>
<g id="a_edge15_Node000011_Node000013"><a xlink:title=" ">
<path fill="none" stroke="#63b8ff" d="M414.4,-55.59C433.99,-47.13 463.05,-34.58 485.35,-24.94"/>
<polygon fill="#63b8ff" stroke="#63b8ff" points="486.5,-28.26 494.29,-21.08 483.72,-21.83 486.5,-28.26"/>
</a>
</g>
</g>
<!-- Node14 -->
<g id="Node000014" class="node">
<title>Node14</title>
<g id="a_Node000014"><a xlink:title=" ">
<polygon fill="#e0e0e0" stroke="#999999" points="380.62,-20 346.62,-20 346.62,0 380.62,0 380.62,-20"/>
<text xml:space="preserve" text-anchor="middle" x="363.62" y="-6.5" font-family="Helvetica,sans-Serif" font-size="10.00">new</text>
</a>
</g>
</g>
<!-- Node11&#45;&gt;Node14 -->
<g id="edge16_Node000011_Node000014" class="edge">
<title>Node11&#45;&gt;Node14</title>
<g id="a_edge16_Node000011_Node000014"><a xlink:title=" ">
<path fill="none" stroke="#63b8ff" d="M387.57,-55.59C383.83,-48.63 378.6,-38.89 373.98,-30.29"/>
<polygon fill="#63b8ff" stroke="#63b8ff" points="377.15,-28.79 369.33,-21.63 370.98,-32.1 377.15,-28.79"/>
</a>
</g>
</g>
</g>
</svg>

<g id="navigator" transform="translate(0 0)" fill="#404254">
  <rect fill="#f2f5e9" fill-opacity="0.5" stroke="#606060" stroke-width=".5" x="0" y="0" width="60" height="60"/>
  <use id="zoomplus" xlink:href="#zoomPlus" x="17" y="9" data-zoom="in"/>
  <use id="zoomminus" xlink:href="#zoomMin" x="42" y="9" data-zoom="out"/>
  <use id="reset" xlink:href="#resetDef" x="30" y="36" data-reset="true"/>
  <use id="arrowup" xlink:href="#arrowUp" x="0" y="0" data-pan-x="0" data-pan-y="-1"/>
  <use id="arrowright" xlink:href="#arrowRight" x="0" y="0" data-pan-x="1" data-pan-y="0"/>
  <use id="arrowdown" xlink:href="#arrowDown" x="0" y="0" data-pan-x="0" data-pan-y="1"/>
  <use id="arrowleft" xlink:href="#arrowLeft" x="0" y="0" data-pan-x="-1" data-pan-y="0"/>
</g>
<svg viewBox="0 0 15 15" width="100%" height="30px" preserveAspectRatio="xMaxYMin meet">
 <g id="arrow_out" transform="scale(0.3 0.3)">
  <a xlink:href="delay_8cpp__incl_org.svg" target="_base">
   <rect id="button" ry="5" rx="5" y="6" x="6" height="38" width="38"
        fill="#f2f5e9" fill-opacity="0.5" stroke="#606060" stroke-width="1.0"/>
   <path id="arrow"
     d="M 11.500037,31.436501 C 11.940474,20.09759 22.043105,11.32322 32.158766,21.979434 L 37.068811,17.246167 C 37.068811,17.246167 37.088388,32 37.088388,32 L 22.160133,31.978069 C 22.160133,31.978069 26.997745,27.140456 26.997745,27.140456 C 18.528582,18.264221 13.291696,25.230495 11.500037,31.436501 z"
     style="fill:#404040;"/>
  </a>
 </g>
</svg>

<style type='text/css'>
<![CDATA[
[data-mouse-over-selected='false'] { opacity: 0.7; }
[data-mouse-over-selected='true']  { opacity: 1.0; }
]]>
</style>
</svg>
