<?xml version="1.0" encoding="UTF-8" standalone="no"?>
<!DOCTYPE svg PUBLIC "-//W3C//DTD SVG 1.1//EN"
 "http://www.w3.org/Graphics/SVG/1.1/DTD/svg11.dtd">
<!-- Generated by graphviz version 16.1.0 (20260904.0139)
 -->
<!-- Title: src/look_and_feel/fonts.h Pages: 1 -->
<svg width="4727pt" height="96pt"
 viewBox="0.00 0.00 4727.00 96.00" xmlns="http://www.w3.org/2000/svg" xmlns:xlink="http://www.w3.org/1999/xlink">
<g id="graph0" class="graph" transform="scale(1 1) rotate(0) translate(4 92)">
<title>src/look_and_feel/fonts.h</title>
<!-- Node1 -->
<g id="Node000001" class="node">
<title>Node1</title>
<g id="a_Node000001"><a xlink:title=" ">
<polygon fill="#999999" stroke="#666666" points="2386.62,-88 2261.12,-88 2261.12,-68 2386.62,-68 2386.62,-88"/>
<text xml:space="preserve" text-anchor="middle" x="2323.88" y="-74.5" font-family="Helvetica,sans-Serif" font-size="10.00">src/look_and_feel/fonts.h</text>
</a>
</g>
</g>
<!-- Node2 -->
<g id="Node000002" class="node">
<title>Node2</title>
<g id="a_Node000002"><a xlink:href="file__list__box__model_8cpp.html" target="_top" xlink:title=" ">
<polygon fill="white" stroke="#666666" points="103.75,-32 0,-32 0,0 103.75,0 103.75,-32"/>
<text xml:space="preserve" text-anchor="start" x="8" y="-18.5" font-family="Helvetica,sans-Serif" font-size="10.00">src/common/file_list</text>
<text xml:space="preserve" text-anchor="middle" x="51.88" y="-6.5" font-family="Helvetica,sans-Serif" font-size="10.00">_box_model.cpp</text>
</a>
</g>
</g>
<!-- Node1&#45;&gt;Node2 -->
<g id="edge1_Node000001_Node000002" class="edge">
<title>Node1&#45;&gt;Node2</title>
<g id="a_edge1_Node000001_Node000002"><a xlink:title=" ">
<path fill="none" stroke="#63b8ff" d="M2249.54,-76.48C1888.57,-73.82 327.15,-60.73 111.88,-32 109.32,-31.66 106.72,-31.25 104.1,-30.79"/>
<polygon fill="#63b8ff" stroke="#63b8ff" points="2249.33,-79.98 2259.35,-76.55 2249.38,-72.98 2249.33,-79.98"/>
</a>
</g>
</g>
<!-- Node3 -->
<g id="Node000003" class="node">
<title>Node3</title>
<g id="a_Node000003"><a xlink:href="global__tool__tip_8cpp.html" target="_top" xlink:title=" ">
<polygon fill="white" stroke="#666666" points="236.38,-32 121.38,-32 121.38,0 236.38,0 236.38,-32"/>
<text xml:space="preserve" text-anchor="start" x="129.38" y="-18.5" font-family="Helvetica,sans-Serif" font-size="10.00">src/editor_components</text>
<text xml:space="preserve" text-anchor="middle" x="178.88" y="-6.5" font-family="Helvetica,sans-Serif" font-size="10.00">/global_tool_tip.cpp</text>
</a>
</g>
</g>
<!-- Node1&#45;&gt;Node3 -->
<g id="edge2_Node000001_Node000003" class="edge">
<title>Node1&#45;&gt;Node3</title>
<g id="a_edge2_Node000001_Node000003"><a xlink:title=" ">
<path fill="none" stroke="#63b8ff" d="M2249.78,-77.4C1927.34,-78.83 644.69,-81.25 244.88,-32 242.19,-31.67 239.46,-31.28 236.71,-30.84"/>
<polygon fill="#63b8ff" stroke="#63b8ff" points="2249.35,-80.9 2259.33,-77.36 2249.31,-73.9 2249.35,-80.9"/>
</a>
</g>
</g>
<!-- Node4 -->
<g id="Node000004" class="node">
<title>Node4</title>
<g id="a_Node000004"><a xlink:href="patch__selector_8cpp.html" target="_top" xlink:title=" ">
<polygon fill="white" stroke="#666666" points="369.38,-32 254.38,-32 254.38,0 369.38,0 369.38,-32"/>
<text xml:space="preserve" text-anchor="start" x="262.38" y="-18.5" font-family="Helvetica,sans-Serif" font-size="10.00">src/editor_components</text>
<text xml:space="preserve" text-anchor="middle" x="311.88" y="-6.5" font-family="Helvetica,sans-Serif" font-size="10.00">/patch_selector.cpp</text>
</a>
</g>
</g>
<!-- Node1&#45;&gt;Node4 -->
<g id="edge3_Node000001_Node000004" class="edge">
<title>Node1&#45;&gt;Node4</title>
<g id="a_edge3_Node000001_Node000004"><a xlink:title=" ">
<path fill="none" stroke="#63b8ff" d="M2249.74,-77.27C1940.25,-78.09 750.15,-78.13 377.88,-32 375.19,-31.67 372.46,-31.27 369.71,-30.83"/>
<polygon fill="#63b8ff" stroke="#63b8ff" points="2249.31,-80.77 2259.3,-77.24 2249.29,-73.77 2249.31,-80.77"/>
</a>
</g>
</g>
<!-- Node5 -->
<g id="Node000005" class="node">
<title>Node5</title>
<g id="a_Node000005"><a xlink:href="retrigger__selector_8cpp.html" target="_top" xlink:title=" ">
<polygon fill="white" stroke="#666666" points="502.38,-32 387.38,-32 387.38,0 502.38,0 502.38,-32"/>
<text xml:space="preserve" text-anchor="start" x="395.38" y="-18.5" font-family="Helvetica,sans-Serif" font-size="10.00">src/editor_components</text>
<text xml:space="preserve" text-anchor="middle" x="444.88" y="-6.5" font-family="Helvetica,sans-Serif" font-size="10.00">/retrigger_selector.cpp</text>
</a>
</g>
</g>
<!-- Node1&#45;&gt;Node5 -->
<g id="edge4_Node000001_Node000005" class="edge">
<title>Node1&#45;&gt;Node5</title>
<g id="a_edge4_Node000001_Node000005"><a xlink:title=" ">
<path fill="none" stroke="#63b8ff" d="M2249.54,-77.12C1953.21,-77.31 855.61,-75.02 510.88,-32 508.19,-31.67 505.46,-31.27 502.71,-30.83"/>
<polygon fill="#63b8ff" stroke="#63b8ff" points="2249.47,-80.62 2259.47,-77.12 2249.47,-73.62 2249.47,-80.62"/>
</a>
</g>
</g>
<!-- Node6 -->
<g id="Node000006" class="node">
<title>Node6</title>
<g id="a_Node000006"><a xlink:href="text__selector_8cpp.html" target="_top" xlink:title=" ">
<polygon fill="white" stroke="#666666" points="635.38,-32 520.38,-32 520.38,0 635.38,0 635.38,-32"/>
<text xml:space="preserve" text-anchor="start" x="528.38" y="-18.5" font-family="Helvetica,sans-Serif" font-size="10.00">src/editor_components</text>
<text xml:space="preserve" text-anchor="middle" x="577.88" y="-6.5" font-family="Helvetica,sans-Serif" font-size="10.00">/text_selector.cpp</text>
</a>
</g>
</g>
<!-- Node1&#45;&gt;Node6 -->
<g id="edge5_Node000001_Node000006" class="edge">
<title>Node1&#45;&gt;Node6</title>
<g id="a_edge5_Node000001_Node000006"><a xlink:title=" ">
<path fill="none" stroke="#63b8ff" d="M2249.42,-76.95C1966.91,-76.47 961.17,-71.91 643.88,-32 641.19,-31.66 638.46,-31.26 635.71,-30.82"/>
<polygon fill="#63b8ff" stroke="#63b8ff" points="2249.23,-80.45 2259.24,-76.97 2249.24,-73.45 2249.23,-80.45"/>
</a>
</g>
</g>
<!-- Node7 -->
<g id="Node000007" class="node">
<title>Node7</title>
<g id="a_Node000007"><a xlink:href="text__slider_8cpp.html" target="_top" xlink:title=" ">
<polygon fill="white" stroke="#666666" points="768.38,-32 653.38,-32 653.38,0 768.38,0 768.38,-32"/>
<text xml:space="preserve" text-anchor="start" x="661.38" y="-18.5" font-family="Helvetica,sans-Serif" font-size="10.00">src/editor_components</text>
<text xml:space="preserve" text-anchor="middle" x="710.88" y="-6.5" font-family="Helvetica,sans-Serif" font-size="10.00">/text_slider.cpp</text>
</a>
</g>
</g>
<!-- Node1&#45;&gt;Node7 -->
<g id="edge6_Node000001_Node000007" class="edge">
<title>Node1&#45;&gt;Node7</title>
<g id="a_edge6_Node000001_Node000007"><a xlink:title=" ">
<path fill="none" stroke="#63b8ff" d="M2249.61,-76.72C1982.03,-75.41 1067.79,-68.33 777.88,-32 774.92,-31.63 771.9,-31.19 768.86,-30.69"/>
<polygon fill="#63b8ff" stroke="#63b8ff" points="2249.21,-80.22 2259.22,-76.76 2249.24,-73.22 2249.21,-80.22"/>
</a>
</g>
</g>
<!-- Node8 -->
<g id="Node000008" class="node">
<title>Node8</title>
<g id="a_Node000008"><a xlink:href="about__section_8cpp.html" target="_top" xlink:title="Implementation of the AboutSection overlay UI.">
<polygon fill="white" stroke="#666666" points="885.12,-32 786.62,-32 786.62,0 885.12,0 885.12,-32"/>
<text xml:space="preserve" text-anchor="start" x="794.62" y="-18.5" font-family="Helvetica,sans-Serif" font-size="10.00">src/editor_sections</text>
<text xml:space="preserve" text-anchor="middle" x="835.88" y="-6.5" font-family="Helvetica,sans-Serif" font-size="10.00">/about_section.cpp</text>
</a>
</g>
</g>
<!-- Node1&#45;&gt;Node8 -->
<g id="edge7_Node000001_Node000008" class="edge">
<title>Node1&#45;&gt;Node8</title>
<g id="a_edge7_Node000001_Node000008"><a xlink:title=" ">
<path fill="none" stroke="#63b8ff" d="M2249.31,-76.79C1994.62,-75.74 1160.23,-69.45 894.88,-32 891.84,-31.57 888.74,-31.05 885.62,-30.46"/>
<polygon fill="#63b8ff" stroke="#63b8ff" points="2249.11,-80.29 2259.13,-76.83 2249.14,-73.29 2249.11,-80.29"/>
</a>
</g>
</g>
<!-- Node9 -->
<g id="Node000009" class="node">
<title>Node9</title>
<g id="a_Node000009"><a xlink:href="arp__section_8cpp.html" target="_top" xlink:title="Implementation of the ArpSection UI for the arpeggiator.">
<polygon fill="white" stroke="#666666" points="1002.12,-32 903.62,-32 903.62,0 1002.12,0 1002.12,-32"/>
<text xml:space="preserve" text-anchor="start" x="911.62" y="-18.5" font-family="Helvetica,sans-Serif" font-size="10.00">src/editor_sections</text>
<text xml:space="preserve" text-anchor="middle" x="952.88" y="-6.5" font-family="Helvetica,sans-Serif" font-size="10.00">/arp_section.cpp</text>
</a>
</g>
</g>
<!-- Node1&#45;&gt;Node9 -->
<g id="edge8_Node000001_Node000009" class="edge">
<title>Node1&#45;&gt;Node9</title>
<g id="a_edge8_Node000001_Node000009"><a xlink:title=" ">
<path fill="none" stroke="#63b8ff" d="M2249.41,-76.55C2008.74,-74.75 1253.43,-66.44 1011.88,-32 1008.84,-31.57 1005.74,-31.04 1002.62,-30.45"/>
<polygon fill="#63b8ff" stroke="#63b8ff" points="2249.28,-80.05 2259.31,-76.62 2249.33,-73.05 2249.28,-80.05"/>
</a>
</g>
</g>
<!-- Node10 -->
<g id="Node000010" class="node">
<title>Node10</title>
<g id="a_Node000010"><a xlink:href="bpm__section_8cpp.html" target="_top" xlink:title="UI implementation for the BPM control section.">
<polygon fill="white" stroke="#666666" points="1119.12,-32 1020.62,-32 1020.62,0 1119.12,0 1119.12,-32"/>
<text xml:space="preserve" text-anchor="start" x="1028.62" y="-18.5" font-family="Helvetica,sans-Serif" font-size="10.00">src/editor_sections</text>
<text xml:space="preserve" text-anchor="middle" x="1069.88" y="-6.5" font-family="Helvetica,sans-Serif" font-size="10.00">/bpm_section.cpp</text>
</a>
</g>
</g>
<!-- Node1&#45;&gt;Node10 -->
<g id="edge9_Node000001_Node000010" class="edge">
<title>Node1&#45;&gt;Node10</title>
<g id="a_edge9_Node000001_Node000010"><a xlink:title=" ">
<path fill="none" stroke="#63b8ff" d="M2249.54,-76.3C2023.4,-73.83 1345.87,-63.91 1127.88,-32 1125.1,-31.59 1122.26,-31.11 1119.41,-30.56"/>
<polygon fill="#63b8ff" stroke="#63b8ff" points="2249.37,-79.8 2259.41,-76.4 2249.45,-72.8 2249.37,-79.8"/>
</a>
</g>
</g>
<!-- Node11 -->
<g id="Node000011" class="node">
<title>Node11</title>
<g id="a_Node000011"><a xlink:href="chorus__section_8cpp.html" target="_top" xlink:title=" ">
<polygon fill="white" stroke="#666666" points="1240.75,-32 1137,-32 1137,0 1240.75,0 1240.75,-32"/>
<text xml:space="preserve" text-anchor="start" x="1145" y="-18.5" font-family="Helvetica,sans-Serif" font-size="10.00">src/editor_sections</text>
<text xml:space="preserve" text-anchor="middle" x="1188.88" y="-6.5" font-family="Helvetica,sans-Serif" font-size="10.00">/chorus_section.cpp</text>
</a>
</g>
</g>
<!-- Node1&#45;&gt;Node11 -->
<g id="edge10_Node000001_Node000011" class="edge">
<title>Node1&#45;&gt;Node11</title>
<g id="a_edge10_Node000001_Node000011"><a xlink:title=" ">
<path fill="none" stroke="#63b8ff" d="M2249.66,-75.82C2039.57,-72.15 1443.43,-59.57 1249.88,-32 1246.96,-31.58 1243.98,-31.09 1240.98,-30.54"/>
<polygon fill="#63b8ff" stroke="#63b8ff" points="2249.29,-79.31 2259.35,-75.98 2249.41,-72.31 2249.29,-79.31"/>
</a>
</g>
</g>
<!-- Node12 -->
<g id="Node000012" class="node">
<title>Node12</title>
<g id="a_Node000012"><a xlink:href="delay__section_8cpp.html" target="_top" xlink:title="Implementation of the DelaySection UI.">
<polygon fill="white" stroke="#666666" points="1357.12,-32 1258.62,-32 1258.62,0 1357.12,0 1357.12,-32"/>
<text xml:space="preserve" text-anchor="start" x="1266.62" y="-18.5" font-family="Helvetica,sans-Serif" font-size="10.00">src/editor_sections</text>
<text xml:space="preserve" text-anchor="middle" x="1307.88" y="-6.5" font-family="Helvetica,sans-Serif" font-size="10.00">/delay_section.cpp</text>
</a>
</g>
</g>
<!-- Node1&#45;&gt;Node12 -->
<g id="edge11_Node000001_Node000012" class="edge">
<title>Node1&#45;&gt;Node12</title>
<g id="a_edge11_Node000001_Node000012"><a xlink:title=" ">
<path fill="none" stroke="#63b8ff" d="M2249.16,-75.44C2054.79,-71.06 1536.66,-57.31 1366.88,-32 1363.84,-31.55 1360.74,-31.01 1357.62,-30.4"/>
<polygon fill="#63b8ff" stroke="#63b8ff" points="2249.08,-78.94 2259.15,-75.66 2249.23,-71.94 2249.08,-78.94"/>
</a>
</g>
</g>
<!-- Node13 -->
<g id="Node000013" class="node">
<title>Node13</title>
<g id="a_Node000013"><a xlink:href="delete__section_8cpp.html" target="_top" xlink:title="Implementation of the DeleteSection overlay.">
<polygon fill="white" stroke="#666666" points="1476.25,-32 1375.5,-32 1375.5,0 1476.25,0 1476.25,-32"/>
<text xml:space="preserve" text-anchor="start" x="1383.5" y="-18.5" font-family="Helvetica,sans-Serif" font-size="10.00">src/editor_sections</text>
<text xml:space="preserve" text-anchor="middle" x="1425.88" y="-6.5" font-family="Helvetica,sans-Serif" font-size="10.00">/delete_section.cpp</text>
</a>
</g>
</g>
<!-- Node1&#45;&gt;Node13 -->
<g id="edge12_Node000001_Node000013" class="edge">
<title>Node1&#45;&gt;Node13</title>
<g id="a_edge12_Node000001_Node000013"><a xlink:title=" ">
<path fill="none" stroke="#63b8ff" d="M2249.56,-77.76C2102.75,-78.21 1765.48,-74.06 1485.88,-32 1482.8,-31.54 1479.64,-30.99 1476.48,-30.37"/>
<polygon fill="#63b8ff" stroke="#63b8ff" points="2249.15,-81.26 2259.13,-77.72 2249.12,-74.26 2249.15,-81.26"/>
</a>
</g>
</g>
<!-- Node14 -->
<g id="Node000014" class="node">
<title>Node14</title>
<g id="a_Node000014"><a xlink:href="distortion__section_8cpp.html" target="_top" xlink:title="Implementation of DistortionSection UI.">
<polygon fill="white" stroke="#666666" points="1609,-32 1494.75,-32 1494.75,0 1609,0 1609,-32"/>
<text xml:space="preserve" text-anchor="start" x="1502.75" y="-18.5" font-family="Helvetica,sans-Serif" font-size="10.00">src/editor_sections</text>
<text xml:space="preserve" text-anchor="middle" x="1551.88" y="-6.5" font-family="Helvetica,sans-Serif" font-size="10.00">/distortion_section.cpp</text>
</a>
</g>
</g>
<!-- Node1&#45;&gt;Node14 -->
<g id="edge13_Node000001_Node000014" class="edge">
<title>Node1&#45;&gt;Node14</title>
<g id="a_edge13_Node000001_Node000014"><a xlink:title=" ">
<path fill="none" stroke="#63b8ff" d="M2249.42,-76.16C2120.24,-73.83 1846.49,-65.05 1617.88,-32 1615.08,-31.6 1612.24,-31.14 1609.37,-30.64"/>
<polygon fill="#63b8ff" stroke="#63b8ff" points="2249.15,-79.65 2259.21,-76.32 2249.27,-72.65 2249.15,-79.65"/>
</a>
</g>
</g>
<!-- Node15 -->
<g id="Node000015" class="node">
<title>Node15</title>
<g id="a_Node000015"><a xlink:href="dynamic__section_8cpp.html" target="_top" xlink:title="Implementation of dynamics section UI (portamento, legato).">
<polygon fill="white" stroke="#666666" points="1738.5,-32 1627.25,-32 1627.25,0 1738.5,0 1738.5,-32"/>
<text xml:space="preserve" text-anchor="start" x="1635.25" y="-18.5" font-family="Helvetica,sans-Serif" font-size="10.00">src/editor_sections</text>
<text xml:space="preserve" text-anchor="middle" x="1682.88" y="-6.5" font-family="Helvetica,sans-Serif" font-size="10.00">/dynamic_section.cpp</text>
</a>
</g>
</g>
<!-- Node1&#45;&gt;Node15 -->
<g id="edge14_Node000001_Node000015" class="edge">
<title>Node1&#45;&gt;Node15</title>
<g id="a_edge14_Node000001_Node000015"><a xlink:title=" ">
<path fill="none" stroke="#63b8ff" d="M2249.44,-74.82C2139.12,-70.77 1925.96,-59.8 1746.88,-32 1744.28,-31.6 1741.64,-31.15 1738.97,-30.66"/>
<polygon fill="#63b8ff" stroke="#63b8ff" points="2249.13,-78.31 2259.24,-75.17 2249.38,-71.31 2249.13,-78.31"/>
</a>
</g>
</g>
<!-- Node16 -->
<g id="Node000016" class="node">
<title>Node16</title>
<g id="a_Node000016"><a xlink:href="envelope__section_8cpp.html" target="_top" xlink:title="Implementation of EnvelopeSection UI (ADSR + visualization).">
<polygon fill="white" stroke="#666666" points="1869.62,-32 1756.12,-32 1756.12,0 1869.62,0 1869.62,-32"/>
<text xml:space="preserve" text-anchor="start" x="1764.12" y="-18.5" font-family="Helvetica,sans-Serif" font-size="10.00">src/editor_sections</text>
<text xml:space="preserve" text-anchor="middle" x="1812.88" y="-6.5" font-family="Helvetica,sans-Serif" font-size="10.00">/envelope_section.cpp</text>
</a>
</g>
</g>
<!-- Node1&#45;&gt;Node16 -->
<g id="edge15_Node000001_Node000016" class="edge">
<title>Node1&#45;&gt;Node16</title>
<g id="a_edge15_Node000001_Node000016"><a xlink:title=" ">
<path fill="none" stroke="#63b8ff" d="M2249.63,-72.29C2160.99,-66.02 2008.45,-53.19 1878.88,-32 1875.98,-31.53 1873.01,-31 1870.03,-30.44"/>
<polygon fill="#63b8ff" stroke="#63b8ff" points="2249.19,-75.77 2259.41,-72.97 2249.67,-68.78 2249.19,-75.77"/>
</a>
</g>
</g>
<!-- Node17 -->
<g id="Node000017" class="node">
<title>Node17</title>
<g id="a_Node000017"><a xlink:href="extra__mod__section_8cpp.html" target="_top" xlink:title="Implementation of the ExtraModSection UI.">
<polygon fill="white" stroke="#666666" points="2008,-32 1887.75,-32 1887.75,0 2008,0 2008,-32"/>
<text xml:space="preserve" text-anchor="start" x="1895.75" y="-18.5" font-family="Helvetica,sans-Serif" font-size="10.00">src/editor_sections</text>
<text xml:space="preserve" text-anchor="middle" x="1947.88" y="-6.5" font-family="Helvetica,sans-Serif" font-size="10.00">/extra_mod_section.cpp</text>
</a>
</g>
</g>
<!-- Node1&#45;&gt;Node17 -->
<g id="edge16_Node000001_Node000017" class="edge">
<title>Node1&#45;&gt;Node17</title>
<g id="a_edge16_Node000001_Node000017"><a xlink:title=" ">
<path fill="none" stroke="#63b8ff" d="M2249.47,-67.55C2187.15,-59.28 2095.96,-46.37 2016.88,-32 2014.1,-31.5 2011.27,-30.96 2008.41,-30.41"/>
<polygon fill="#63b8ff" stroke="#63b8ff" points="2248.88,-71 2259.26,-68.84 2249.8,-64.06 2248.88,-71"/>
</a>
</g>
</g>
<!-- Node18 -->
<g id="Node000018" class="node">
<title>Node18</title>
<g id="a_Node000018"><a xlink:href="feedback__section_8cpp.html" target="_top" xlink:title="Implementation of the FeedbackSection UI.">
<polygon fill="white" stroke="#666666" points="2140,-32 2025.75,-32 2025.75,0 2140,0 2140,-32"/>
<text xml:space="preserve" text-anchor="start" x="2033.75" y="-18.5" font-family="Helvetica,sans-Serif" font-size="10.00">src/editor_sections</text>
<text xml:space="preserve" text-anchor="middle" x="2082.88" y="-6.5" font-family="Helvetica,sans-Serif" font-size="10.00">/feedback_section.cpp</text>
</a>
</g>
</g>
<!-- Node1&#45;&gt;Node18 -->
<g id="edge17_Node000001_Node000018" class="edge">
<title>Node1&#45;&gt;Node18</title>
<g id="a_edge17_Node000001_Node000018"><a xlink:title=" ">
<path fill="none" stroke="#63b8ff" d="M2274.9,-64.81C2235.94,-55.11 2181.34,-41.51 2140.32,-31.3"/>
<polygon fill="#63b8ff" stroke="#63b8ff" points="2273.94,-68.17 2284.48,-67.19 2275.63,-61.38 2273.94,-68.17"/>
</a>
</g>
</g>
<!-- Node19 -->
<g id="Node000019" class="node">
<title>Node19</title>
<g id="a_Node000019"><a xlink:href="filter__section_8cpp.html" target="_top" xlink:title="Implementation of the filter UI section.">
<polygon fill="white" stroke="#666666" points="2256.12,-32 2157.62,-32 2157.62,0 2256.12,0 2256.12,-32"/>
<text xml:space="preserve" text-anchor="start" x="2165.62" y="-18.5" font-family="Helvetica,sans-Serif" font-size="10.00">src/editor_sections</text>
<text xml:space="preserve" text-anchor="middle" x="2206.88" y="-6.5" font-family="Helvetica,sans-Serif" font-size="10.00">/filter_section.cpp</text>
</a>
</g>
</g>
<!-- Node1&#45;&gt;Node19 -->
<g id="edge18_Node000001_Node000019" class="edge">
<title>Node1&#45;&gt;Node19</title>
<g id="a_edge18_Node000001_Node000019"><a xlink:title=" ">
<path fill="none" stroke="#63b8ff" d="M2295.54,-62.47C2277.78,-53.36 2254.92,-41.64 2236.85,-32.37"/>
<polygon fill="#63b8ff" stroke="#63b8ff" points="2293.75,-65.49 2304.25,-66.93 2296.95,-59.26 2293.75,-65.49"/>
</a>
</g>
</g>
<!-- Node20 -->
<g id="Node000020" class="node">
<title>Node20</title>
<g id="a_Node000020"><a xlink:href="full__interface_8cpp.html" target="_top" xlink:title="Implementation of the top&#45;level FullInterface UI component.">
<polygon fill="white" stroke="#666666" points="2373.12,-32 2274.62,-32 2274.62,0 2373.12,0 2373.12,-32"/>
<text xml:space="preserve" text-anchor="start" x="2282.62" y="-18.5" font-family="Helvetica,sans-Serif" font-size="10.00">src/editor_sections</text>
<text xml:space="preserve" text-anchor="middle" x="2323.88" y="-6.5" font-family="Helvetica,sans-Serif" font-size="10.00">/full_interface.cpp</text>
</a>
</g>
</g>
<!-- Node1&#45;&gt;Node20 -->
<g id="edge19_Node000001_Node000020" class="edge">
<title>Node1&#45;&gt;Node20</title>
<g id="a_edge19_Node000001_Node000020"><a xlink:title=" ">
<path fill="none" stroke="#63b8ff" d="M2323.88,-56.31C2323.88,-48.37 2323.88,-39.46 2323.88,-32.14"/>
<polygon fill="#63b8ff" stroke="#63b8ff" points="2320.38,-56.11 2323.88,-66.11 2327.38,-56.11 2320.38,-56.11"/>
</a>
</g>
</g>
<!-- Node21 -->
<g id="Node000021" class="node">
<title>Node21</title>
<g id="a_Node000021"><a xlink:href="lfo__section_8cpp.html" target="_top" xlink:title="Implementation of the LfoSection UI.">
<polygon fill="white" stroke="#666666" points="2490.12,-32 2391.62,-32 2391.62,0 2490.12,0 2490.12,-32"/>
<text xml:space="preserve" text-anchor="start" x="2399.62" y="-18.5" font-family="Helvetica,sans-Serif" font-size="10.00">src/editor_sections</text>
<text xml:space="preserve" text-anchor="middle" x="2440.88" y="-6.5" font-family="Helvetica,sans-Serif" font-size="10.00">/lfo_section.cpp</text>
</a>
</g>
</g>
<!-- Node1&#45;&gt;Node21 -->
<g id="edge20_Node000001_Node000021" class="edge">
<title>Node1&#45;&gt;Node21</title>
<g id="a_edge20_Node000001_Node000021"><a xlink:title=" ">
<path fill="none" stroke="#63b8ff" d="M2352.21,-62.47C2369.97,-53.36 2392.83,-41.64 2410.9,-32.37"/>
<polygon fill="#63b8ff" stroke="#63b8ff" points="2350.8,-59.26 2343.5,-66.93 2354,-65.49 2350.8,-59.26"/>
</a>
</g>
</g>
<!-- Node22 -->
<g id="Node000022" class="node">
<title>Node22</title>
<g id="a_Node000022"><a xlink:href="mixer__section_8cpp.html" target="_top" xlink:title="Implementation of the MixerSection UI.">
<polygon fill="white" stroke="#666666" points="2607.12,-32 2508.62,-32 2508.62,0 2607.12,0 2607.12,-32"/>
<text xml:space="preserve" text-anchor="start" x="2516.62" y="-18.5" font-family="Helvetica,sans-Serif" font-size="10.00">src/editor_sections</text>
<text xml:space="preserve" text-anchor="middle" x="2557.88" y="-6.5" font-family="Helvetica,sans-Serif" font-size="10.00">/mixer_section.cpp</text>
</a>
</g>
</g>
<!-- Node1&#45;&gt;Node22 -->
<g id="edge21_Node000001_Node000022" class="edge">
<title>Node1&#45;&gt;Node22</title>
<g id="a_edge21_Node000001_Node000022"><a xlink:title=" ">
<path fill="none" stroke="#63b8ff" d="M2371.7,-64.74C2411.49,-54.53 2467.93,-40.06 2508.22,-29.73"/>
<polygon fill="#63b8ff" stroke="#63b8ff" points="2370.98,-61.31 2362.16,-67.18 2372.72,-68.09 2370.98,-61.31"/>
</a>
</g>
</g>
<!-- Node23 -->
<g id="Node000023" class="node">
<title>Node23</title>
<g id="a_Node000023"><a xlink:href="noise__section_8cpp.html" target="_top" xlink:title="Implementation of the NoiseSection UI.">
<polygon fill="white" stroke="#666666" points="2724.12,-32 2625.62,-32 2625.62,0 2724.12,0 2724.12,-32"/>
<text xml:space="preserve" text-anchor="start" x="2633.62" y="-18.5" font-family="Helvetica,sans-Serif" font-size="10.00">src/editor_sections</text>
<text xml:space="preserve" text-anchor="middle" x="2674.88" y="-6.5" font-family="Helvetica,sans-Serif" font-size="10.00">/noise_section.cpp</text>
</a>
</g>
</g>
<!-- Node1&#45;&gt;Node23 -->
<g id="edge22_Node000001_Node000023" class="edge">
<title>Node1&#45;&gt;Node23</title>
<g id="a_edge22_Node000001_Node000023"><a xlink:title=" ">
<path fill="none" stroke="#63b8ff" d="M2397.96,-67.58C2457.19,-59.58 2542.22,-47 2615.88,-32 2618.98,-31.37 2622.17,-30.68 2625.38,-29.95"/>
<polygon fill="#63b8ff" stroke="#63b8ff" points="2397.79,-64.08 2388.34,-68.87 2398.72,-71.01 2397.79,-64.08"/>
</a>
</g>
</g>
<!-- Node24 -->
<g id="Node000024" class="node">
<title>Node24</title>
<g id="a_Node000024"><a xlink:href="oscillator__section_8cpp.html" target="_top" xlink:title="Implementation of the oscillator UI section.">
<polygon fill="white" stroke="#666666" points="2855.62,-32 2742.12,-32 2742.12,0 2855.62,0 2855.62,-32"/>
<text xml:space="preserve" text-anchor="start" x="2750.12" y="-18.5" font-family="Helvetica,sans-Serif" font-size="10.00">src/editor_sections</text>
<text xml:space="preserve" text-anchor="middle" x="2798.88" y="-6.5" font-family="Helvetica,sans-Serif" font-size="10.00">/oscillator_section.cpp</text>
</a>
</g>
</g>
<!-- Node1&#45;&gt;Node24 -->
<g id="edge23_Node000001_Node000024" class="edge">
<title>Node1&#45;&gt;Node24</title>
<g id="a_edge23_Node000001_Node000024"><a xlink:title=" ">
<path fill="none" stroke="#63b8ff" d="M2398.13,-71.39C2480.35,-64.58 2616.64,-51.54 2732.88,-32 2735.77,-31.51 2738.73,-30.98 2741.72,-30.41"/>
<polygon fill="#63b8ff" stroke="#63b8ff" points="2398.08,-67.88 2388.4,-72.18 2398.65,-74.86 2398.08,-67.88"/>
</a>
</g>
</g>
<!-- Node25 -->
<g id="Node000025" class="node">
<title>Node25</title>
<g id="a_Node000025"><a xlink:href="patch__browser_8cpp.html" target="_top" xlink:title="Implementation of the PatchBrowser overlay used to load and manage patches.">
<polygon fill="white" stroke="#666666" points="2975.62,-32 2874.12,-32 2874.12,0 2975.62,0 2975.62,-32"/>
<text xml:space="preserve" text-anchor="start" x="2882.12" y="-18.5" font-family="Helvetica,sans-Serif" font-size="10.00">src/editor_sections</text>
<text xml:space="preserve" text-anchor="middle" x="2924.88" y="-6.5" font-family="Helvetica,sans-Serif" font-size="10.00">/patch_browser.cpp</text>
</a>
</g>
</g>
<!-- Node1&#45;&gt;Node25 -->
<g id="edge24_Node000001_Node000025" class="edge">
<title>Node1&#45;&gt;Node25</title>
<g id="a_edge24_Node000001_Node000025"><a xlink:title=" ">
<path fill="none" stroke="#63b8ff" d="M2398.14,-74.63C2502.83,-70.42 2699.52,-59.36 2864.88,-32 2867.84,-31.51 2870.88,-30.95 2873.93,-30.33"/>
<polygon fill="#63b8ff" stroke="#63b8ff" points="2398.13,-71.13 2388.27,-75.01 2398.4,-78.12 2398.13,-71.13"/>
</a>
</g>
</g>
<!-- Node26 -->
<g id="Node000026" class="node">
<title>Node26</title>
<g id="a_Node000026"><a xlink:href="reverb__section_8cpp.html" target="_top" xlink:title="Implementation of ReverbSection UI.">
<polygon fill="white" stroke="#666666" points="3095.62,-32 2994.12,-32 2994.12,0 3095.62,0 3095.62,-32"/>
<text xml:space="preserve" text-anchor="start" x="3002.12" y="-18.5" font-family="Helvetica,sans-Serif" font-size="10.00">src/editor_sections</text>
<text xml:space="preserve" text-anchor="middle" x="3044.88" y="-6.5" font-family="Helvetica,sans-Serif" font-size="10.00">/reverb_section.cpp</text>
</a>
</g>
</g>
<!-- Node1&#45;&gt;Node26 -->
<g id="edge25_Node000001_Node000026" class="edge">
<title>Node1&#45;&gt;Node26</title>
<g id="a_edge25_Node000001_Node000026"><a xlink:title=" ">
<path fill="none" stroke="#63b8ff" d="M2398.19,-76.22C2521.03,-73.97 2773.82,-65.3 2984.88,-32 2987.84,-31.53 2990.88,-30.99 2993.94,-30.39"/>
<polygon fill="#63b8ff" stroke="#63b8ff" points="2398.17,-72.72 2388.23,-76.39 2398.29,-79.71 2398.17,-72.72"/>
</a>
</g>
</g>
<!-- Node27 -->
<g id="Node000027" class="node">
<title>Node27</title>
<g id="a_Node000027"><a xlink:href="save__section_8cpp.html" target="_top" xlink:title="Implementation of the SaveSection overlay used to save patches.">
<polygon fill="white" stroke="#666666" points="3212.12,-32 3113.62,-32 3113.62,0 3212.12,0 3212.12,-32"/>
<text xml:space="preserve" text-anchor="start" x="3121.62" y="-18.5" font-family="Helvetica,sans-Serif" font-size="10.00">src/editor_sections</text>
<text xml:space="preserve" text-anchor="middle" x="3162.88" y="-6.5" font-family="Helvetica,sans-Serif" font-size="10.00">/save_section.cpp</text>
</a>
</g>
</g>
<!-- Node1&#45;&gt;Node27 -->
<g id="edge26_Node000001_Node000027" class="edge">
<title>Node1&#45;&gt;Node27</title>
<g id="a_edge26_Node000001_Node000027"><a xlink:title=" ">
<path fill="none" stroke="#63b8ff" d="M2398.44,-77.53C2538,-77.46 2847.77,-72.26 3104.88,-32 3107.65,-31.57 3110.48,-31.06 3113.33,-30.49"/>
<polygon fill="#63b8ff" stroke="#63b8ff" points="2398.6,-74.03 2388.6,-77.53 2398.59,-81.03 2398.6,-74.03"/>
</a>
</g>
</g>
<!-- Node28 -->
<g id="Node000028" class="node">
<title>Node28</title>
<g id="a_Node000028"><a xlink:href="step__sequencer__section_8cpp.html" target="_top" xlink:title="Implementation of StepSequencerSection UI.">
<polygon fill="white" stroke="#666666" points="3373.62,-32 3230.12,-32 3230.12,0 3373.62,0 3373.62,-32"/>
<text xml:space="preserve" text-anchor="start" x="3238.12" y="-18.5" font-family="Helvetica,sans-Serif" font-size="10.00">src/editor_sections</text>
<text xml:space="preserve" text-anchor="middle" x="3301.88" y="-6.5" font-family="Helvetica,sans-Serif" font-size="10.00">/step_sequencer_section.cpp</text>
</a>
</g>
</g>
<!-- Node1&#45;&gt;Node28 -->
<g id="edge27_Node000001_Node000028" class="edge">
<title>Node1&#45;&gt;Node28</title>
<g id="a_edge27_Node000001_Node000028"><a xlink:title=" ">
<path fill="none" stroke="#63b8ff" d="M2398.07,-76.61C2551.99,-75.06 2917.01,-67.6 3220.88,-32 3223.86,-31.65 3226.9,-31.26 3229.96,-30.83"/>
<polygon fill="#63b8ff" stroke="#63b8ff" points="2398.4,-73.1 2388.43,-76.7 2398.46,-80.1 2398.4,-73.1"/>
</a>
</g>
</g>
<!-- Node29 -->
<g id="Node000029" class="node">
<title>Node29</title>
<g id="a_Node000029"><a xlink:href="stutter__section_8cpp.html" target="_top" xlink:title="Implementation of the StutterSection UI.">
<polygon fill="white" stroke="#666666" points="3494,-32 3391.75,-32 3391.75,0 3494,0 3494,-32"/>
<text xml:space="preserve" text-anchor="start" x="3399.75" y="-18.5" font-family="Helvetica,sans-Serif" font-size="10.00">src/editor_sections</text>
<text xml:space="preserve" text-anchor="middle" x="3442.88" y="-6.5" font-family="Helvetica,sans-Serif" font-size="10.00">/stutter_section.cpp</text>
</a>
</g>
</g>
<!-- Node1&#45;&gt;Node29 -->
<g id="edge28_Node000001_Node000029" class="edge">
<title>Node1&#45;&gt;Node29</title>
<g id="a_edge28_Node000001_Node000029"><a xlink:title=" ">
<path fill="none" stroke="#63b8ff" d="M2398.47,-75.79C2606.88,-72.11 3192.51,-59.55 3382.88,-32 3385.64,-31.6 3388.46,-31.13 3391.3,-30.6"/>
<polygon fill="#63b8ff" stroke="#63b8ff" points="2398.51,-72.29 2388.57,-75.97 2398.63,-79.29 2398.51,-72.29"/>
</a>
</g>
</g>
<!-- Node30 -->
<g id="Node000030" class="node">
<title>Node30</title>
<g id="a_Node000030"><a xlink:href="sub__section_8cpp.html" target="_top" xlink:title="Implementation of the sub&#45;oscillator editor subsection.">
<polygon fill="white" stroke="#666666" points="3610.12,-32 3511.62,-32 3511.62,0 3610.12,0 3610.12,-32"/>
<text xml:space="preserve" text-anchor="start" x="3519.62" y="-18.5" font-family="Helvetica,sans-Serif" font-size="10.00">src/editor_sections</text>
<text xml:space="preserve" text-anchor="middle" x="3560.88" y="-6.5" font-family="Helvetica,sans-Serif" font-size="10.00">/sub_section.cpp</text>
</a>
</g>
</g>
<!-- Node1&#45;&gt;Node30 -->
<g id="edge29_Node000001_Node000030" class="edge">
<title>Node1&#45;&gt;Node30</title>
<g id="a_edge29_Node000001_Node000030"><a xlink:title=" ">
<path fill="none" stroke="#63b8ff" d="M2398.32,-76.25C2622.4,-73.66 3288.36,-63.46 3502.88,-32 3505.65,-31.59 3508.49,-31.1 3511.34,-30.56"/>
<polygon fill="#63b8ff" stroke="#63b8ff" points="2398.51,-72.75 2388.55,-76.36 2398.59,-79.75 2398.51,-72.75"/>
</a>
</g>
</g>
<!-- Node31 -->
<g id="Node000031" class="node">
<title>Node31</title>
<g id="a_Node000031"><a xlink:href="synth__section_8cpp.html" target="_top" xlink:title="Implementation of the SynthSection base UI class.">
<polygon fill="white" stroke="#666666" points="3727.12,-32 3628.62,-32 3628.62,0 3727.12,0 3727.12,-32"/>
<text xml:space="preserve" text-anchor="start" x="3636.62" y="-18.5" font-family="Helvetica,sans-Serif" font-size="10.00">src/editor_sections</text>
<text xml:space="preserve" text-anchor="middle" x="3677.88" y="-6.5" font-family="Helvetica,sans-Serif" font-size="10.00">/synth_section.cpp</text>
</a>
</g>
</g>
<!-- Node1&#45;&gt;Node31 -->
<g id="edge30_Node000001_Node000031" class="edge">
<title>Node1&#45;&gt;Node31</title>
<g id="a_edge30_Node000001_Node000031"><a xlink:title=" ">
<path fill="none" stroke="#63b8ff" d="M2398.19,-76.51C2636.64,-74.6 3380.73,-66.01 3618.88,-32 3621.91,-31.57 3625.01,-31.04 3628.13,-30.44"/>
<polygon fill="#63b8ff" stroke="#63b8ff" points="2398.37,-73.01 2388.4,-76.58 2398.43,-80.01 2398.37,-73.01"/>
</a>
</g>
</g>
<!-- Node32 -->
<g id="Node000032" class="node">
<title>Node32</title>
<g id="a_Node000032"><a xlink:href="synthesis__interface_8cpp.html" target="_top" xlink:title="Implementation of the SynthesisInterface UI orchestration.">
<polygon fill="white" stroke="#666666" points="3868.12,-32 3745.62,-32 3745.62,0 3868.12,0 3868.12,-32"/>
<text xml:space="preserve" text-anchor="start" x="3753.62" y="-18.5" font-family="Helvetica,sans-Serif" font-size="10.00">src/editor_sections</text>
<text xml:space="preserve" text-anchor="middle" x="3806.88" y="-6.5" font-family="Helvetica,sans-Serif" font-size="10.00">/synthesis_interface.cpp</text>
</a>
</g>
</g>
<!-- Node1&#45;&gt;Node32 -->
<g id="edge31_Node000001_Node000032" class="edge">
<title>Node1&#45;&gt;Node32</title>
<g id="a_edge31_Node000001_Node000032"><a xlink:title=" ">
<path fill="none" stroke="#63b8ff" d="M2397.93,-76.36C2649.94,-73.93 3473.13,-63.69 3735.88,-32 3739,-31.62 3742.2,-31.18 3745.41,-30.68"/>
<polygon fill="#63b8ff" stroke="#63b8ff" points="2398.2,-72.86 2388.23,-76.46 2398.27,-79.86 2398.2,-72.86"/>
</a>
</g>
</g>
<!-- Node33 -->
<g id="Node000033" class="node">
<title>Node33</title>
<g id="a_Node000033"><a xlink:href="voice__section_8cpp.html" target="_top" xlink:title="Implementation of the voice controls UI (polyphony, pitch bend, etc.).">
<polygon fill="white" stroke="#666666" points="3985.12,-32 3886.62,-32 3886.62,0 3985.12,0 3985.12,-32"/>
<text xml:space="preserve" text-anchor="start" x="3894.62" y="-18.5" font-family="Helvetica,sans-Serif" font-size="10.00">src/editor_sections</text>
<text xml:space="preserve" text-anchor="middle" x="3935.88" y="-6.5" font-family="Helvetica,sans-Serif" font-size="10.00">/voice_section.cpp</text>
</a>
</g>
</g>
<!-- Node1&#45;&gt;Node33 -->
<g id="edge32_Node000001_Node000033" class="edge">
<title>Node1&#45;&gt;Node33</title>
<g id="a_edge32_Node000001_Node000033"><a xlink:title=" ">
<path fill="none" stroke="#63b8ff" d="M2398.06,-77.01C2666.4,-76.71 3586.04,-72.68 3876.88,-32 3879.91,-31.58 3883.02,-31.05 3886.13,-30.46"/>
<polygon fill="#63b8ff" stroke="#63b8ff" points="2398.41,-73.51 2388.41,-77.02 2398.42,-80.51 2398.41,-73.51"/>
</a>
</g>
</g>
<!-- Node34 -->
<g id="Node000034" class="node">
<title>Node34</title>
<g id="a_Node000034"><a xlink:href="browser__look__and__feel_8cpp.html" target="_top" xlink:title=" ">
<polygon fill="white" stroke="#666666" points="4132.88,-32 4002.88,-32 4002.88,0 4132.88,0 4132.88,-32"/>
<text xml:space="preserve" text-anchor="start" x="4010.88" y="-18.5" font-family="Helvetica,sans-Serif" font-size="10.00">src/look_and_feel/browser</text>
<text xml:space="preserve" text-anchor="middle" x="4067.88" y="-6.5" font-family="Helvetica,sans-Serif" font-size="10.00">_look_and_feel.cpp</text>
</a>
</g>
</g>
<!-- Node1&#45;&gt;Node34 -->
<g id="edge33_Node000001_Node000034" class="edge">
<title>Node1&#45;&gt;Node34</title>
<g id="a_edge33_Node000001_Node000034"><a xlink:title=" ">
<path fill="none" stroke="#63b8ff" d="M2398.33,-76.71C2679.71,-75.33 3678.2,-67.97 3993.88,-32 3996.74,-31.67 3999.66,-31.29 4002.6,-30.87"/>
<polygon fill="#63b8ff" stroke="#63b8ff" points="2398.54,-73.21 2388.56,-76.75 2398.58,-80.21 2398.54,-73.21"/>
</a>
</g>
</g>
<!-- Node35 -->
<g id="Node000035" class="node">
<title>Node35</title>
<g id="a_Node000035"><a xlink:href="default__look__and__feel_8cpp.html" target="_top" xlink:title=" ">
<polygon fill="white" stroke="#666666" points="4275.25,-32 4150.5,-32 4150.5,0 4275.25,0 4275.25,-32"/>
<text xml:space="preserve" text-anchor="start" x="4158.5" y="-18.5" font-family="Helvetica,sans-Serif" font-size="10.00">src/look_and_feel/default</text>
<text xml:space="preserve" text-anchor="middle" x="4212.88" y="-6.5" font-family="Helvetica,sans-Serif" font-size="10.00">_look_and_feel.cpp</text>
</a>
</g>
</g>
<!-- Node1&#45;&gt;Node35 -->
<g id="edge34_Node000001_Node000035" class="edge">
<title>Node1&#45;&gt;Node35</title>
<g id="a_edge34_Node000001_Node000035"><a xlink:title=" ">
<path fill="none" stroke="#63b8ff" d="M2398.4,-76.98C2695.48,-76.61 3795.87,-72.48 4141.88,-32 4144.63,-31.68 4147.43,-31.3 4150.26,-30.88"/>
<polygon fill="#63b8ff" stroke="#63b8ff" points="2398.44,-73.48 2388.44,-76.99 2398.44,-80.48 2398.44,-73.48"/>
</a>
</g>
</g>
<!-- Node36 -->
<g id="Node000036" class="node">
<title>Node36</title>
<g id="a_Node000036"><a xlink:href="fonts_8cpp.html" target="_top" xlink:title=" ">
<polygon fill="white" stroke="#666666" points="4428.88,-26 4292.88,-26 4292.88,-6 4428.88,-6 4428.88,-26"/>
<text xml:space="preserve" text-anchor="middle" x="4360.88" y="-12.5" font-family="Helvetica,sans-Serif" font-size="10.00">src/look_and_feel/fonts.cpp</text>
</a>
</g>
</g>
<!-- Node1&#45;&gt;Node36 -->
<g id="edge35_Node000001_Node000036" class="edge">
<title>Node1&#45;&gt;Node36</title>
<g id="a_edge35_Node000001_Node000036"><a xlink:title=" ">
<path fill="none" stroke="#63b8ff" d="M2397.99,-76.98C2708.75,-76.63 3908.04,-72.63 4283.88,-32 4295.38,-30.76 4307.74,-28.68 4319.11,-26.47"/>
<polygon fill="#63b8ff" stroke="#63b8ff" points="2398.39,-73.48 2388.39,-76.99 2398.39,-80.48 2398.39,-73.48"/>
</a>
</g>
</g>
<!-- Node37 -->
<g id="Node000037" class="node">
<title>Node37</title>
<g id="a_Node000037"><a xlink:href="modulation__look__and__feel_8cpp.html" target="_top" xlink:title=" ">
<polygon fill="white" stroke="#666666" points="4589.25,-32 4446.5,-32 4446.5,0 4589.25,0 4589.25,-32"/>
<text xml:space="preserve" text-anchor="start" x="4454.5" y="-18.5" font-family="Helvetica,sans-Serif" font-size="10.00">src/look_and_feel/modulation</text>
<text xml:space="preserve" text-anchor="middle" x="4517.88" y="-6.5" font-family="Helvetica,sans-Serif" font-size="10.00">_look_and_feel.cpp</text>
</a>
</g>
</g>
<!-- Node1&#45;&gt;Node37 -->
<g id="edge36_Node000001_Node000037" class="edge">
<title>Node1&#45;&gt;Node37</title>
<g id="a_edge36_Node000001_Node000037"><a xlink:title=" ">
<path fill="none" stroke="#63b8ff" d="M2398.09,-77.05C2723.97,-77.04 4029.99,-74.29 4437.88,-32 4440.69,-31.71 4443.55,-31.37 4446.43,-31"/>
<polygon fill="#63b8ff" stroke="#63b8ff" points="2398.43,-73.55 2388.43,-77.05 2398.43,-80.55 2398.43,-73.55"/>
</a>
</g>
</g>
<!-- Node38 -->
<g id="Node000038" class="node">
<title>Node38</title>
<g id="a_Node000038"><a xlink:href="text__look__and__feel_8cpp.html" target="_top" xlink:title=" ">
<polygon fill="white" stroke="#666666" points="4718.88,-32 4606.88,-32 4606.88,0 4718.88,0 4718.88,-32"/>
<text xml:space="preserve" text-anchor="start" x="4614.88" y="-18.5" font-family="Helvetica,sans-Serif" font-size="10.00">src/look_and_feel/text</text>
<text xml:space="preserve" text-anchor="middle" x="4662.88" y="-6.5" font-family="Helvetica,sans-Serif" font-size="10.00">_look_and_feel.cpp</text>
</a>
</g>
</g>
<!-- Node1&#45;&gt;Node38 -->
<g id="edge37_Node000001_Node000038" class="edge">
<title>Node1&#45;&gt;Node38</title>
<g id="a_edge37_Node000001_Node000038"><a xlink:title=" ">
<path fill="none" stroke="#63b8ff" d="M2398.2,-76.44C2765.26,-73.58 4375.88,-59.51 4597.88,-32 4600.75,-31.64 4603.68,-31.21 4606.63,-30.73"/>
<polygon fill="#63b8ff" stroke="#63b8ff" points="2398.42,-72.94 2388.45,-76.52 2398.48,-79.94 2398.42,-72.94"/>
</a>
</g>
</g>
</g>
</svg>
