<?xml version="1.0" encoding="UTF-8" standalone="no"?>
<!DOCTYPE svg PUBLIC "-//W3C//DTD SVG 1.1//EN"
 "http://www.w3.org/Graphics/SVG/1.1/DTD/svg11.dtd">
<!-- Generated by graphviz version 16.1.0 (20260904.0139)
 -->
<!-- Title: mopo/src/processor_router.cpp Pages: 1 -->
<svg width="819pt" height="376pt"
 viewBox="0.00 0.00 819.00 376.00" xmlns="http://www.w3.org/2000/svg" xmlns:xlink="http://www.w3.org/1999/xlink">
<g id="graph0" class="graph" transform="scale(1 1) rotate(0) translate(4 372)">
<title>mopo/src/processor_router.cpp</title>
<!-- Node1 -->
<g id="Node000001" class="node">
<title>Node1</title>
<g id="a_Node000001"><a xlink:title=" ">
<polygon fill="#999999" stroke="#666666" points="714.62,-368 612.38,-368 612.38,-336 714.62,-336 714.62,-368"/>
<text xml:space="preserve" text-anchor="start" x="620.38" y="-354.5" font-family="Helvetica,sans-Serif" font-size="10.00">mopo/src/processor</text>
<text xml:space="preserve" text-anchor="middle" x="663.5" y="-342.5" font-family="Helvetica,sans-Serif" font-size="10.00">_router.cpp</text>
</a>
</g>
</g>
<!-- Node2 -->
<g id="Node000002" class="node">
<title>Node2</title>
<g id="a_Node000002"><a xlink:href="processor__router_8h.html" target="_top" xlink:title="Gestion d&#39;un graphe de processors, routage et ordonnancement.">
<polygon fill="white" stroke="#666666" points="605,-300 508,-300 508,-280 605,-280 605,-300"/>
<text xml:space="preserve" text-anchor="middle" x="556.5" y="-286.5" font-family="Helvetica,sans-Serif" font-size="10.00">processor_router.h</text>
</a>
</g>
</g>
<!-- Node1&#45;&gt;Node2 -->
<g id="edge1_Node000001_Node000002" class="edge">
<title>Node1&#45;&gt;Node2</title>
<g id="a_edge1_Node000001_Node000002"><a xlink:title=" ">
<path fill="none" stroke="#63b8ff" d="M635.94,-335.55C619.69,-326.43 599.22,-314.96 583.13,-305.93"/>
<polygon fill="#63b8ff" stroke="#63b8ff" points="585.03,-302.99 574.6,-301.15 581.61,-309.09 585.03,-302.99"/>
</a>
</g>
</g>
<!-- Node3 -->
<g id="Node000003" class="node">
<title>Node3</title>
<g id="a_Node000003"><a xlink:href="feedback_8h.html" target="_top" xlink:title="Processeur spécial pour la gestion des boucles de feedback audio.">
<polygon fill="white" stroke="#666666" points="459.5,-244 395.5,-244 395.5,-224 459.5,-224 459.5,-244"/>
<text xml:space="preserve" text-anchor="middle" x="427.5" y="-230.5" font-family="Helvetica,sans-Serif" font-size="10.00">feedback.h</text>
</a>
</g>
</g>
<!-- Node1&#45;&gt;Node3 -->
<g id="edge22_Node000001_Node000003" class="edge">
<title>Node1&#45;&gt;Node3</title>
<g id="a_edge22_Node000001_Node000003"><a xlink:title=" ">
<path fill="none" stroke="#63b8ff" d="M612.03,-341.03C578.49,-333.12 534.6,-320 499.5,-300 477.45,-287.43 456.4,-267.13 442.83,-252.56"/>
<polygon fill="#63b8ff" stroke="#63b8ff" points="445.72,-250.54 436.41,-245.47 440.53,-255.24 445.72,-250.54"/>
</a>
</g>
</g>
<!-- Node7 -->
<g id="Node000007" class="node">
<title>Node7</title>
<g id="a_Node000007"><a xlink:title=" ">
<polygon fill="#e0e0e0" stroke="#999999" points="595,-20 552,-20 552,0 595,0 595,-20"/>
<text xml:space="preserve" text-anchor="middle" x="573.5" y="-6.5" font-family="Helvetica,sans-Serif" font-size="10.00">vector</text>
</a>
</g>
</g>
<!-- Node1&#45;&gt;Node7 -->
<g id="edge25_Node000001_Node000007" class="edge">
<title>Node1&#45;&gt;Node7</title>
<g id="a_edge25_Node000001_Node000007"><a xlink:title=" ">
<path fill="none" stroke="#63b8ff" d="M663.5,-335.61C663.5,-313.4 663.5,-271.05 663.5,-235 663.5,-235 663.5,-235 663.5,-121 663.5,-79.69 625,-45.36 598.36,-26.55"/>
<polygon fill="#63b8ff" stroke="#63b8ff" points="600.67,-23.89 590.43,-21.19 596.75,-29.69 600.67,-23.89"/>
</a>
</g>
</g>
<!-- Node18 -->
<g id="Node000018" class="node">
<title>Node18</title>
<g id="a_Node000018"><a xlink:title=" ">
<polygon fill="#e0e0e0" stroke="#999999" points="747.38,-300 691.62,-300 691.62,-280 747.38,-280 747.38,-300"/>
<text xml:space="preserve" text-anchor="middle" x="719.5" y="-286.5" font-family="Helvetica,sans-Serif" font-size="10.00">algorithm</text>
</a>
</g>
</g>
<!-- Node1&#45;&gt;Node18 -->
<g id="edge23_Node000001_Node000018" class="edge">
<title>Node1&#45;&gt;Node18</title>
<g id="a_edge23_Node000001_Node000018"><a xlink:title=" ">
<path fill="none" stroke="#63b8ff" d="M677.92,-335.55C685.62,-327.3 695.12,-317.12 703.1,-308.57"/>
<polygon fill="#63b8ff" stroke="#63b8ff" points="705.42,-311.21 709.69,-301.51 700.3,-306.44 705.42,-311.21"/>
</a>
</g>
</g>
<!-- Node19 -->
<g id="Node000019" class="node">
<title>Node19</title>
<g id="a_Node000019"><a xlink:title=" ">
<polygon fill="#e0e0e0" stroke="#999999" points="811.12,-300 765.88,-300 765.88,-280 811.12,-280 811.12,-300"/>
<text xml:space="preserve" text-anchor="middle" x="788.5" y="-286.5" font-family="Helvetica,sans-Serif" font-size="10.00">ranges</text>
</a>
</g>
</g>
<!-- Node1&#45;&gt;Node19 -->
<g id="edge24_Node000001_Node000019" class="edge">
<title>Node1&#45;&gt;Node19</title>
<g id="a_edge24_Node000001_Node000019"><a xlink:title=" ">
<path fill="none" stroke="#63b8ff" d="M695.69,-335.55C715.13,-326.22 739.73,-314.41 758.72,-305.29"/>
<polygon fill="#63b8ff" stroke="#63b8ff" points="760.03,-308.55 767.54,-301.06 757.01,-302.23 760.03,-308.55"/>
</a>
</g>
</g>
<!-- Node2&#45;&gt;Node3 -->
<g id="edge2_Node000002_Node000003" class="edge">
<title>Node2&#45;&gt;Node3</title>
<g id="a_edge2_Node000002_Node000003"><a xlink:title=" ">
<path fill="none" stroke="#63b8ff" d="M534.03,-279.59C513.71,-271.09 483.55,-258.46 460.49,-248.81"/>
<polygon fill="#63b8ff" stroke="#63b8ff" points="462.12,-245.7 451.54,-245.06 459.41,-252.15 462.12,-245.7"/>
</a>
</g>
</g>
<!-- Node4 -->
<g id="Node000004" class="node">
<title>Node4</title>
<g id="a_Node000004"><a xlink:href="processor_8h.html" target="_top" xlink:title="Définition de la classe Processor et des ports d&#39;entrée/sortie.">
<polygon fill="white" stroke="#666666" points="422,-76 355,-76 355,-56 422,-56 422,-76"/>
<text xml:space="preserve" text-anchor="middle" x="388.5" y="-62.5" font-family="Helvetica,sans-Serif" font-size="10.00">processor.h</text>
</a>
</g>
</g>
<!-- Node2&#45;&gt;Node4 -->
<g id="edge18_Node000002_Node000004" class="edge">
<title>Node2&#45;&gt;Node4</title>
<g id="a_edge18_Node000002_Node000004"><a xlink:title=" ">
<path fill="none" stroke="#63b8ff" d="M543.18,-279.53C532.2,-271.18 516.81,-258.16 506.5,-244 468.69,-192.04 487.39,-162.38 447.5,-112 438.41,-100.52 425.75,-90.36 414.5,-82.61"/>
<polygon fill="#63b8ff" stroke="#63b8ff" points="416.64,-79.83 406.35,-77.28 412.8,-85.69 416.64,-79.83"/>
</a>
</g>
</g>
<!-- Node2&#45;&gt;Node7 -->
<g id="edge21_Node000002_Node000007" class="edge">
<title>Node2&#45;&gt;Node7</title>
<g id="a_edge21_Node000002_Node000007"><a xlink:title=" ">
<path fill="none" stroke="#63b8ff" d="M558.94,-279.66C563.64,-260.78 573.5,-216.68 573.5,-179 573.5,-179 573.5,-179 573.5,-121 573.5,-89.87 573.5,-53.78 573.5,-31.68"/>
<polygon fill="#63b8ff" stroke="#63b8ff" points="577,-31.93 573.5,-21.93 570,-31.93 577,-31.93"/>
</a>
</g>
</g>
<!-- Node16 -->
<g id="Node000016" class="node">
<title>Node16</title>
<g id="a_Node000016"><a xlink:title=" ">
<polygon fill="#e0e0e0" stroke="#999999" points="635.88,-244 601.12,-244 601.12,-224 635.88,-224 635.88,-244"/>
<text xml:space="preserve" text-anchor="middle" x="618.5" y="-230.5" font-family="Helvetica,sans-Serif" font-size="10.00">map</text>
</a>
</g>
</g>
<!-- Node2&#45;&gt;Node16 -->
<g id="edge19_Node000002_Node000016" class="edge">
<title>Node2&#45;&gt;Node16</title>
<g id="a_edge19_Node000002_Node000016"><a xlink:title=" ">
<path fill="none" stroke="#63b8ff" d="M567.3,-279.59C576.1,-271.93 588.75,-260.91 599.27,-251.75"/>
<polygon fill="#63b8ff" stroke="#63b8ff" points="601.44,-254.5 606.68,-245.29 596.84,-249.22 601.44,-254.5"/>
</a>
</g>
</g>
<!-- Node17 -->
<g id="Node000017" class="node">
<title>Node17</title>
<g id="a_Node000017"><a xlink:title=" ">
<polygon fill="#e0e0e0" stroke="#999999" points="545.25,-244 515.75,-244 515.75,-224 545.25,-224 545.25,-244"/>
<text xml:space="preserve" text-anchor="middle" x="530.5" y="-230.5" font-family="Helvetica,sans-Serif" font-size="10.00">set</text>
</a>
</g>
</g>
<!-- Node2&#45;&gt;Node17 -->
<g id="edge20_Node000002_Node000017" class="edge">
<title>Node2&#45;&gt;Node17</title>
<g id="a_edge20_Node000002_Node000017"><a xlink:title=" ">
<path fill="none" stroke="#63b8ff" d="M551.97,-279.59C548.65,-272.7 544.03,-263.1 539.92,-254.57"/>
<polygon fill="#63b8ff" stroke="#63b8ff" points="543.13,-253.15 535.63,-245.66 536.82,-256.19 543.13,-253.15"/>
</a>
</g>
</g>
<!-- Node3&#45;&gt;Node4 -->
<g id="edge3_Node000003_Node000004" class="edge">
<title>Node3&#45;&gt;Node4</title>
<g id="a_edge3_Node000003_Node000004"><a xlink:title=" ">
<path fill="none" stroke="#63b8ff" d="M430.08,-223.78C435.41,-202.96 445.91,-151.1 430.5,-112 426.24,-101.19 418.03,-91.45 409.99,-83.82"/>
<polygon fill="#63b8ff" stroke="#63b8ff" points="412.49,-81.36 402.66,-77.41 407.88,-86.63 412.49,-81.36"/>
</a>
</g>
</g>
<!-- Node10 -->
<g id="Node000010" class="node">
<title>Node10</title>
<g id="a_Node000010"><a xlink:href="utils_8h.html" target="_top" xlink:title="Utilitaires mathématiques et helpers pour mopo (interpolation, buffers, conversions).">
<polygon fill="white" stroke="#666666" points="239.62,-188 197.38,-188 197.38,-168 239.62,-168 239.62,-188"/>
<text xml:space="preserve" text-anchor="middle" x="218.5" y="-174.5" font-family="Helvetica,sans-Serif" font-size="10.00">utils.h</text>
</a>
</g>
</g>
<!-- Node3&#45;&gt;Node10 -->
<g id="edge9_Node000003_Node000010" class="edge">
<title>Node3&#45;&gt;Node10</title>
<g id="a_edge9_Node000003_Node000010"><a xlink:title=" ">
<path fill="none" stroke="#63b8ff" d="M395.3,-224.68C356.1,-214.55 290.26,-197.54 250.94,-187.38"/>
<polygon fill="#63b8ff" stroke="#63b8ff" points="251.91,-184.02 241.36,-184.91 250.16,-190.8 251.91,-184.02"/>
</a>
</g>
</g>
<!-- Node5 -->
<g id="Node000005" class="node">
<title>Node5</title>
<g id="a_Node000005"><a xlink:href="common_8h.html" target="_top" xlink:title="Core definitions and constants for the mopo synthesis library.">
<polygon fill="white" stroke="#666666" points="238.38,-20 176.62,-20 176.62,0 238.38,0 238.38,-20"/>
<text xml:space="preserve" text-anchor="middle" x="207.5" y="-6.5" font-family="Helvetica,sans-Serif" font-size="10.00">common.h</text>
</a>
</g>
</g>
<!-- Node4&#45;&gt;Node5 -->
<g id="edge4_Node000004_Node000005" class="edge">
<title>Node4&#45;&gt;Node5</title>
<g id="a_edge4_Node000004_Node000005"><a xlink:title=" ">
<path fill="none" stroke="#63b8ff" d="M356.97,-55.59C327.12,-46.69 282.12,-33.26 249.29,-23.47"/>
<polygon fill="#63b8ff" stroke="#63b8ff" points="250.7,-20.24 240.12,-20.73 248.7,-26.94 250.7,-20.24"/>
</a>
</g>
</g>
<!-- Node6 -->
<g id="Node000006" class="node">
<title>Node6</title>
<g id="a_Node000006"><a xlink:title=" ">
<polygon fill="#e0e0e0" stroke="#999999" points="461.12,-20 415.88,-20 415.88,0 461.12,0 461.12,-20"/>
<text xml:space="preserve" text-anchor="middle" x="438.5" y="-6.5" font-family="Helvetica,sans-Serif" font-size="10.00">cstring</text>
</a>
</g>
</g>
<!-- Node4&#45;&gt;Node6 -->
<g id="edge5_Node000004_Node000006" class="edge">
<title>Node4&#45;&gt;Node6</title>
<g id="a_edge5_Node000004_Node000006"><a xlink:title=" ">
<path fill="none" stroke="#63b8ff" d="M397.21,-55.59C404.09,-48.16 413.89,-37.58 422.22,-28.58"/>
<polygon fill="#63b8ff" stroke="#63b8ff" points="424.64,-31.12 428.86,-21.41 419.5,-26.37 424.64,-31.12"/>
</a>
</g>
</g>
<!-- Node4&#45;&gt;Node7 -->
<g id="edge6_Node000004_Node000007" class="edge">
<title>Node4&#45;&gt;Node7</title>
<g id="a_edge6_Node000004_Node000007"><a xlink:title=" ">
<path fill="none" stroke="#63b8ff" d="M420.72,-55.59C454.49,-45.74 507.22,-30.35 541.07,-20.47"/>
<polygon fill="#63b8ff" stroke="#63b8ff" points="541.69,-23.93 550.31,-17.77 539.73,-17.21 541.69,-23.93"/>
</a>
</g>
</g>
<!-- Node8 -->
<g id="Node000008" class="node">
<title>Node8</title>
<g id="a_Node000008"><a xlink:title=" ">
<polygon fill="#e0e0e0" stroke="#999999" points="330.75,-20 286.25,-20 286.25,0 330.75,0 330.75,-20"/>
<text xml:space="preserve" text-anchor="middle" x="308.5" y="-6.5" font-family="Helvetica,sans-Serif" font-size="10.00">cstdlib</text>
</a>
</g>
</g>
<!-- Node4&#45;&gt;Node8 -->
<g id="edge7_Node000004_Node000008" class="edge">
<title>Node4&#45;&gt;Node8</title>
<g id="a_edge7_Node000004_Node000008"><a xlink:title=" ">
<path fill="none" stroke="#63b8ff" d="M374.57,-55.59C362.82,-47.67 345.77,-36.16 331.93,-26.82"/>
<polygon fill="#63b8ff" stroke="#63b8ff" points="334.04,-24.02 323.8,-21.33 330.13,-29.82 334.04,-24.02"/>
</a>
</g>
</g>
<!-- Node9 -->
<g id="Node000009" class="node">
<title>Node9</title>
<g id="a_Node000009"><a xlink:title=" ">
<polygon fill="#e0e0e0" stroke="#999999" points="397.5,-20 363.5,-20 363.5,0 397.5,0 397.5,-20"/>
<text xml:space="preserve" text-anchor="middle" x="380.5" y="-6.5" font-family="Helvetica,sans-Serif" font-size="10.00">new</text>
</a>
</g>
</g>
<!-- Node4&#45;&gt;Node9 -->
<g id="edge8_Node000004_Node000009" class="edge">
<title>Node4&#45;&gt;Node9</title>
<g id="a_edge8_Node000004_Node000009"><a xlink:title=" ">
<path fill="none" stroke="#63b8ff" d="M387.11,-55.59C386.12,-48.93 384.76,-39.75 383.53,-31.44"/>
<polygon fill="#63b8ff" stroke="#63b8ff" points="387.03,-31.17 382.1,-21.8 380.1,-32.2 387.03,-31.17"/>
</a>
</g>
</g>
<!-- Node10&#45;&gt;Node5 -->
<g id="edge10_Node000010_Node000005" class="edge">
<title>Node10&#45;&gt;Node5</title>
<g id="a_edge10_Node000010_Node000005"><a xlink:title=" ">
<path fill="none" stroke="#63b8ff" d="M217.88,-167.6C216.15,-141.46 211.24,-67.48 208.85,-31.36"/>
<polygon fill="#63b8ff" stroke="#63b8ff" points="212.37,-31.55 208.22,-21.81 205.39,-32.02 212.37,-31.55"/>
</a>
</g>
</g>
<!-- Node10&#45;&gt;Node8 -->
<g id="edge16_Node000010_Node000008" class="edge">
<title>Node10&#45;&gt;Node8</title>
<g id="a_edge16_Node000010_Node000008"><a xlink:title=" ">
<path fill="none" stroke="#63b8ff" d="M223.6,-167.6C237.95,-141.12 278.93,-65.54 298.22,-29.96"/>
<polygon fill="#63b8ff" stroke="#63b8ff" points="301.05,-32.09 302.74,-21.63 294.89,-28.75 301.05,-32.09"/>
</a>
</g>
</g>
<!-- Node11 -->
<g id="Node000011" class="node">
<title>Node11</title>
<g id="a_Node000011"><a xlink:href="value_8h.html" target="_top" xlink:title="Processeurs Value : constantes ou control&#45;rate values.">
<polygon fill="white" stroke="#666666" points="313.25,-132 265.75,-132 265.75,-112 313.25,-112 313.25,-132"/>
<text xml:space="preserve" text-anchor="middle" x="289.5" y="-118.5" font-family="Helvetica,sans-Serif" font-size="10.00">value.h</text>
</a>
</g>
</g>
<!-- Node10&#45;&gt;Node11 -->
<g id="edge11_Node000010_Node000011" class="edge">
<title>Node10&#45;&gt;Node11</title>
<g id="a_edge11_Node000010_Node000011"><a xlink:title=" ">
<path fill="none" stroke="#63b8ff" d="M230.87,-167.59C241.15,-159.77 256.02,-148.46 268.21,-139.19"/>
<polygon fill="#63b8ff" stroke="#63b8ff" points="270.23,-142.05 276.07,-133.21 265.99,-136.48 270.23,-142.05"/>
</a>
</g>
</g>
<!-- Node12 -->
<g id="Node000012" class="node">
<title>Node12</title>
<g id="a_Node000012"><a xlink:title=" ">
<polygon fill="#e0e0e0" stroke="#999999" points="421.62,-132 331.38,-132 331.38,-112 421.62,-112 421.62,-132"/>
<text xml:space="preserve" text-anchor="middle" x="376.5" y="-118.5" font-family="Helvetica,sans-Serif" font-size="10.00">xsimd/xsimd.hpp</text>
</a>
</g>
</g>
<!-- Node10&#45;&gt;Node12 -->
<g id="edge13_Node000010_Node000012" class="edge">
<title>Node10&#45;&gt;Node12</title>
<g id="a_edge13_Node000010_Node000012"><a xlink:title=" ">
<path fill="none" stroke="#63b8ff" d="M239.81,-169.72C264.94,-161.13 307.2,-146.69 338.09,-136.13"/>
<polygon fill="#63b8ff" stroke="#63b8ff" points="339.14,-139.47 347.47,-132.92 336.88,-132.84 339.14,-139.47"/>
</a>
</g>
</g>
<!-- Node13 -->
<g id="Node000013" class="node">
<title>Node13</title>
<g id="a_Node000013"><a xlink:title=" ">
<polygon fill="#e0e0e0" stroke="#999999" points="43,-132 0,-132 0,-112 43,-112 43,-132"/>
<text xml:space="preserve" text-anchor="middle" x="21.5" y="-118.5" font-family="Helvetica,sans-Serif" font-size="10.00">cmath</text>
</a>
</g>
</g>
<!-- Node10&#45;&gt;Node13 -->
<g id="edge14_Node000010_Node000013" class="edge">
<title>Node10&#45;&gt;Node13</title>
<g id="a_edge14_Node000010_Node000013"><a xlink:title=" ">
<path fill="none" stroke="#63b8ff" d="M197.09,-171.44C167.2,-163.63 110.98,-148.78 54.38,-132.77"/>
<polygon fill="#63b8ff" stroke="#63b8ff" points="55.47,-129.44 44.89,-130.07 53.55,-136.17 55.47,-129.44"/>
</a>
</g>
</g>
<!-- Node14 -->
<g id="Node000014" class="node">
<title>Node14</title>
<g id="a_Node000014"><a xlink:title=" ">
<polygon fill="#e0e0e0" stroke="#999999" points="98,-132 61,-132 61,-112 98,-112 98,-132"/>
<text xml:space="preserve" text-anchor="middle" x="79.5" y="-118.5" font-family="Helvetica,sans-Serif" font-size="10.00">span</text>
</a>
</g>
</g>
<!-- Node10&#45;&gt;Node14 -->
<g id="edge15_Node000010_Node000014" class="edge">
<title>Node10&#45;&gt;Node14</title>
<g id="a_edge15_Node000010_Node000014"><a xlink:title=" ">
<path fill="none" stroke="#63b8ff" d="M197.09,-168.68C173.5,-159.52 135.41,-144.72 109.01,-134.46"/>
<polygon fill="#63b8ff" stroke="#63b8ff" points="110.48,-131.28 99.89,-130.92 107.94,-137.81 110.48,-131.28"/>
</a>
</g>
</g>
<!-- Node15 -->
<g id="Node000015" class="node">
<title>Node15</title>
<g id="a_Node000015"><a xlink:title=" ">
<polygon fill="#e0e0e0" stroke="#999999" points="171.38,-132 115.62,-132 115.62,-112 171.38,-112 171.38,-132"/>
<text xml:space="preserve" text-anchor="middle" x="143.5" y="-118.5" font-family="Helvetica,sans-Serif" font-size="10.00">concepts</text>
</a>
</g>
</g>
<!-- Node10&#45;&gt;Node15 -->
<g id="edge17_Node000010_Node000015" class="edge">
<title>Node10&#45;&gt;Node15</title>
<g id="a_edge17_Node000010_Node000015"><a xlink:title=" ">
<path fill="none" stroke="#63b8ff" d="M205.44,-167.59C194.53,-159.74 178.75,-148.38 165.84,-139.09"/>
<polygon fill="#63b8ff" stroke="#63b8ff" points="168.05,-136.37 157.89,-133.36 163.96,-142.05 168.05,-136.37"/>
</a>
</g>
</g>
<!-- Node11&#45;&gt;Node4 -->
<g id="edge12_Node000011_Node000004" class="edge">
<title>Node11&#45;&gt;Node4</title>
<g id="a_edge12_Node000011_Node000004"><a xlink:title=" ">
<path fill="none" stroke="#63b8ff" d="M306.74,-111.59C321.84,-103.36 344.03,-91.26 361.48,-81.74"/>
<polygon fill="#63b8ff" stroke="#63b8ff" points="362.69,-85.07 369.79,-77.2 359.34,-78.92 362.69,-85.07"/>
</a>
</g>
</g>
</g>
</svg>
