<?xml version="1.0" encoding="UTF-8" standalone="no"?>
<!DOCTYPE svg PUBLIC "-//W3C//DTD SVG 1.1//EN"
 "http://www.w3.org/Graphics/SVG/1.1/DTD/svg11.dtd">
<!-- Generated by graphviz version 16.1.0 (20260904.0139)
 -->
<!-- Title: mopo/src/reverb_all_pass.cpp Pages: 1 -->
<!--zoomable 376 -->

<svg id="main" version="1.1" xmlns="http://www.w3.org/2000/svg" xmlns:xlink="http://www.w3.org/1999/xlink" xml:space="preserve">

<style type="text/css"><![CDATA[
.node, .edge {opacity: 0.7;}
.node.selected, .edge.selected {opacity: 1;}
.edge:hover path { stroke: red; }
.edge:hover polygon { stroke: red; fill: red; }
]]></style>

<defs>
  <circle id="rim" cx="0" cy="0" r="7"/>
  <circle id="rim2" cx="0" cy="0" r="3.5"/>
  <g id="zoomPlus">
    <use xlink:href="#rim" fill="#404040"><set attributeName="fill" to="#808080" begin="zoomplus.mouseover" end="zoomplus.mouseout"/></use>
    <path d="M-4,0h8M0,-4v8" fill="none" stroke="white" stroke-width="1.5" pointer-events="none"/>
  </g>
  <g id="zoomMin">
    <use xlink:href="#rim" fill="#404040"><set attributeName="fill" to="#808080" begin="zoomminus.mouseover" end="zoomminus.mouseout"/></use>
    <path d="M-4,0h8" fill="none" stroke="white" stroke-width="1.5" pointer-events="none"/>
  </g>
  <g id="arrowUp" transform="translate(30 24)">
    <use xlink:href="#rim"/>
    <path pointer-events="none" fill="none" stroke="white" stroke-width="1.5" d="M0,-3.0v7 M-2.5,-0.5L0,-3.0L2.5,-0.5"/>
  </g>
  <g id="arrowRight" transform="rotate(90) translate(36 -43)">
    <use xlink:href="#rim"/>
    <path pointer-events="none" fill="none" stroke="white" stroke-width="1.5" d="M0,-3.0v7 M-2.5,-0.5L0,-3.0L2.5,-0.5"/>
  </g>
  <g id="arrowDown" transform="rotate(180) translate(-30 -48)">
    <use xlink:href="#rim"/>
    <path pointer-events="none" fill="none" stroke="white" stroke-width="1.5" d="M0,-3.0v7 M-2.5,-0.5L0,-3.0L2.5,-0.5"/>
  </g>
  <g id="arrowLeft" transform="rotate(270) translate(-36 17)">
    <use xlink:href="#rim"/>
    <path pointer-events="none" fill="none" stroke="white" stroke-width="1.5" d="M0,-3.0v7 M-2.5,-0.5L0,-3.0L2.5,-0.5"/>
  </g>
  <g id="resetDef">
    <use xlink:href="#rim2" fill="#404040"><set attributeName="fill" to="#808080" begin="reset.mouseover" end="reset.mouseout"/></use>
  </g>
</defs>
<script type="application/ecmascript" xlink:href="svg.min.js"/>
<svg id="graph" class="graph" data-view-width="583" data-view-height="376" data-section-id="dynsection-0">
<g id="viewport">
<title>mopo/src/reverb_all_pass.cpp</title>
<!-- Node1 -->
<g id="Node000001" class="node">
<title>Node1</title>
<g id="a_Node000001"><a xlink:title=" ">
<polygon fill="#999999" stroke="#666666" points="537.36,-368 435.86,-368 435.86,-336 537.36,-336 537.36,-368"/>
<text xml:space="preserve" text-anchor="start" x="443.86" y="-354.5" font-family="Helvetica,sans-Serif" font-size="10.00">mopo/src/reverb_all</text>
<text xml:space="preserve" text-anchor="middle" x="486.61" y="-342.5" font-family="Helvetica,sans-Serif" font-size="10.00">_pass.cpp</text>
</a>
</g>
</g>
<!-- Node2 -->
<g id="Node000002" class="node">
<title>Node2</title>
<g id="a_Node000002"><a xlink:href="reverb__all__pass_8h.html" target="_top" xlink:title="Filtre all&#45;pass utilisé par le processeur de réverbération.">
<polygon fill="white" stroke="#666666" points="411.86,-300 319.36,-300 319.36,-280 411.86,-280 411.86,-300"/>
<text xml:space="preserve" text-anchor="middle" x="365.61" y="-286.5" font-family="Helvetica,sans-Serif" font-size="10.00">reverb_all_pass.h</text>
</a>
</g>
</g>
<!-- Node1&#45;&gt;Node2 -->
<g id="edge1_Node000001_Node000002" class="edge">
<title>Node1&#45;&gt;Node2</title>
<g id="a_edge1_Node000001_Node000002"><a xlink:title=" ">
<path fill="none" stroke="#63b8ff" d="M455.45,-335.55C436.72,-326.26 413.04,-314.52 394.7,-305.42"/>
<polygon fill="#63b8ff" stroke="#63b8ff" points="396.46,-302.39 385.94,-301.08 393.35,-308.66 396.46,-302.39"/>
</a>
</g>
</g>
<!-- Node5 -->
<g id="Node000005" class="node">
<title>Node5</title>
<g id="a_Node000005"><a xlink:title=" ">
<polygon fill="#e0e0e0" stroke="#999999" points="575.49,-188 519.74,-188 519.74,-168 575.49,-168 575.49,-188"/>
<text xml:space="preserve" text-anchor="middle" x="547.61" y="-174.5" font-family="Helvetica,sans-Serif" font-size="10.00">algorithm</text>
</a>
</g>
</g>
<!-- Node1&#45;&gt;Node5 -->
<g id="edge23_Node000001_Node000005" class="edge">
<title>Node1&#45;&gt;Node5</title>
<g id="a_edge23_Node000001_Node000005"><a xlink:title=" ">
<path fill="none" stroke="#63b8ff" d="M490.11,-335.59C493.55,-321.09 499.21,-298.85 505.61,-280 515.43,-251.14 529.44,-218.77 538.54,-198.63"/>
<polygon fill="#63b8ff" stroke="#63b8ff" points="541.65,-200.24 542.62,-189.69 535.29,-197.33 541.65,-200.24"/>
</a>
</g>
</g>
<!-- Node18 -->
<g id="Node000018" class="node">
<title>Node18</title>
<g id="a_Node000018"><a xlink:title=" ">
<polygon fill="#e0e0e0" stroke="#999999" points="556.74,-300 514.49,-300 514.49,-280 556.74,-280 556.74,-300"/>
<text xml:space="preserve" text-anchor="middle" x="535.61" y="-286.5" font-family="Helvetica,sans-Serif" font-size="10.00">cstdio</text>
</a>
</g>
</g>
<!-- Node1&#45;&gt;Node18 -->
<g id="edge24_Node000001_Node000018" class="edge">
<title>Node1&#45;&gt;Node18</title>
<g id="a_edge24_Node000001_Node000018"><a xlink:title=" ">
<path fill="none" stroke="#63b8ff" d="M499.23,-335.55C505.83,-327.48 513.93,-317.55 520.82,-309.12"/>
<polygon fill="#63b8ff" stroke="#63b8ff" points="523.36,-311.54 526.97,-301.58 517.94,-307.11 523.36,-311.54"/>
</a>
</g>
</g>
<!-- Node3 -->
<g id="Node000003" class="node">
<title>Node3</title>
<g id="a_Node000003"><a xlink:href="memory_8h.html" target="_top" xlink:title="Buffer circulaire thread&#45;safe pour stockage de samples.">
<polygon fill="white" stroke="#666666" points="394.99,-244 336.24,-244 336.24,-224 394.99,-224 394.99,-244"/>
<text xml:space="preserve" text-anchor="middle" x="365.61" y="-230.5" font-family="Helvetica,sans-Serif" font-size="10.00">memory.h</text>
</a>
</g>
</g>
<!-- Node2&#45;&gt;Node3 -->
<g id="edge2_Node000002_Node000003" class="edge">
<title>Node2&#45;&gt;Node3</title>
<g id="a_edge2_Node000002_Node000003"><a xlink:title=" ">
<path fill="none" stroke="#63b8ff" d="M365.61,-279.59C365.61,-273.01 365.61,-263.96 365.61,-255.73"/>
<polygon fill="#63b8ff" stroke="#63b8ff" points="369.11,-255.81 365.61,-245.81 362.11,-255.81 369.11,-255.81"/>
</a>
</g>
</g>
<!-- Node11 -->
<g id="Node000011" class="node">
<title>Node11</title>
<g id="a_Node000011"><a xlink:href="processor_8h.html" target="_top" xlink:title="Définition de la classe Processor et des ports d&#39;entrée/sortie.">
<polygon fill="white" stroke="#666666" points="349.11,-76 282.11,-76 282.11,-56 349.11,-56 349.11,-76"/>
<text xml:space="preserve" text-anchor="middle" x="315.61" y="-62.5" font-family="Helvetica,sans-Serif" font-size="10.00">processor.h</text>
</a>
</g>
</g>
<!-- Node2&#45;&gt;Node11 -->
<g id="edge22_Node000002_Node000011" class="edge">
<title>Node2&#45;&gt;Node11</title>
<g id="a_edge22_Node000002_Node000011"><a xlink:title=" ">
<path fill="none" stroke="#63b8ff" d="M318.98,-284.39C239.04,-273.69 77.68,-239.24 7.61,-132 2.75,-124.56 1.8,-118.72 7.61,-112 41.06,-73.31 193.43,-67.23 270.58,-66.69"/>
<polygon fill="#63b8ff" stroke="#63b8ff" points="270.34,-70.19 280.32,-66.66 270.31,-63.19 270.34,-70.19"/>
</a>
</g>
</g>
<!-- Node4 -->
<g id="Node000004" class="node">
<title>Node4</title>
<g id="a_Node000004"><a xlink:href="common_8h.html" target="_top" xlink:title="Core definitions and constants for the mopo synthesis library.">
<polygon fill="white" stroke="#666666" points="474.49,-20 412.74,-20 412.74,0 474.49,0 474.49,-20"/>
<text xml:space="preserve" text-anchor="middle" x="443.61" y="-6.5" font-family="Helvetica,sans-Serif" font-size="10.00">common.h</text>
</a>
</g>
</g>
<!-- Node3&#45;&gt;Node4 -->
<g id="edge3_Node000003_Node000004" class="edge">
<title>Node3&#45;&gt;Node4</title>
<g id="a_edge3_Node000003_Node000004"><a xlink:title=" ">
<path fill="none" stroke="#63b8ff" d="M371.92,-223.62C387.37,-200.07 426.88,-135.99 441.61,-76 445.17,-61.53 445.59,-44.7 445.16,-31.79"/>
<polygon fill="#63b8ff" stroke="#63b8ff" points="448.66,-31.73 444.62,-21.93 441.68,-32.11 448.66,-31.73"/>
</a>
</g>
</g>
<!-- Node3&#45;&gt;Node5 -->
<g id="edge4_Node000003_Node000005" class="edge">
<title>Node3&#45;&gt;Node5</title>
<g id="a_edge4_Node000003_Node000005"><a xlink:title=" ">
<path fill="none" stroke="#63b8ff" d="M395.26,-224.2C426.12,-215.05 474.6,-200.66 508.56,-190.59"/>
<polygon fill="#63b8ff" stroke="#63b8ff" points="509.44,-193.98 518.03,-187.78 507.44,-187.27 509.44,-193.98"/>
</a>
</g>
</g>
<!-- Node6 -->
<g id="Node000006" class="node">
<title>Node6</title>
<g id="a_Node000006"><a xlink:title=" ">
<polygon fill="#e0e0e0" stroke="#999999" points="501.24,-188 455.99,-188 455.99,-168 501.24,-168 501.24,-188"/>
<text xml:space="preserve" text-anchor="middle" x="478.61" y="-174.5" font-family="Helvetica,sans-Serif" font-size="10.00">atomic</text>
</a>
</g>
</g>
<!-- Node3&#45;&gt;Node6 -->
<g id="edge5_Node000003_Node000006" class="edge">
<title>Node3&#45;&gt;Node6</title>
<g id="a_edge5_Node000003_Node000006"><a xlink:title=" ">
<path fill="none" stroke="#63b8ff" d="M385.3,-223.59C402.77,-215.24 428.57,-202.92 448.61,-193.34"/>
<polygon fill="#63b8ff" stroke="#63b8ff" points="449.9,-196.6 457.41,-189.13 446.88,-190.29 449.9,-196.6"/>
</a>
</g>
</g>
<!-- Node7 -->
<g id="Node000007" class="node">
<title>Node7</title>
<g id="a_Node000007"><a xlink:title=" ">
<polygon fill="#e0e0e0" stroke="#999999" points="60.11,-132 17.11,-132 17.11,-112 60.11,-112 60.11,-132"/>
<text xml:space="preserve" text-anchor="middle" x="38.61" y="-118.5" font-family="Helvetica,sans-Serif" font-size="10.00">cmath</text>
</a>
</g>
</g>
<!-- Node3&#45;&gt;Node7 -->
<g id="edge6_Node000003_Node000007" class="edge">
<title>Node3&#45;&gt;Node7</title>
<g id="a_edge6_Node000003_Node000007"><a xlink:title=" ">
<path fill="none" stroke="#63b8ff" d="M337.45,-223.53C276.95,-203.17 134.87,-155.38 70.87,-133.85"/>
<polygon fill="#63b8ff" stroke="#63b8ff" points="72.25,-130.62 61.65,-130.75 70.02,-137.26 72.25,-130.62"/>
</a>
</g>
</g>
<!-- Node8 -->
<g id="Node000008" class="node">
<title>Node8</title>
<g id="a_Node000008"><a xlink:title=" ">
<polygon fill="#e0e0e0" stroke="#999999" points="108.24,-20 62.99,-20 62.99,0 108.24,0 108.24,-20"/>
<text xml:space="preserve" text-anchor="middle" x="85.61" y="-6.5" font-family="Helvetica,sans-Serif" font-size="10.00">cstring</text>
</a>
</g>
</g>
<!-- Node3&#45;&gt;Node8 -->
<g id="edge7_Node000003_Node000008" class="edge">
<title>Node3&#45;&gt;Node8</title>
<g id="a_edge7_Node000003_Node000008"><a xlink:title=" ">
<path fill="none" stroke="#63b8ff" d="M335.83,-229.34C257.02,-218.97 46.39,-186.54 7.61,-132 -18.5,-95.26 30.89,-50.24 62.36,-26.83"/>
<polygon fill="#63b8ff" stroke="#63b8ff" points="64.15,-29.86 70.22,-21.18 60.06,-24.18 64.15,-29.86"/>
</a>
</g>
</g>
<!-- Node9 -->
<g id="Node000009" class="node">
<title>Node9</title>
<g id="a_Node000009"><a xlink:href="utils_8h.html" target="_top" xlink:title="Utilitaires mathématiques et helpers pour mopo (interpolation, buffers, conversions).">
<polygon fill="white" stroke="#666666" points="325.74,-188 283.49,-188 283.49,-168 325.74,-168 325.74,-188"/>
<text xml:space="preserve" text-anchor="middle" x="304.61" y="-174.5" font-family="Helvetica,sans-Serif" font-size="10.00">utils.h</text>
</a>
</g>
</g>
<!-- Node3&#45;&gt;Node9 -->
<g id="edge8_Node000003_Node000009" class="edge">
<title>Node3&#45;&gt;Node9</title>
<g id="a_edge8_Node000003_Node000009"><a xlink:title=" ">
<path fill="none" stroke="#63b8ff" d="M354.99,-223.59C346.33,-215.93 333.88,-204.91 323.53,-195.75"/>
<polygon fill="#63b8ff" stroke="#63b8ff" points="326.06,-193.31 316.25,-189.3 321.42,-198.55 326.06,-193.31"/>
</a>
</g>
</g>
<!-- Node9&#45;&gt;Node4 -->
<g id="edge9_Node000009_Node000004" class="edge">
<title>Node9&#45;&gt;Node4</title>
<g id="a_edge9_Node000009_Node000004"><a xlink:title=" ">
<path fill="none" stroke="#63b8ff" d="M325.89,-170.43C345.03,-163.57 372.8,-151.1 390.61,-132 417.77,-102.89 432.47,-57.62 439.12,-31.49"/>
<polygon fill="#63b8ff" stroke="#63b8ff" points="442.51,-32.37 441.4,-21.83 435.7,-30.76 442.51,-32.37"/>
</a>
</g>
</g>
<!-- Node9&#45;&gt;Node7 -->
<g id="edge18_Node000009_Node000007" class="edge">
<title>Node9&#45;&gt;Node7</title>
<g id="a_edge18_Node000009_Node000007"><a xlink:title=" ">
<path fill="none" stroke="#63b8ff" d="M283.09,-173.57C243.29,-167.08 155.37,-152.07 71.56,-132.28"/>
<polygon fill="#63b8ff" stroke="#63b8ff" points="72.57,-128.92 62.03,-130 70.95,-135.73 72.57,-128.92"/>
</a>
</g>
</g>
<!-- Node10 -->
<g id="Node000010" class="node">
<title>Node10</title>
<g id="a_Node000010"><a xlink:href="value_8h.html" target="_top" xlink:title="Processeurs Value : constantes ou control&#45;rate values.">
<polygon fill="white" stroke="#666666" points="363.36,-132 315.86,-132 315.86,-112 363.36,-112 363.36,-132"/>
<text xml:space="preserve" text-anchor="middle" x="339.61" y="-118.5" font-family="Helvetica,sans-Serif" font-size="10.00">value.h</text>
</a>
</g>
</g>
<!-- Node9&#45;&gt;Node10 -->
<g id="edge10_Node000009_Node000010" class="edge">
<title>Node9&#45;&gt;Node10</title>
<g id="a_edge10_Node000009_Node000010"><a xlink:title=" ">
<path fill="none" stroke="#63b8ff" d="M310.71,-167.59C315.33,-160.47 321.82,-150.45 327.48,-141.72"/>
<polygon fill="#63b8ff" stroke="#63b8ff" points="330.26,-143.86 332.76,-133.57 324.39,-140.06 330.26,-143.86"/>
</a>
</g>
</g>
<!-- Node13 -->
<g id="Node000013" class="node">
<title>Node13</title>
<g id="a_Node000013"><a xlink:title=" ">
<polygon fill="#e0e0e0" stroke="#999999" points="394.86,-20 350.36,-20 350.36,0 394.86,0 394.86,-20"/>
<text xml:space="preserve" text-anchor="middle" x="372.61" y="-6.5" font-family="Helvetica,sans-Serif" font-size="10.00">cstdlib</text>
</a>
</g>
</g>
<!-- Node9&#45;&gt;Node13 -->
<g id="edge20_Node000009_Node000013" class="edge">
<title>Node9&#45;&gt;Node13</title>
<g id="a_edge20_Node000009_Node000013"><a xlink:title=" ">
<path fill="none" stroke="#63b8ff" d="M326.07,-169.3C342.09,-162.28 362.83,-150.21 372.61,-132 389.71,-100.18 383.84,-56.52 378.14,-31.28"/>
<polygon fill="#63b8ff" stroke="#63b8ff" points="381.57,-30.53 375.75,-21.67 374.77,-32.22 381.57,-30.53"/>
</a>
</g>
</g>
<!-- Node15 -->
<g id="Node000015" class="node">
<title>Node15</title>
<g id="a_Node000015"><a xlink:title=" ">
<polygon fill="#e0e0e0" stroke="#999999" points="168.74,-132 78.49,-132 78.49,-112 168.74,-112 168.74,-132"/>
<text xml:space="preserve" text-anchor="middle" x="123.61" y="-118.5" font-family="Helvetica,sans-Serif" font-size="10.00">xsimd/xsimd.hpp</text>
</a>
</g>
</g>
<!-- Node9&#45;&gt;Node15 -->
<g id="edge17_Node000009_Node000015" class="edge">
<title>Node9&#45;&gt;Node15</title>
<g id="a_edge17_Node000009_Node000015"><a xlink:title=" ">
<path fill="none" stroke="#63b8ff" d="M283.14,-170.59C254.46,-162.04 203,-146.68 166.28,-135.73"/>
<polygon fill="#63b8ff" stroke="#63b8ff" points="167.43,-132.42 156.85,-132.92 165.43,-139.13 167.43,-132.42"/>
</a>
</g>
</g>
<!-- Node16 -->
<g id="Node000016" class="node">
<title>Node16</title>
<g id="a_Node000016"><a xlink:title=" ">
<polygon fill="#e0e0e0" stroke="#999999" points="224.11,-132 187.11,-132 187.11,-112 224.11,-112 224.11,-132"/>
<text xml:space="preserve" text-anchor="middle" x="205.61" y="-118.5" font-family="Helvetica,sans-Serif" font-size="10.00">span</text>
</a>
</g>
</g>
<!-- Node9&#45;&gt;Node16 -->
<g id="edge19_Node000009_Node000016" class="edge">
<title>Node9&#45;&gt;Node16</title>
<g id="a_edge19_Node000009_Node000016"><a xlink:title=" ">
<path fill="none" stroke="#63b8ff" d="M287.37,-167.59C272.27,-159.36 250.09,-147.26 232.63,-137.74"/>
<polygon fill="#63b8ff" stroke="#63b8ff" points="234.78,-134.92 224.32,-133.2 231.43,-141.07 234.78,-134.92"/>
</a>
</g>
</g>
<!-- Node17 -->
<g id="Node000017" class="node">
<title>Node17</title>
<g id="a_Node000017"><a xlink:title=" ">
<polygon fill="#e0e0e0" stroke="#999999" points="297.49,-132 241.74,-132 241.74,-112 297.49,-112 297.49,-132"/>
<text xml:space="preserve" text-anchor="middle" x="269.61" y="-118.5" font-family="Helvetica,sans-Serif" font-size="10.00">concepts</text>
</a>
</g>
</g>
<!-- Node9&#45;&gt;Node17 -->
<g id="edge21_Node000009_Node000017" class="edge">
<title>Node9&#45;&gt;Node17</title>
<g id="a_edge21_Node000009_Node000017"><a xlink:title=" ">
<path fill="none" stroke="#63b8ff" d="M298.52,-167.59C293.9,-160.47 287.41,-150.45 281.75,-141.72"/>
<polygon fill="#63b8ff" stroke="#63b8ff" points="284.84,-140.06 276.46,-133.57 278.97,-143.86 284.84,-140.06"/>
</a>
</g>
</g>
<!-- Node10&#45;&gt;Node11 -->
<g id="edge11_Node000010_Node000011" class="edge">
<title>Node10&#45;&gt;Node11</title>
<g id="a_edge11_Node000010_Node000011"><a xlink:title=" ">
<path fill="none" stroke="#63b8ff" d="M335.43,-111.59C332.37,-104.7 328.1,-95.1 324.31,-86.57"/>
<polygon fill="#63b8ff" stroke="#63b8ff" points="327.62,-85.4 320.36,-77.68 321.23,-88.24 327.62,-85.4"/>
</a>
</g>
</g>
<!-- Node11&#45;&gt;Node4 -->
<g id="edge12_Node000011_Node000004" class="edge">
<title>Node11&#45;&gt;Node4</title>
<g id="a_edge12_Node000011_Node000004"><a xlink:title=" ">
<path fill="none" stroke="#63b8ff" d="M337.91,-55.59C357.98,-47.13 387.73,-34.58 410.56,-24.94"/>
<polygon fill="#63b8ff" stroke="#63b8ff" points="411.9,-28.18 419.75,-21.07 409.18,-21.73 411.9,-28.18"/>
</a>
</g>
</g>
<!-- Node11&#45;&gt;Node8 -->
<g id="edge13_Node000011_Node000008" class="edge">
<title>Node11&#45;&gt;Node8</title>
<g id="a_edge13_Node000011_Node000008"><a xlink:title=" ">
<path fill="none" stroke="#63b8ff" d="M281.68,-57.03C238.18,-46.82 163.21,-29.22 119.66,-18.99"/>
<polygon fill="#63b8ff" stroke="#63b8ff" points="120.53,-15.6 110,-16.72 118.93,-22.42 120.53,-15.6"/>
</a>
</g>
</g>
<!-- Node12 -->
<g id="Node000012" class="node">
<title>Node12</title>
<g id="a_Node000012"><a xlink:title=" ">
<polygon fill="#e0e0e0" stroke="#999999" points="280.11,-20 237.11,-20 237.11,0 280.11,0 280.11,-20"/>
<text xml:space="preserve" text-anchor="middle" x="258.61" y="-6.5" font-family="Helvetica,sans-Serif" font-size="10.00">vector</text>
</a>
</g>
</g>
<!-- Node11&#45;&gt;Node12 -->
<g id="edge14_Node000011_Node000012" class="edge">
<title>Node11&#45;&gt;Node12</title>
<g id="a_edge14_Node000011_Node000012"><a xlink:title=" ">
<path fill="none" stroke="#63b8ff" d="M305.69,-55.59C297.68,-48.01 286.2,-37.13 276.58,-28.02"/>
<polygon fill="#63b8ff" stroke="#63b8ff" points="279.2,-25.68 269.53,-21.34 274.38,-30.76 279.2,-25.68"/>
</a>
</g>
</g>
<!-- Node11&#45;&gt;Node13 -->
<g id="edge15_Node000011_Node000013" class="edge">
<title>Node11&#45;&gt;Node13</title>
<g id="a_edge15_Node000011_Node000013"><a xlink:title=" ">
<path fill="none" stroke="#63b8ff" d="M325.54,-55.59C333.55,-48.01 345.03,-37.13 354.65,-28.02"/>
<polygon fill="#63b8ff" stroke="#63b8ff" points="356.85,-30.76 361.7,-21.34 352.03,-25.68 356.85,-30.76"/>
</a>
</g>
</g>
<!-- Node14 -->
<g id="Node000014" class="node">
<title>Node14</title>
<g id="a_Node000014"><a xlink:title=" ">
<polygon fill="#e0e0e0" stroke="#999999" points="332.61,-20 298.61,-20 298.61,0 332.61,0 332.61,-20"/>
<text xml:space="preserve" text-anchor="middle" x="315.61" y="-6.5" font-family="Helvetica,sans-Serif" font-size="10.00">new</text>
</a>
</g>
</g>
<!-- Node11&#45;&gt;Node14 -->
<g id="edge16_Node000011_Node000014" class="edge">
<title>Node11&#45;&gt;Node14</title>
<g id="a_edge16_Node000011_Node000014"><a xlink:title=" ">
<path fill="none" stroke="#63b8ff" d="M315.61,-55.59C315.61,-49.01 315.61,-39.96 315.61,-31.73"/>
<polygon fill="#63b8ff" stroke="#63b8ff" points="319.11,-31.81 315.61,-21.81 312.11,-31.81 319.11,-31.81"/>
</a>
</g>
</g>
</g>
</svg>

<g id="navigator" transform="translate(0 0)" fill="#404254">
  <rect fill="#f2f5e9" fill-opacity="0.5" stroke="#606060" stroke-width=".5" x="0" y="0" width="60" height="60"/>
  <use id="zoomplus" xlink:href="#zoomPlus" x="17" y="9" data-zoom="in"/>
  <use id="zoomminus" xlink:href="#zoomMin" x="42" y="9" data-zoom="out"/>
  <use id="reset" xlink:href="#resetDef" x="30" y="36" data-reset="true"/>
  <use id="arrowup" xlink:href="#arrowUp" x="0" y="0" data-pan-x="0" data-pan-y="-1"/>
  <use id="arrowright" xlink:href="#arrowRight" x="0" y="0" data-pan-x="1" data-pan-y="0"/>
  <use id="arrowdown" xlink:href="#arrowDown" x="0" y="0" data-pan-x="0" data-pan-y="1"/>
  <use id="arrowleft" xlink:href="#arrowLeft" x="0" y="0" data-pan-x="-1" data-pan-y="0"/>
</g>
<svg viewBox="0 0 15 15" width="100%" height="30px" preserveAspectRatio="xMaxYMin meet">
 <g id="arrow_out" transform="scale(0.3 0.3)">
  <a xlink:href="reverb__all__pass_8cpp__incl_org.svg" target="_base">
   <rect id="button" ry="5" rx="5" y="6" x="6" height="38" width="38"
        fill="#f2f5e9" fill-opacity="0.5" stroke="#606060" stroke-width="1.0"/>
   <path id="arrow"
     d="M 11.500037,31.436501 C 11.940474,20.09759 22.043105,11.32322 32.158766,21.979434 L 37.068811,17.246167 C 37.068811,17.246167 37.088388,32 37.088388,32 L 22.160133,31.978069 C 22.160133,31.978069 26.997745,27.140456 26.997745,27.140456 C 18.528582,18.264221 13.291696,25.230495 11.500037,31.436501 z"
     style="fill:#404040;"/>
  </a>
 </g>
</svg>

<style type='text/css'>
<![CDATA[
[data-mouse-over-selected='false'] { opacity: 0.7; }
[data-mouse-over-selected='true']  { opacity: 1.0; }
]]>
</style>
</svg>
