<?xml version="1.0" encoding="UTF-8" standalone="no"?>
<!DOCTYPE svg PUBLIC "-//W3C//DTD SVG 1.1//EN"
 "http://www.w3.org/Graphics/SVG/1.1/DTD/svg11.dtd">
<!-- Generated by graphviz version 16.1.0 (20260904.0139)
 -->
<!-- Title: src/common/startup_trace.h Pages: 1 -->
<svg width="652pt" height="108pt"
 viewBox="0.00 0.00 652.00 108.00" xmlns="http://www.w3.org/2000/svg" xmlns:xlink="http://www.w3.org/1999/xlink">
<g id="graph0" class="graph" transform="scale(1 1) rotate(0) translate(4 104)">
<title>src/common/startup_trace.h</title>
<!-- Node1 -->
<g id="Node000001" class="node">
<title>Node1</title>
<g id="a_Node000001"><a xlink:title=" ">
<polygon fill="#999999" stroke="#666666" points="394.5,-100 291.5,-100 291.5,-68 394.5,-68 394.5,-100"/>
<text xml:space="preserve" text-anchor="start" x="299.5" y="-86.5" font-family="Helvetica,sans-Serif" font-size="10.00">src/common/startup</text>
<text xml:space="preserve" text-anchor="middle" x="343" y="-74.5" font-family="Helvetica,sans-Serif" font-size="10.00">_trace.h</text>
</a>
</g>
</g>
<!-- Node2 -->
<g id="Node000002" class="node">
<title>Node2</title>
<g id="a_Node000002"><a xlink:href="synth__base_8cpp.html" target="_top" xlink:title=" ">
<polygon fill="white" stroke="#666666" points="142,-26 0,-26 0,-6 142,-6 142,-26"/>
<text xml:space="preserve" text-anchor="middle" x="71" y="-12.5" font-family="Helvetica,sans-Serif" font-size="10.00">src/common/synth_base.cpp</text>
</a>
</g>
</g>
<!-- Node1&#45;&gt;Node2 -->
<g id="edge1_Node000001_Node000002" class="edge">
<title>Node1&#45;&gt;Node2</title>
<g id="a_edge1_Node000001_Node000002"><a xlink:title=" ">
<path fill="none" stroke="#63b8ff" d="M280.31,-67.79C227.74,-55.03 154.31,-37.22 109.85,-26.43"/>
<polygon fill="#63b8ff" stroke="#63b8ff" points="279.18,-71.12 289.73,-70.07 280.84,-64.31 279.18,-71.12"/>
</a>
</g>
</g>
<!-- Node3 -->
<g id="Node000003" class="node">
<title>Node3</title>
<g id="a_Node000003"><a xlink:href="synth__gui__interface_8cpp.html" target="_top" xlink:title=" ">
<polygon fill="white" stroke="#666666" points="275.5,-32 160.5,-32 160.5,0 275.5,0 275.5,-32"/>
<text xml:space="preserve" text-anchor="start" x="168.5" y="-18.5" font-family="Helvetica,sans-Serif" font-size="10.00">src/common/synth_gui</text>
<text xml:space="preserve" text-anchor="middle" x="218" y="-6.5" font-family="Helvetica,sans-Serif" font-size="10.00">_interface.cpp</text>
</a>
</g>
</g>
<!-- Node1&#45;&gt;Node3 -->
<g id="edge2_Node000001_Node000003" class="edge">
<title>Node1&#45;&gt;Node3</title>
<g id="a_edge2_Node000001_Node000003"><a xlink:title=" ">
<path fill="none" stroke="#63b8ff" d="M303.61,-62.2C285.31,-52.54 263.94,-41.26 247.12,-32.38"/>
<polygon fill="#63b8ff" stroke="#63b8ff" points="301.88,-65.25 312.35,-66.82 305.15,-59.05 301.88,-65.25"/>
</a>
</g>
</g>
<!-- Node4 -->
<g id="Node000004" class="node">
<title>Node4</title>
<g id="a_Node000004"><a xlink:href="plugin_2helmBoy__editor_8cpp.html" target="_top" xlink:title=" ">
<polygon fill="white" stroke="#666666" points="392.62,-32 293.38,-32 293.38,0 392.62,0 392.62,-32"/>
<text xml:space="preserve" text-anchor="start" x="301.38" y="-18.5" font-family="Helvetica,sans-Serif" font-size="10.00">src/plugin/helmBoy</text>
<text xml:space="preserve" text-anchor="middle" x="343" y="-6.5" font-family="Helvetica,sans-Serif" font-size="10.00">_editor.cpp</text>
</a>
</g>
</g>
<!-- Node1&#45;&gt;Node4 -->
<g id="edge3_Node000001_Node000004" class="edge">
<title>Node1&#45;&gt;Node4</title>
<g id="a_edge3_Node000001_Node000004"><a xlink:title=" ">
<path fill="none" stroke="#63b8ff" d="M343,-56.31C343,-48.12 343,-39.38 343,-32.22"/>
<polygon fill="#63b8ff" stroke="#63b8ff" points="339.5,-56.18 343,-66.18 346.5,-56.18 339.5,-56.18"/>
</a>
</g>
</g>
<!-- Node5 -->
<g id="Node000005" class="node">
<title>Node5</title>
<g id="a_Node000005"><a xlink:href="helmBoy__plugin_8cpp.html" target="_top" xlink:title=" ">
<polygon fill="white" stroke="#666666" points="509.62,-32 410.38,-32 410.38,0 509.62,0 509.62,-32"/>
<text xml:space="preserve" text-anchor="start" x="418.38" y="-18.5" font-family="Helvetica,sans-Serif" font-size="10.00">src/plugin/helmBoy</text>
<text xml:space="preserve" text-anchor="middle" x="460" y="-6.5" font-family="Helvetica,sans-Serif" font-size="10.00">_plugin.cpp</text>
</a>
</g>
</g>
<!-- Node1&#45;&gt;Node5 -->
<g id="edge4_Node000001_Node000005" class="edge">
<title>Node1&#45;&gt;Node5</title>
<g id="a_edge4_Node000001_Node000005"><a xlink:title=" ">
<path fill="none" stroke="#63b8ff" d="M380.11,-62.07C397.18,-52.44 417.08,-41.21 432.74,-32.38"/>
<polygon fill="#63b8ff" stroke="#63b8ff" points="378.74,-58.82 371.75,-66.78 382.18,-64.92 378.74,-58.82"/>
</a>
</g>
</g>
<!-- Node6 -->
<g id="Node000006" class="node">
<title>Node6</title>
<g id="a_Node000006"><a xlink:href="helmBoy__voice__handler_8cpp.html" target="_top" xlink:title="Voice handler implementation: allocation, stealing and voice I/O.">
<polygon fill="white" stroke="#666666" points="643.88,-32 528.12,-32 528.12,0 643.88,0 643.88,-32"/>
<text xml:space="preserve" text-anchor="start" x="536.12" y="-18.5" font-family="Helvetica,sans-Serif" font-size="10.00">src/synthesis/helmBoy</text>
<text xml:space="preserve" text-anchor="middle" x="586" y="-6.5" font-family="Helvetica,sans-Serif" font-size="10.00">_voice_handler.cpp</text>
</a>
</g>
</g>
<!-- Node1&#45;&gt;Node6 -->
<g id="edge5_Node000001_Node000006" class="edge">
<title>Node1&#45;&gt;Node6</title>
<g id="a_edge5_Node000001_Node000006"><a xlink:title=" ">
<path fill="none" stroke="#63b8ff" d="M405.8,-65.94C443.92,-55.59 492.17,-42.48 529.15,-32.44"/>
<polygon fill="#63b8ff" stroke="#63b8ff" points="405.03,-62.53 396.29,-68.53 406.86,-69.28 405.03,-62.53"/>
</a>
</g>
</g>
</g>
</svg>
