<?xml version="1.0" encoding="UTF-8" standalone="no"?>
<!DOCTYPE svg PUBLIC "-//W3C//DTD SVG 1.1//EN"
 "http://www.w3.org/Graphics/SVG/1.1/DTD/svg11.dtd">
<!-- Generated by graphviz version 16.1.0 (20260904.0139)
 -->
<!-- Title: mopo/src/step_generator.cpp Pages: 1 -->
<!--zoomable 252 -->

<svg id="main" version="1.1" xmlns="http://www.w3.org/2000/svg" xmlns:xlink="http://www.w3.org/1999/xlink" xml:space="preserve">

<style type="text/css"><![CDATA[
.node, .edge {opacity: 0.7;}
.node.selected, .edge.selected {opacity: 1;}
.edge:hover path { stroke: red; }
.edge:hover polygon { stroke: red; fill: red; }
]]></style>

<defs>
  <circle id="rim" cx="0" cy="0" r="7"/>
  <circle id="rim2" cx="0" cy="0" r="3.5"/>
  <g id="zoomPlus">
    <use xlink:href="#rim" fill="#404040"><set attributeName="fill" to="#808080" begin="zoomplus.mouseover" end="zoomplus.mouseout"/></use>
    <path d="M-4,0h8M0,-4v8" fill="none" stroke="white" stroke-width="1.5" pointer-events="none"/>
  </g>
  <g id="zoomMin">
    <use xlink:href="#rim" fill="#404040"><set attributeName="fill" to="#808080" begin="zoomminus.mouseover" end="zoomminus.mouseout"/></use>
    <path d="M-4,0h8" fill="none" stroke="white" stroke-width="1.5" pointer-events="none"/>
  </g>
  <g id="arrowUp" transform="translate(30 24)">
    <use xlink:href="#rim"/>
    <path pointer-events="none" fill="none" stroke="white" stroke-width="1.5" d="M0,-3.0v7 M-2.5,-0.5L0,-3.0L2.5,-0.5"/>
  </g>
  <g id="arrowRight" transform="rotate(90) translate(36 -43)">
    <use xlink:href="#rim"/>
    <path pointer-events="none" fill="none" stroke="white" stroke-width="1.5" d="M0,-3.0v7 M-2.5,-0.5L0,-3.0L2.5,-0.5"/>
  </g>
  <g id="arrowDown" transform="rotate(180) translate(-30 -48)">
    <use xlink:href="#rim"/>
    <path pointer-events="none" fill="none" stroke="white" stroke-width="1.5" d="M0,-3.0v7 M-2.5,-0.5L0,-3.0L2.5,-0.5"/>
  </g>
  <g id="arrowLeft" transform="rotate(270) translate(-36 17)">
    <use xlink:href="#rim"/>
    <path pointer-events="none" fill="none" stroke="white" stroke-width="1.5" d="M0,-3.0v7 M-2.5,-0.5L0,-3.0L2.5,-0.5"/>
  </g>
  <g id="resetDef">
    <use xlink:href="#rim2" fill="#404040"><set attributeName="fill" to="#808080" begin="reset.mouseover" end="reset.mouseout"/></use>
  </g>
</defs>
<script type="application/ecmascript" xlink:href="svg.min.js"/>
<svg id="graph" class="graph" data-view-width="578" data-view-height="252" data-section-id="dynsection-0">
<g id="viewport">
<title>mopo/src/step_generator.cpp</title>
<!-- Node1 -->
<g id="Node000001" class="node">
<title>Node1</title>
<g id="a_Node000001"><a xlink:title="Step/sequence generator implementation.">
<polygon fill="#999999" stroke="#666666" points="406.88,-244 264.12,-244 264.12,-224 406.88,-224 406.88,-244"/>
<text xml:space="preserve" text-anchor="middle" x="335.5" y="-230.5" font-family="Helvetica,sans-Serif" font-size="10.00">mopo/src/step_generator.cpp</text>
</a>
</g>
</g>
<!-- Node2 -->
<g id="Node000002" class="node">
<title>Node2</title>
<g id="a_Node000002"><a xlink:href="step__generator_8h.html" target="_top" xlink:title="Générateur de pas (step sequencer) pour produire des valeurs séquentielles.">
<polygon fill="white" stroke="#666666" points="230.88,-188 142.12,-188 142.12,-168 230.88,-168 230.88,-188"/>
<text xml:space="preserve" text-anchor="middle" x="186.5" y="-174.5" font-family="Helvetica,sans-Serif" font-size="10.00">step_generator.h</text>
</a>
</g>
</g>
<!-- Node1&#45;&gt;Node2 -->
<g id="edge1_Node000001_Node000002" class="edge">
<title>Node1&#45;&gt;Node2</title>
<g id="a_edge1_Node000001_Node000002"><a xlink:title=" ">
<path fill="none" stroke="#63b8ff" d="M309.55,-223.59C285.66,-214.94 249.97,-202 223.17,-192.29"/>
<polygon fill="#63b8ff" stroke="#63b8ff" points="224.67,-189.11 214.08,-189 222.29,-195.69 224.67,-189.11"/>
</a>
</g>
</g>
<!-- Node9 -->
<g id="Node000009" class="node">
<title>Node9</title>
<g id="a_Node000009"><a xlink:href="utils_8h.html" target="_top" xlink:title="Utilitaires mathématiques et helpers pour mopo (interpolation, buffers, conversions).">
<polygon fill="white" stroke="#666666" points="356.62,-188 314.38,-188 314.38,-168 356.62,-168 356.62,-188"/>
<text xml:space="preserve" text-anchor="middle" x="335.5" y="-174.5" font-family="Helvetica,sans-Serif" font-size="10.00">utils.h</text>
</a>
</g>
</g>
<!-- Node1&#45;&gt;Node9 -->
<g id="edge8_Node000001_Node000009" class="edge">
<title>Node1&#45;&gt;Node9</title>
<g id="a_edge8_Node000001_Node000009"><a xlink:title=" ">
<path fill="none" stroke="#63b8ff" d="M335.5,-223.59C335.5,-217.01 335.5,-207.96 335.5,-199.73"/>
<polygon fill="#63b8ff" stroke="#63b8ff" points="339,-199.81 335.5,-189.81 332,-199.81 339,-199.81"/>
</a>
</g>
</g>
<!-- Node12 -->
<g id="Node000012" class="node">
<title>Node12</title>
<g id="a_Node000012"><a xlink:title=" ">
<polygon fill="#e0e0e0" stroke="#999999" points="570,-132 527,-132 527,-112 570,-112 570,-132"/>
<text xml:space="preserve" text-anchor="middle" x="548.5" y="-118.5" font-family="Helvetica,sans-Serif" font-size="10.00">cmath</text>
</a>
</g>
</g>
<!-- Node1&#45;&gt;Node12 -->
<g id="edge17_Node000001_Node000012" class="edge">
<title>Node1&#45;&gt;Node12</title>
<g id="a_edge17_Node000001_Node000012"><a xlink:title=" ">
<path fill="none" stroke="#63b8ff" d="M353.66,-223.62C390.84,-204.42 475.84,-160.52 520.27,-137.58"/>
<polygon fill="#63b8ff" stroke="#63b8ff" points="521.76,-140.75 529.04,-133.05 518.55,-134.53 521.76,-140.75"/>
</a>
</g>
</g>
<!-- Node3 -->
<g id="Node000003" class="node">
<title>Node3</title>
<g id="a_Node000003"><a xlink:href="processor_8h.html" target="_top" xlink:title="Définition de la classe Processor et des ports d&#39;entrée/sortie.">
<polygon fill="white" stroke="#666666" points="170,-76 103,-76 103,-56 170,-56 170,-76"/>
<text xml:space="preserve" text-anchor="middle" x="136.5" y="-62.5" font-family="Helvetica,sans-Serif" font-size="10.00">processor.h</text>
</a>
</g>
</g>
<!-- Node2&#45;&gt;Node3 -->
<g id="edge2_Node000002_Node000003" class="edge">
<title>Node2&#45;&gt;Node3</title>
<g id="a_edge2_Node000002_Node000003"><a xlink:title=" ">
<path fill="none" stroke="#63b8ff" d="M171.7,-167.53C160.65,-159.54 146.32,-147.01 139.5,-132 133.19,-118.13 132.7,-100.83 133.65,-87.56"/>
<polygon fill="#63b8ff" stroke="#63b8ff" points="137.1,-88.15 134.69,-77.83 130.14,-87.4 137.1,-88.15"/>
</a>
</g>
</g>
<!-- Node4 -->
<g id="Node000004" class="node">
<title>Node4</title>
<g id="a_Node000004"><a xlink:href="common_8h.html" target="_top" xlink:title="Core definitions and constants for the mopo synthesis library.">
<polygon fill="white" stroke="#666666" points="239.38,-20 177.62,-20 177.62,0 239.38,0 239.38,-20"/>
<text xml:space="preserve" text-anchor="middle" x="208.5" y="-6.5" font-family="Helvetica,sans-Serif" font-size="10.00">common.h</text>
</a>
</g>
</g>
<!-- Node3&#45;&gt;Node4 -->
<g id="edge3_Node000003_Node000004" class="edge">
<title>Node3&#45;&gt;Node4</title>
<g id="a_edge3_Node000003_Node000004"><a xlink:title=" ">
<path fill="none" stroke="#63b8ff" d="M149.04,-55.59C159.47,-47.77 174.55,-36.46 186.91,-27.19"/>
<polygon fill="#63b8ff" stroke="#63b8ff" points="188.99,-30.01 194.89,-21.21 184.79,-24.41 188.99,-30.01"/>
</a>
</g>
</g>
<!-- Node5 -->
<g id="Node000005" class="node">
<title>Node5</title>
<g id="a_Node000005"><a xlink:title=" ">
<polygon fill="#e0e0e0" stroke="#999999" points="159.12,-20 113.88,-20 113.88,0 159.12,0 159.12,-20"/>
<text xml:space="preserve" text-anchor="middle" x="136.5" y="-6.5" font-family="Helvetica,sans-Serif" font-size="10.00">cstring</text>
</a>
</g>
</g>
<!-- Node3&#45;&gt;Node5 -->
<g id="edge4_Node000003_Node000005" class="edge">
<title>Node3&#45;&gt;Node5</title>
<g id="a_edge4_Node000003_Node000005"><a xlink:title=" ">
<path fill="none" stroke="#63b8ff" d="M136.5,-55.59C136.5,-49.01 136.5,-39.96 136.5,-31.73"/>
<polygon fill="#63b8ff" stroke="#63b8ff" points="140,-31.81 136.5,-21.81 133,-31.81 140,-31.81"/>
</a>
</g>
</g>
<!-- Node6 -->
<g id="Node000006" class="node">
<title>Node6</title>
<g id="a_Node000006"><a xlink:title=" ">
<polygon fill="#e0e0e0" stroke="#999999" points="43,-20 0,-20 0,0 43,0 43,-20"/>
<text xml:space="preserve" text-anchor="middle" x="21.5" y="-6.5" font-family="Helvetica,sans-Serif" font-size="10.00">vector</text>
</a>
</g>
</g>
<!-- Node3&#45;&gt;Node6 -->
<g id="edge5_Node000003_Node000006" class="edge">
<title>Node3&#45;&gt;Node6</title>
<g id="a_edge5_Node000003_Node000006"><a xlink:title=" ">
<path fill="none" stroke="#63b8ff" d="M116.47,-55.59C98.69,-47.24 72.43,-34.92 52.04,-25.34"/>
<polygon fill="#63b8ff" stroke="#63b8ff" points="53.6,-22.21 43.06,-21.12 50.62,-28.54 53.6,-22.21"/>
</a>
</g>
</g>
<!-- Node7 -->
<g id="Node000007" class="node">
<title>Node7</title>
<g id="a_Node000007"><a xlink:title=" ">
<polygon fill="#e0e0e0" stroke="#999999" points="301.75,-20 257.25,-20 257.25,0 301.75,0 301.75,-20"/>
<text xml:space="preserve" text-anchor="middle" x="279.5" y="-6.5" font-family="Helvetica,sans-Serif" font-size="10.00">cstdlib</text>
</a>
</g>
</g>
<!-- Node3&#45;&gt;Node7 -->
<g id="edge6_Node000003_Node000007" class="edge">
<title>Node3&#45;&gt;Node7</title>
<g id="a_edge6_Node000003_Node000007"><a xlink:title=" ">
<path fill="none" stroke="#63b8ff" d="M161.41,-55.59C184.93,-46.71 220.38,-33.32 246.3,-23.54"/>
<polygon fill="#63b8ff" stroke="#63b8ff" points="247.23,-26.93 255.35,-20.12 244.75,-20.38 247.23,-26.93"/>
</a>
</g>
</g>
<!-- Node8 -->
<g id="Node000008" class="node">
<title>Node8</title>
<g id="a_Node000008"><a xlink:title=" ">
<polygon fill="#e0e0e0" stroke="#999999" points="95.5,-20 61.5,-20 61.5,0 95.5,0 95.5,-20"/>
<text xml:space="preserve" text-anchor="middle" x="78.5" y="-6.5" font-family="Helvetica,sans-Serif" font-size="10.00">new</text>
</a>
</g>
</g>
<!-- Node3&#45;&gt;Node8 -->
<g id="edge7_Node000003_Node000008" class="edge">
<title>Node3&#45;&gt;Node8</title>
<g id="a_edge7_Node000003_Node000008"><a xlink:title=" ">
<path fill="none" stroke="#63b8ff" d="M126.4,-55.59C118.25,-48.01 106.57,-37.13 96.78,-28.02"/>
<polygon fill="#63b8ff" stroke="#63b8ff" points="99.3,-25.58 89.59,-21.33 94.53,-30.71 99.3,-25.58"/>
</a>
</g>
</g>
<!-- Node9&#45;&gt;Node4 -->
<g id="edge9_Node000009_Node000004" class="edge">
<title>Node9&#45;&gt;Node4</title>
<g id="a_edge9_Node000009_Node000004"><a xlink:title=" ">
<path fill="none" stroke="#63b8ff" d="M317.12,-167.56C302.99,-159.59 283.7,-147.07 270.5,-132 243.51,-101.19 224.63,-56.56 215.26,-30.99"/>
<polygon fill="#63b8ff" stroke="#63b8ff" points="218.66,-30.11 212.03,-21.84 212.05,-32.44 218.66,-30.11"/>
</a>
</g>
</g>
<!-- Node9&#45;&gt;Node7 -->
<g id="edge15_Node000009_Node000007" class="edge">
<title>Node9&#45;&gt;Node7</title>
<g id="a_edge15_Node000009_Node000007"><a xlink:title=" ">
<path fill="none" stroke="#63b8ff" d="M317.63,-167.64C305,-159.94 289.03,-147.74 281.5,-132 265.98,-99.57 270.31,-56.44 274.89,-31.4"/>
<polygon fill="#63b8ff" stroke="#63b8ff" points="278.27,-32.38 276.84,-21.88 271.41,-30.98 278.27,-32.38"/>
</a>
</g>
</g>
<!-- Node10 -->
<g id="Node000010" class="node">
<title>Node10</title>
<g id="a_Node000010"><a xlink:href="value_8h.html" target="_top" xlink:title="Processeurs Value : constantes ou control&#45;rate values.">
<polygon fill="white" stroke="#666666" points="196.25,-132 148.75,-132 148.75,-112 196.25,-112 196.25,-132"/>
<text xml:space="preserve" text-anchor="middle" x="172.5" y="-118.5" font-family="Helvetica,sans-Serif" font-size="10.00">value.h</text>
</a>
</g>
</g>
<!-- Node9&#45;&gt;Node10 -->
<g id="edge10_Node000009_Node000010" class="edge">
<title>Node9&#45;&gt;Node10</title>
<g id="a_edge10_Node000009_Node000010"><a xlink:title=" ">
<path fill="none" stroke="#63b8ff" d="M314.19,-169.94C287.1,-160.96 239.95,-145.34 207.53,-134.61"/>
<polygon fill="#63b8ff" stroke="#63b8ff" points="208.77,-131.33 198.17,-131.5 206.56,-137.97 208.77,-131.33"/>
</a>
</g>
</g>
<!-- Node11 -->
<g id="Node000011" class="node">
<title>Node11</title>
<g id="a_Node000011"><a xlink:title=" ">
<polygon fill="#e0e0e0" stroke="#999999" points="380.62,-132 290.38,-132 290.38,-112 380.62,-112 380.62,-132"/>
<text xml:space="preserve" text-anchor="middle" x="335.5" y="-118.5" font-family="Helvetica,sans-Serif" font-size="10.00">xsimd/xsimd.hpp</text>
</a>
</g>
</g>
<!-- Node9&#45;&gt;Node11 -->
<g id="edge12_Node000009_Node000011" class="edge">
<title>Node9&#45;&gt;Node11</title>
<g id="a_edge12_Node000009_Node000011"><a xlink:title=" ">
<path fill="none" stroke="#63b8ff" d="M335.5,-167.59C335.5,-161.01 335.5,-151.96 335.5,-143.73"/>
<polygon fill="#63b8ff" stroke="#63b8ff" points="339,-143.81 335.5,-133.81 332,-143.81 339,-143.81"/>
</a>
</g>
</g>
<!-- Node9&#45;&gt;Node12 -->
<g id="edge13_Node000009_Node000012" class="edge">
<title>Node9&#45;&gt;Node12</title>
<g id="a_edge13_Node000009_Node000012"><a xlink:title=" ">
<path fill="none" stroke="#63b8ff" d="M357,-172.08C389.42,-164.59 452.97,-149.6 515.71,-132.67"/>
<polygon fill="#63b8ff" stroke="#63b8ff" points="516.39,-136.11 525.12,-130.11 514.55,-129.36 516.39,-136.11"/>
</a>
</g>
</g>
<!-- Node13 -->
<g id="Node000013" class="node">
<title>Node13</title>
<g id="a_Node000013"><a xlink:title=" ">
<polygon fill="#e0e0e0" stroke="#999999" points="436,-132 399,-132 399,-112 436,-112 436,-132"/>
<text xml:space="preserve" text-anchor="middle" x="417.5" y="-118.5" font-family="Helvetica,sans-Serif" font-size="10.00">span</text>
</a>
</g>
</g>
<!-- Node9&#45;&gt;Node13 -->
<g id="edge14_Node000009_Node000013" class="edge">
<title>Node9&#45;&gt;Node13</title>
<g id="a_edge14_Node000009_Node000013"><a xlink:title=" ">
<path fill="none" stroke="#63b8ff" d="M349.78,-167.59C361.94,-159.59 379.64,-147.93 393.9,-138.54"/>
<polygon fill="#63b8ff" stroke="#63b8ff" points="395.41,-141.73 401.84,-133.31 391.56,-135.89 395.41,-141.73"/>
</a>
</g>
</g>
<!-- Node14 -->
<g id="Node000014" class="node">
<title>Node14</title>
<g id="a_Node000014"><a xlink:title=" ">
<polygon fill="#e0e0e0" stroke="#999999" points="509.38,-132 453.62,-132 453.62,-112 509.38,-112 509.38,-132"/>
<text xml:space="preserve" text-anchor="middle" x="481.5" y="-118.5" font-family="Helvetica,sans-Serif" font-size="10.00">concepts</text>
</a>
</g>
</g>
<!-- Node9&#45;&gt;Node14 -->
<g id="edge16_Node000009_Node000014" class="edge">
<title>Node9&#45;&gt;Node14</title>
<g id="a_edge16_Node000009_Node000014"><a xlink:title=" ">
<path fill="none" stroke="#63b8ff" d="M357.04,-169.03C380.29,-160.43 417.71,-146.59 445.45,-136.33"/>
<polygon fill="#63b8ff" stroke="#63b8ff" points="446.35,-139.73 454.51,-132.98 443.92,-133.17 446.35,-139.73"/>
</a>
</g>
</g>
<!-- Node10&#45;&gt;Node3 -->
<g id="edge11_Node000010_Node000003" class="edge">
<title>Node10&#45;&gt;Node3</title>
<g id="a_edge11_Node000010_Node000003"><a xlink:title=" ">
<path fill="none" stroke="#63b8ff" d="M166.23,-111.59C161.48,-104.47 154.8,-94.45 148.98,-85.72"/>
<polygon fill="#63b8ff" stroke="#63b8ff" points="152,-83.94 143.54,-77.56 146.17,-87.82 152,-83.94"/>
</a>
</g>
</g>
</g>
</svg>

<g id="navigator" transform="translate(0 0)" fill="#404254">
  <rect fill="#f2f5e9" fill-opacity="0.5" stroke="#606060" stroke-width=".5" x="0" y="0" width="60" height="60"/>
  <use id="zoomplus" xlink:href="#zoomPlus" x="17" y="9" data-zoom="in"/>
  <use id="zoomminus" xlink:href="#zoomMin" x="42" y="9" data-zoom="out"/>
  <use id="reset" xlink:href="#resetDef" x="30" y="36" data-reset="true"/>
  <use id="arrowup" xlink:href="#arrowUp" x="0" y="0" data-pan-x="0" data-pan-y="-1"/>
  <use id="arrowright" xlink:href="#arrowRight" x="0" y="0" data-pan-x="1" data-pan-y="0"/>
  <use id="arrowdown" xlink:href="#arrowDown" x="0" y="0" data-pan-x="0" data-pan-y="1"/>
  <use id="arrowleft" xlink:href="#arrowLeft" x="0" y="0" data-pan-x="-1" data-pan-y="0"/>
</g>
<svg viewBox="0 0 15 15" width="100%" height="30px" preserveAspectRatio="xMaxYMin meet">
 <g id="arrow_out" transform="scale(0.3 0.3)">
  <a xlink:href="step__generator_8cpp__incl_org.svg" target="_base">
   <rect id="button" ry="5" rx="5" y="6" x="6" height="38" width="38"
        fill="#f2f5e9" fill-opacity="0.5" stroke="#606060" stroke-width="1.0"/>
   <path id="arrow"
     d="M 11.500037,31.436501 C 11.940474,20.09759 22.043105,11.32322 32.158766,21.979434 L 37.068811,17.246167 C 37.068811,17.246167 37.088388,32 37.088388,32 L 22.160133,31.978069 C 22.160133,31.978069 26.997745,27.140456 26.997745,27.140456 C 18.528582,18.264221 13.291696,25.230495 11.500037,31.436501 z"
     style="fill:#404040;"/>
  </a>
 </g>
</svg>

<style type='text/css'>
<![CDATA[
[data-mouse-over-selected='false'] { opacity: 0.7; }
[data-mouse-over-selected='true']  { opacity: 1.0; }
]]>
</style>
</svg>
